<svg width="234.000000" height="29.000000" viewBox="0 0 234 29" fill="none" xmlns="http://www.w3.org/2000/svg" xmlns:xlink="http://www.w3.org/1999/xlink">
	<desc>
			Created with Pixso.
	</desc>
	<defs/>
	<path id="Brand" d="M174.56 21.47L174.56 0.07L176.4 0.07L176.4 28.55L176.2 28.55L154 6.67L153.84 6.67L153.84 28.07L152 28.07L152 -0.41L152.2 -0.41L174.4 21.47L174.56 21.47ZM9.8 28.07L-0.24 28.07L-0.24 0.07L9.76 0.07Q11.84 0.07 13.38 0.7Q14.92 1.31 15.9 2.27Q16.88 3.23 17.36 4.39Q17.84 5.55 17.84 6.67Q17.84 7.33 17.69 7.96Q17.55 8.54 17.27 9.1Q17.03 9.6 16.7 10.05Q16.3 10.61 15.78 11.09Q14.84 11.95 13.6 12.49Q13.28 12.63 12.94 12.74Q11.99 13.03 10.95 13.03L10.95 13.19Q11.84 13.23 13.28 13.47Q14.71 13.71 16.07 14.44Q16.23 14.52 16.39 14.61Q17.55 15.31 18.42 16.52Q19.4 17.87 19.4 20.15Q19.4 20.23 19.4 20.31Q19.37 21.66 18.89 23.01Q18.79 23.32 18.65 23.61Q18.15 24.67 17.27 25.55Q16.16 26.67 14.31 27.38Q12.48 28.07 9.8 28.07ZM48.8 28.07L48.8 0.07L57.88 0.07Q60.56 0.07 62.32 0.81Q64.08 1.55 65.09 2.65Q66.12 3.75 66.54 5.03Q66.96 6.31 66.96 7.39Q66.96 8.59 66.56 9.85Q66.51 9.99 66.46 10.13Q66.06 11.23 65.28 12.19Q64.4 13.27 63.01 13.99Q61.64 14.71 59.72 14.83L59.72 14.99L60.12 15.19Q60.6 15.43 60.93 15.79Q61.27 16.15 61.81 16.95Q62.36 17.75 63.28 19.21Q64.19 20.67 65.88 23.11Q66.44 23.95 66.96 24.61Q67.48 25.27 68.03 25.73Q68.6 26.19 69.23 26.43Q69.88 26.67 70.72 26.67Q70.92 26.67 71.12 26.65Q71.32 26.63 71.52 26.59L71.52 28.07Q70.96 28.39 70.4 28.47Q69.84 28.55 68.96 28.55Q67.76 28.55 66.9 28.23Q66.04 27.92 65.36 27.38L65.36 27.38Q64.68 26.83 64.1 26.07Q63.52 25.31 62.91 24.39L59.76 19.71Q59.04 18.59 58.52 17.84Q58 17.07 57.4 16.6Q57.09 16.34 56.74 16.17Q56.42 16.01 56.06 15.91Q55.32 15.71 54.19 15.71L52.44 15.71L52.44 28.07L48.8 28.07ZM119.52 28.07L115.68 19.83L101.88 19.83L98.36 28.07L96.52 28.07L108.36 0.07L110.36 0.07L123.4 28.07L119.52 28.07ZM208.99 0.07L208.99 28.07L218.68 28.07Q221.38 28.07 223.79 27.23Q224.06 27.14 224.32 27.04Q226.44 26.2 228.13 24.83Q228.54 24.49 228.94 24.12Q229.53 23.55 230.06 22.91Q231.26 21.45 232.06 19.65Q233.2 17.07 233.2 13.99Q233.2 11.44 232.39 9.2Q232.25 8.83 232.1 8.47Q231.38 6.8 230.28 5.42Q229.7 4.7 229.01 4.06Q227.04 2.19 224.28 1.14Q221.52 0.07 218.2 0.07L208.99 0.07ZM3.4 1.83L3.4 12.31L8.2 12.31Q9.36 12.31 10.39 11.93Q10.42 11.92 10.46 11.91Q11.37 11.57 12.1 10.99Q12.22 10.9 12.34 10.79Q12.74 10.45 13.05 10.04Q13.38 9.59 13.62 9.08Q13.73 8.85 13.81 8.61Q14.08 7.81 14.08 6.91Q14.08 5.99 13.76 5.07Q13.66 4.79 13.52 4.52Q13.22 3.93 12.73 3.43Q12.04 2.71 10.94 2.27Q9.84 1.83 8.28 1.83L3.4 1.83ZM56.48 1.83L52.44 1.83L52.44 13.91L56.56 13.91Q58.16 13.91 59.38 13.35Q60.6 12.79 61.44 11.89Q62.13 11.15 62.54 10.27Q62.63 10.09 62.7 9.9Q63.12 8.79 63.12 7.71Q63.12 6.43 62.66 5.36Q62.44 4.84 62.13 4.4Q61.78 3.9 61.31 3.49Q60.43 2.71 59.21 2.27Q58 1.83 56.48 1.83ZM217.04 26.31L212.64 26.31L212.64 1.83L217.04 1.83Q220 1.83 222.28 2.84Q224.47 3.79 225.97 5.4Q226.03 5.46 226.09 5.53Q226.56 6.04 226.95 6.6Q227.88 7.9 228.44 9.46Q228.74 10.29 228.93 11.14Q229.24 12.57 229.24 14.07Q229.24 16.23 228.55 18.41Q228.26 19.37 227.8 20.26Q227.23 21.37 226.4 22.35Q224.92 24.11 222.62 25.21Q220.32 26.31 217.04 26.31ZM102.64 18.03L114.84 18.03L108.56 4.55L108.4 4.55L102.64 18.03ZM3.4 14.07L3.4 26.31L9.2 26.31Q10.48 26.31 11.62 25.93Q12.59 25.61 13.34 25.01Q13.47 24.9 13.6 24.79Q13.79 24.61 13.97 24.42Q14.55 23.78 14.94 22.95Q15.44 21.87 15.44 20.47Q15.44 19.62 15.23 18.82Q15.13 18.42 14.98 18.03Q14.83 17.65 14.62 17.3Q14.21 16.58 13.57 15.99Q12.63 15.11 11.2 14.59Q9.76 14.07 7.8 14.07L3.4 14.07Z" fill="#030211" fill-opacity="1.000000" fill-rule="evenodd"/>
</svg>
