<svg width="53.000000" height="53.000000" viewBox="0 0 53 53" fill="none" xmlns="http://www.w3.org/2000/svg" xmlns:xlink="http://www.w3.org/1999/xlink">
	<desc>
			Created with Pixso.
	</desc>
	<defs/>
	<circle id="Background" cx="26.280273" cy="25.994873" r="26.388947" fill="#181818" fill-opacity="1.000000"/>
	<path id="Pattern" d="M26.25 38.44C19.37 38.44 13.79 32.86 13.79 25.98C13.79 19.1 19.37 13.52 26.25 13.52C33.13 13.52 38.71 19.1 38.71 25.98C38.71 32.86 33.13 38.44 26.25 38.44Z" stroke="#FFFFFF" stroke-opacity="1.000000" stroke-width="2.000000" stroke-linejoin="round"/>
	<path id="Pattern" d="M16.07 33.17L17.59 32.25C17.74 32.16 17.86 32.03 17.95 31.87C18.04 31.72 18.08 31.55 18.08 31.37L18.11 26.68C18.11 26.49 18.17 26.3 18.28 26.14L20.85 22.1C20.92 21.98 21.02 21.88 21.14 21.8C21.26 21.72 21.39 21.67 21.53 21.64C21.67 21.61 21.82 21.62 21.95 21.65C22.09 21.68 22.22 21.73 22.34 21.82L24.88 23.66C25.1 23.81 25.37 23.88 25.64 23.85L29.72 23.3C29.97 23.26 30.2 23.14 30.36 22.95L33.24 19.62C33.41 19.42 33.5 19.16 33.49 18.9L33.34 15.74" stroke="#FFFFFF" stroke-opacity="1.000000" stroke-width="2.000000" stroke-linejoin="round" stroke-linecap="round"/>
	<path id="Pattern" d="M33.92 35.81L32.51 34.41C32.38 34.28 32.22 34.18 32.05 34.13L29.26 33.41C29.01 33.34 28.8 33.18 28.66 32.97C28.52 32.76 28.47 32.5 28.5 32.25L28.8 30.15C28.83 29.97 28.91 29.81 29.02 29.67C29.13 29.52 29.27 29.41 29.44 29.34L33.38 27.7C33.57 27.62 33.77 27.6 33.96 27.63C34.16 27.67 34.34 27.76 34.49 27.89L37.72 30.85" stroke="#FFFFFF" stroke-opacity="1.000000" stroke-width="2.000000" stroke-linejoin="round" stroke-linecap="round"/>
</svg>
