<svg width="22.000000" height="22.000000" viewBox="0 0 22 22" fill="none" xmlns="http://www.w3.org/2000/svg" xmlns:xlink="http://www.w3.org/1999/xlink">
	<desc>
			Created with Pixso.
	</desc>
	<defs/>
	<path id="Icon" d="M14.8 1.94L14.8 4.7" stroke="#0D0D0D" stroke-opacity="1.000000" stroke-width="1.000000" stroke-linejoin="round" stroke-linecap="round"/>
	<path id="Icon" d="M7.9 10.9L13.42 10.9" stroke="#0D0D0D" stroke-opacity="1.000000" stroke-width="1.000000" stroke-linejoin="round" stroke-linecap="round"/>
	<path id="Icon" d="M7.9 13.66L13.42 13.66" stroke="#0D0D0D" stroke-opacity="1.000000" stroke-width="1.000000" stroke-linejoin="round" stroke-linecap="round"/>
	<path id="Icon" d="M16.87 3.32C17.05 3.32 17.23 3.39 17.36 3.52C17.49 3.65 17.56 3.82 17.56 4.01L17.56 17.11C17.56 17.66 17.34 18.18 16.95 18.57C16.56 18.96 16.04 19.18 15.49 19.18L5.83 19.18C5.29 19.18 4.76 18.96 4.37 18.57C3.98 18.18 3.77 17.66 3.77 17.11L3.77 4.01C3.77 3.82 3.84 3.65 3.97 3.52C4.1 3.39 4.27 3.32 4.45 3.32L16.87 3.32Z" stroke="#0D0D0D" stroke-opacity="1.000000" stroke-width="1.000000" stroke-linejoin="round"/>
	<path id="Icon" d="M6.52 1.94L6.52 4.7" stroke="#0D0D0D" stroke-opacity="1.000000" stroke-width="1.000000" stroke-linejoin="round" stroke-linecap="round"/>
	<path id="Icon" d="M10.66 1.94L10.66 4.7" stroke="#0D0D0D" stroke-opacity="1.000000" stroke-width="1.000000" stroke-linejoin="round" stroke-linecap="round"/>
</svg>
