<svg width="94.000000" height="94.000000" viewBox="0 0 94 94" fill="none" xmlns="http://www.w3.org/2000/svg" xmlns:xlink="http://www.w3.org/1999/xlink">
	<desc>
			Created with Pixso.
	</desc>
	<defs/>
	<path id="Ellipse 9" d="M76.68 10.33C68.49 3.44 57.93 -0.7 46.41 -0.7C35.71 -0.7 24.95 2.91 16.14 10.33C7.94 17.2 2.02 26.88 0.03 38.22C-1.83 48.76 -0.15 59.98 5.62 69.95C10.97 79.22 19.47 86.72 30.3 90.65C40.35 94.32 51.69 94.6 62.52 90.65C72.57 87 81.44 79.93 87.19 69.95C92.55 60.69 94.8 49.57 92.79 38.22C90.93 27.69 85.51 17.72 76.68 10.33ZM19.16 13.93C26.54 7.74 36.04 4.01 46.41 4.01C56.04 4.01 65.72 7.26 73.65 13.93C81.03 20.12 86.36 28.83 88.15 39.04C89.83 48.52 88.31 58.62 83.11 67.59C78.3 75.93 70.65 82.69 60.9 86.23C51.86 89.53 41.65 89.78 31.91 86.23C22.86 82.94 14.88 76.58 9.7 67.59C4.88 59.26 2.86 49.25 4.67 39.04C6.33 29.56 11.22 20.59 19.16 13.93Z" fill="#F1F1F1" fill-opacity="1.000000" fill-rule="evenodd"/>
	<circle id="Ellipse 11" cx="11.492188" cy="18.760498" r="8.189812" fill="#FFFFFF" fill-opacity="1.000000"/>
	<circle id="Ellipse 11" cx="11.492188" cy="18.760498" r="6.189812" stroke="#4EAF4E" stroke-opacity="1.000000" stroke-width="4.000000"/>
	<path id="Ellipse 10" d="M48.76 -0.64C60.51 -0.06 71.14 4.83 79.08 12.49C88.22 21.28 93.03 32.89 93.47 44.65C93.95 57.32 89.36 69.01 81.52 77.79C73.08 87.25 61.65 92.49 49.92 93.36C37.27 94.32 25.41 90.17 16.35 82.66C6.58 74.57 0.92 63.35 -0.39 51.66C-1.72 39.9 1.42 28.66 7.66 19.62C8.4 18.55 9.88 18.36 10.91 19.15C11.95 19.94 12.13 21.42 11.4 22.49C5.47 31.15 3.19 41.34 4.29 51.14C5.55 62.48 11.21 72.28 19.36 79.03C28.14 86.32 39.01 89.46 49.57 88.67C60.95 87.83 70.95 82.54 78.01 74.64C85.62 66.15 89.16 55.4 88.76 44.82C88.35 33.41 83.44 23.22 75.81 15.88C68.21 8.54 58.55 4.62 48.76 4.07C47.46 4 46.41 2.95 46.41 1.65C46.41 0.35 47.46 -0.71 48.76 -0.64Z" fill="#4EAF4E" fill-opacity="1.000000" fill-rule="evenodd"/>
</svg>
