<svg width="53.000000" height="53.000000" viewBox="0 0 53 53" fill="none" xmlns="http://www.w3.org/2000/svg" xmlns:xlink="http://www.w3.org/1999/xlink">
	<desc>
			Created with Pixso.
	</desc>
	<defs/>
	<circle id="Background" cx="26.280273" cy="26.388916" r="26.388947" fill="#181818" fill-opacity="1.000000"/>
	<path id="Pattern" d="M17.79 20.97C17.66 20.87 17.56 20.74 17.48 20.59C17.41 20.45 17.37 20.29 17.37 20.12L17.37 15.37C17.37 15.09 17.48 14.82 17.68 14.62C17.88 14.42 18.15 14.31 18.43 14.31L33.22 14.31C33.5 14.31 33.77 14.42 33.97 14.62C34.17 14.82 34.28 15.09 34.28 15.37L34.28 20.07C34.28 20.23 34.24 20.39 34.16 20.54C34.09 20.69 33.99 20.82 33.86 20.91L25.82 26.99L17.79 20.97Z" stroke="#FFFFFF" stroke-opacity="1.000000" stroke-width="2.000000" stroke-linejoin="round"/>
	<path id="Pattern" d="M17.79 33.02C17.66 33.11 17.56 33.24 17.48 33.39C17.41 33.54 17.37 33.7 17.37 33.86L17.37 38.62C17.37 38.9 17.48 39.17 17.68 39.36C17.88 39.56 18.15 39.67 18.43 39.67L33.22 39.67C33.5 39.67 33.77 39.56 33.97 39.36C34.17 39.17 34.28 38.9 34.28 38.62L34.28 33.91C34.28 33.75 34.24 33.59 34.16 33.44C34.09 33.29 33.99 33.17 33.86 33.07L25.82 26.99L17.79 33.02Z" stroke="#FFFFFF" stroke-opacity="1.000000" stroke-width="2.000000" stroke-linejoin="round"/>
</svg>
