<svg width="53.000000" height="53.000000" viewBox="0 0 53 53" fill="none" xmlns="http://www.w3.org/2000/svg" xmlns:xlink="http://www.w3.org/1999/xlink">
	<desc>
			Created with Pixso.
	</desc>
	<defs/>
	<circle id="Background" cx="25.888672" cy="26.388916" r="26.388947" fill="#181818" fill-opacity="1.000000"/>
	<path id="Icon" d="M26.61 32.08C23.23 32.08 20.49 29.34 20.49 25.97C20.49 22.59 23.23 19.85 26.61 19.85C29.99 19.85 32.73 22.59 32.73 25.97C32.73 29.34 29.99 32.08 26.61 32.08Z" stroke="#FFFFFF" stroke-opacity="1.000000" stroke-width="2.000000" stroke-linejoin="round"/>
	<path id="Icon" d="M36.02 21.38L39.33 23.19C39.74 25.02 39.75 26.91 39.34 28.74L36.02 30.56C35.79 31.04 35.52 31.5 35.21 31.93L35.28 35.68C33.87 36.94 32.21 37.89 30.41 38.47L27.15 36.54C26.61 36.57 26.07 36.57 25.54 36.54L22.29 38.45C20.48 37.89 18.81 36.94 17.41 35.68L17.47 31.95C17.17 31.5 16.9 31.04 16.67 30.56L13.36 28.74C12.95 26.91 12.94 25.02 13.35 23.19L16.67 21.38C16.9 20.9 17.17 20.44 17.47 20L17.41 16.25C18.81 14.99 20.47 14.04 22.28 13.47L25.54 15.4C26.07 15.36 26.61 15.36 27.15 15.4L30.4 13.48C32.21 14.04 33.87 14.99 35.28 16.25L35.21 20C35.52 20.44 35.79 20.9 36.02 21.38Z" stroke="#FFFFFF" stroke-opacity="1.000000" stroke-width="2.000000" stroke-linejoin="round"/>
</svg>
