<svg width="20.000000" height="20.000000" viewBox="0 0 20 20" fill="none" xmlns="http://www.w3.org/2000/svg" xmlns:xlink="http://www.w3.org/1999/xlink">
	<desc>
			Created with Pixso.
	</desc>
	<defs/>
	<path id="Icon" d="M19.79 9.7C19.79 4.34 15.15 0 9.43 0C3.71 0 -0.93 4.34 -0.93 9.7C-0.93 14.54 2.86 18.55 7.81 19.28L7.81 12.5L5.18 12.5L5.18 9.7L7.81 9.7L7.81 7.56C7.81 5.13 9.36 3.78 11.72 3.78C12.86 3.78 14.04 3.97 14.04 3.97L14.04 6.36L12.74 6.36C11.45 6.36 11.05 7.11 11.05 7.88L11.05 9.7L13.92 9.7L13.46 12.5L11.05 12.5L11.05 19.28C16 18.55 19.79 14.54 19.79 9.7Z" fill="#FFFFFF" fill-opacity="1.000000" fill-rule="evenodd"/>
</svg>
