<svg width="96.000000" height="71.000000" viewBox="0 0 96 71" fill="none" xmlns="http://www.w3.org/2000/svg" xmlns:xlink="http://www.w3.org/1999/xlink">
	<desc>
			Created with Pixso.
	</desc>
	<defs/>
	<circle id="Ellipse 14" cx="64.794922" cy="26.776001" r="23.788406" fill="#EFEFEF" fill-opacity="1.000000"/>
	<path id="Star 13" d="M34.36 0.85L33.22 4.38C33.15 4.58 32.96 4.72 32.74 4.72L29.03 4.72C28.55 4.72 28.35 5.34 28.74 5.63L31.74 7.81C31.91 7.93 31.99 8.16 31.92 8.36L30.77 11.89C30.62 12.35 31.15 12.73 31.54 12.45L34.54 10.27C34.72 10.14 34.96 10.14 35.13 10.27L38.13 12.45C38.52 12.73 39.05 12.35 38.9 11.89L37.75 8.36C37.69 8.16 37.76 7.93 37.93 7.81L40.93 5.63C41.33 5.34 41.12 4.72 40.64 4.72L36.93 4.72C36.72 4.72 36.52 4.58 36.46 4.38L35.31 0.85C35.16 0.39 34.51 0.39 34.36 0.85Z" fill="#FFCC4A" fill-opacity="1.000000" fill-rule="evenodd"/>
	<path id="Polygon 1" d="M14.36 62.92L6.82 55.37C6.54 55.1 6.08 55.23 5.98 55.6L3.22 65.91C3.12 66.28 3.46 66.62 3.83 66.52L14.14 63.76C14.51 63.66 14.64 63.19 14.36 62.92Z" fill="#4EAF4E" fill-opacity="1.000000" fill-rule="evenodd"/>
	<circle id="Ellipse 13" cx="89.791016" cy="19.375488" r="5.886673" fill="#D0D0D0" fill-opacity="1.000000"/>
	<path id="Vector" d="M76.18 21.7L28.67 21.7C27.48 21.7 26.51 22.66 26.51 23.86L26.51 56.25C26.51 57.44 27.48 58.41 28.67 58.41L76.18 58.41C77.37 58.41 78.34 57.44 78.34 56.25L78.34 23.86C78.34 22.66 77.37 21.7 76.18 21.7Z" fill="#FFFFFF" fill-opacity="1.000000" fill-rule="nonzero"/>
	<path id="Vector" d="M76.18 21.7C77.37 21.7 78.34 22.66 78.34 23.86L78.34 56.25C78.34 57.44 77.37 58.41 76.18 58.41L28.67 58.41C27.48 58.41 26.51 57.44 26.51 56.25L26.51 23.86C26.51 22.66 27.48 21.7 28.67 21.7L76.18 21.7Z" stroke="#FFFFFF" stroke-opacity="1.000000" stroke-width="2.000000" stroke-linejoin="round"/>
	<path id="Vector" d="M76.18 21.7C77.37 21.7 78.34 22.66 78.34 23.86L78.34 56.25C78.34 57.44 77.37 58.41 76.18 58.41L28.67 58.41C27.48 58.41 26.51 57.44 26.51 56.25L26.51 23.86C26.51 22.66 27.48 21.7 28.67 21.7L76.18 21.7Z" stroke="#141414" stroke-opacity="1.000000" stroke-width="2.000000" stroke-linejoin="round"/>
	<path id="Vector" d="M76.18 48.12L28.67 48.12C27.48 48.12 26.51 48.39 26.51 48.72L26.51 57.8C26.51 58.14 27.48 58.41 28.67 58.41L76.18 58.41C77.37 58.41 78.34 58.14 78.34 57.8L78.34 48.72C78.34 48.39 77.37 48.12 76.18 48.12Z" fill="#4EAF4E" fill-opacity="1.000000" fill-rule="nonzero"/>
	<path id="Vector" d="M76.18 48.12C77.37 48.12 78.34 48.39 78.34 48.72L78.34 57.8C78.34 58.14 77.37 58.41 76.18 58.41L28.67 58.41C27.48 58.41 26.51 58.14 26.51 57.8L26.51 48.72C26.51 48.39 27.48 48.12 28.67 48.12L76.18 48.12Z" stroke="#141414" stroke-opacity="1.000000" stroke-width="2.000000" stroke-linejoin="round"/>
	<path id="Vector" d="M61.06 58.41L69.7 69.21" stroke="#141414" stroke-opacity="1.000000" stroke-width="2.000000" stroke-linejoin="round" stroke-linecap="round"/>
	<path id="Vector" d="M43.79 58.41L35.15 69.21" stroke="#141414" stroke-opacity="1.000000" stroke-width="2.000000" stroke-linejoin="round" stroke-linecap="round"/>
	<path id="Vector" d="M43.79 41.13L43.79 47.61" stroke="#141414" stroke-opacity="1.000000" stroke-width="2.000000" stroke-linejoin="round" stroke-linecap="round"/>
	<path id="Vector" d="M52.42 36.81L52.42 47.61" stroke="#141414" stroke-opacity="1.000000" stroke-width="2.000000" stroke-linejoin="round" stroke-linecap="round"/>
	<path id="Vector" d="M61.06 32.5L61.06 47.61" stroke="#141414" stroke-opacity="1.000000" stroke-width="2.000000" stroke-linejoin="round" stroke-linecap="round"/>
	<path id="Vector" d="M52.42 21.7L52.42 15.22" stroke="#141414" stroke-opacity="1.000000" stroke-width="2.000000" stroke-linejoin="round" stroke-linecap="round"/>
</svg>
