<svg width="88.000000" height="88.000000" viewBox="0 0 88 88" fill="none" xmlns="http://www.w3.org/2000/svg" xmlns:xlink="http://www.w3.org/1999/xlink">
	<desc>
			Created with Pixso.
	</desc>
	<defs/>
	<circle id="Ellipse 14" cx="20.896484" cy="66.385742" r="20.896465" fill="#DADADA" fill-opacity="1.000000"/>
	<path id="Star 13" d="M56.29 1.46L55.17 4.91C55.11 5.12 54.91 5.26 54.7 5.26L51.06 5.26C50.58 5.26 50.38 5.88 50.77 6.16L53.71 8.3C53.88 8.43 53.96 8.65 53.89 8.86L52.77 12.32C52.62 12.78 53.14 13.16 53.54 12.87L56.48 10.74C56.65 10.61 56.89 10.61 57.06 10.74L60 12.87C60.4 13.16 60.92 12.78 60.77 12.32L59.65 8.86C59.58 8.65 59.66 8.43 59.83 8.3L62.77 6.16C63.16 5.88 62.96 5.26 62.48 5.26L58.84 5.26C58.63 5.26 58.44 5.12 58.37 4.91L57.25 1.46C57.1 1 56.44 1 56.29 1.46Z" fill="#141414" fill-opacity="1.000000" fill-rule="evenodd"/>
	<path id="Polygon 1" d="M29.19 68.62L21.85 61.28C21.58 61.01 21.11 61.14 21.01 61.51L18.33 71.53C18.23 71.91 18.57 72.25 18.94 72.15L28.97 69.46C29.34 69.36 29.46 68.9 29.19 68.62Z" fill="#4EAF4E" fill-opacity="1.000000" fill-rule="evenodd"/>
	<circle id="Ellipse 13" cx="72.980469" cy="23.430908" r="6.029487" fill="#DADADA" fill-opacity="1.000000"/>
	<path id="Vector" d="M63.42 34.19C74.63 35.24 83.08 39.69 83.08 45.03C83.08 51.14 72.08 56.09 58.51 56.09C52.49 56.09 46.96 55.1 42.7 53.51M63.35 35.17L63.33 35.19C62.77 35.14 62.38 34.66 62.43 34.1C62.48 33.54 62.96 33.14 63.52 33.2L63.53 33.22L63.35 35.17ZM42.37 54.43L42.34 54.44C41.82 54.25 41.56 53.68 41.76 53.16C41.96 52.63 42.52 52.37 43.05 52.57L43.06 52.6L42.37 54.43Z" fill="#4EAF4E" fill-opacity="1.000000" fill-rule="nonzero"/>
	<path id="Vector" d="M63.42 34.19C74.63 35.24 83.08 39.69 83.08 45.03C83.08 51.14 72.08 56.09 58.51 56.09C52.49 56.09 46.96 55.1 42.7 53.51" stroke="#141414" stroke-opacity="1.000000" stroke-width="2.000000" stroke-linejoin="round" stroke-linecap="round"/>
	<path id="Vector" d="M14.29 30.29L14.29 42.57C14.29 48.69 25.28 53.63 38.86 53.63C52.43 53.63 63.42 48.69 63.42 42.57L63.42 30.29M13.31 30.31L13.29 30.29C13.29 29.73 13.73 29.29 14.29 29.29C14.85 29.29 15.29 29.73 15.29 30.29L15.27 30.31L13.31 30.31ZM62.44 30.31L62.42 30.29C62.42 29.73 62.86 29.29 63.42 29.29C63.98 29.29 64.42 29.73 64.42 30.29L64.4 30.31L62.44 30.31Z" fill="#FFFFFF" fill-opacity="1.000000" fill-rule="nonzero"/>
	<path id="Vector" d="M14.29 30.29L14.29 42.57C14.29 48.69 25.28 53.63 38.86 53.63C52.43 53.63 63.42 48.69 63.42 42.57L63.42 30.29" stroke="#141414" stroke-opacity="1.000000" stroke-width="2.000000" stroke-linejoin="round" stroke-linecap="round"/>
	<path id="Vector" d="M38.86 41.35C52.42 41.35 63.42 36.4 63.42 30.29C63.42 24.19 52.42 19.24 38.86 19.24C25.29 19.24 14.29 24.19 14.29 30.29C14.29 36.4 25.29 41.35 38.86 41.35Z" fill="#FFCC4A" fill-opacity="1.000000" fill-rule="nonzero"/>
	<path id="Vector" d="M38.86 41.35C25.29 41.35 14.29 36.4 14.29 30.29C14.29 24.19 25.29 19.24 38.86 19.24C52.42 19.24 63.42 24.19 63.42 30.29C63.42 36.4 52.42 41.35 38.86 41.35Z" stroke="#141414" stroke-opacity="1.000000" stroke-width="2.000000" stroke-linejoin="round"/>
	<path id="Vector" d="M29.03 40.43L29.03 52.71" stroke="#141414" stroke-opacity="1.000000" stroke-width="2.000000" stroke-linejoin="round" stroke-linecap="round"/>
	<path id="Vector" d="M33.94 53.41L33.94 57.31C33.94 63.43 44.94 68.37 58.51 68.37C72.08 68.37 83.08 63.43 83.08 57.31L83.08 45.03" stroke="#141414" stroke-opacity="1.000000" stroke-width="2.000000" stroke-linejoin="round" stroke-linecap="round"/>
	<path id="Vector" d="M68.34 55.17L68.34 67.45" stroke="#141414" stroke-opacity="1.000000" stroke-width="2.000000" stroke-linejoin="round" stroke-linecap="round"/>
	<path id="Vector" d="M48.68 40.43L48.68 67.45" stroke="#141414" stroke-opacity="1.000000" stroke-width="2.000000" stroke-linejoin="round" stroke-linecap="round"/>
</svg>
