<svg id="FinanceRestructuring" viewBox="0 0 88 87" fill="none" xmlns="http://www.w3.org/2000/svg" xmlns:xlink="http://www.w3.org/1999/xlink">
	<desc>
			Created with Pixso.
	</desc>
	<defs/>
	<circle id="Ellipse 14" cx="20.289062" cy="65.708008" r="20.896465" fill="#DADADA" fill-opacity="1.000000"/>
	<path id="Star 13" d="M55.69 0.78L54.56 4.24C54.5 4.44 54.3 4.58 54.09 4.58L50.45 4.58C49.97 4.58 49.77 5.2 50.16 5.49L53.1 7.62C53.28 7.75 53.35 7.98 53.28 8.18L52.16 11.64C52.01 12.1 52.54 12.48 52.93 12.2L55.87 10.06C56.04 9.93 56.28 9.93 56.46 10.06L59.4 12.2C59.79 12.48 60.32 12.1 60.17 11.64L59.04 8.18C58.98 7.98 59.05 7.75 59.22 7.62L62.16 5.49C62.56 5.2 62.35 4.58 61.87 4.58L58.24 4.58C58.02 4.58 57.83 4.44 57.76 4.24L56.64 0.78C56.49 0.32 55.84 0.32 55.69 0.78Z" fill="#141414" fill-opacity="1.000000" fill-rule="evenodd"/>
	<path id="Polygon 1" d="M28.58 67.95L21.24 60.61C20.97 60.33 20.51 60.46 20.41 60.83L17.72 70.86C17.62 71.23 17.96 71.57 18.33 71.47L28.36 68.78C28.73 68.68 28.86 68.22 28.58 67.95Z" fill="#4EAF4E" fill-opacity="1.000000" fill-rule="evenodd"/>
	<circle id="Ellipse 13" cx="72.373047" cy="22.754395" r="6.029487" fill="#DADADA" fill-opacity="1.000000"/>
	<path id="Vector" d="M62.82 33.51C74.02 34.56 82.47 39.01 82.47 44.35C82.47 50.47 71.48 55.41 57.9 55.41C51.88 55.41 46.36 54.43 42.09 52.83M62.75 34.49L62.72 34.51C62.17 34.46 61.77 33.98 61.82 33.42C61.87 32.86 62.35 32.47 62.91 32.52L62.93 32.54L62.75 34.49ZM41.76 53.75L41.74 53.77C41.21 53.57 40.96 53 41.15 52.48C41.35 51.96 41.91 51.7 42.44 51.89L42.45 51.92L41.76 53.75Z" fill="#4EAF4E" fill-opacity="1.000000" fill-rule="nonzero"/>
	<path id="Vector" d="M62.82 33.51C74.02 34.56 82.47 39.01 82.47 44.35C82.47 50.47 71.48 55.41 57.9 55.41C51.88 55.41 46.36 54.43 42.09 52.83" stroke="#141414" stroke-opacity="1.000000" stroke-width="2.000000" stroke-linejoin="round" stroke-linecap="round"/>
	<path id="Vector" d="M13.68 29.61L13.68 41.9C13.68 48.01 24.68 52.95 38.25 52.95C51.82 52.95 62.82 48.01 62.82 41.9L62.82 29.61M12.7 29.63L12.68 29.61C12.68 29.05 13.12 28.61 13.68 28.61C14.24 28.61 14.68 29.05 14.68 29.61L14.66 29.63L12.7 29.63ZM61.84 29.63L61.82 29.61C61.82 29.05 62.26 28.61 62.82 28.61C63.38 28.61 63.82 29.05 63.82 29.61L63.8 29.63L61.84 29.63Z" fill="#FFFFFF" fill-opacity="1.000000" fill-rule="nonzero"/>
	<path id="Vector" d="M13.68 29.61L13.68 41.9C13.68 48.01 24.68 52.95 38.25 52.95C51.82 52.95 62.82 48.01 62.82 41.9L62.82 29.61" stroke="#141414" stroke-opacity="1.000000" stroke-width="2.000000" stroke-linejoin="round" stroke-linecap="round"/>
	<path id="Vector" d="M38.25 40.67C51.82 40.67 62.82 35.72 62.82 29.61C62.82 23.51 51.82 18.56 38.25 18.56C24.68 18.56 13.68 23.51 13.68 29.61C13.68 35.72 24.68 40.67 38.25 40.67Z" fill="#FFCC4A" fill-opacity="1.000000" fill-rule="nonzero"/>
	<path id="Vector" d="M38.25 40.67C24.68 40.67 13.68 35.72 13.68 29.61C13.68 23.51 24.68 18.56 38.25 18.56C51.82 18.56 62.82 23.51 62.82 29.61C62.82 35.72 51.82 40.67 38.25 40.67Z" stroke="#141414" stroke-opacity="1.000000" stroke-width="2.000000" stroke-linejoin="round"/>
	<path id="Vector" d="M28.42 39.75L28.42 52.03" stroke="#141414" stroke-opacity="1.000000" stroke-width="2.000000" stroke-linejoin="round" stroke-linecap="round"/>
	<path id="Vector" d="M33.34 52.74L33.34 56.64C33.34 62.75 44.33 67.69 57.9 67.69C71.48 67.69 82.47 62.75 82.47 56.64L82.47 44.35" stroke="#141414" stroke-opacity="1.000000" stroke-width="2.000000" stroke-linejoin="round" stroke-linecap="round"/>
	<path id="Vector" d="M67.73 54.49L67.73 66.77" stroke="#141414" stroke-opacity="1.000000" stroke-width="2.000000" stroke-linejoin="round" stroke-linecap="round"/>
	<path id="Vector" d="M48.08 39.75L48.08 66.77" stroke="#141414" stroke-opacity="1.000000" stroke-width="2.000000" stroke-linejoin="round" stroke-linecap="round"/>
</svg>
