<svg width="246.000000" height="52.000000" viewBox="0 0 246 52" fill="none" xmlns="http://www.w3.org/2000/svg" xmlns:xlink="http://www.w3.org/1999/xlink">
	<desc>
			Created with Pixso.
	</desc>
	<defs/>
	<ellipse id="Ellipse 8" cx="122.712891" cy="25.575195" rx="123.029114" ry="26.312622" fill="#030211" fill-opacity="1.000000"/>
	<path id="Fortune" d="M74.7 31.78Q75.84 32.2 77.15 32.2Q78.52 32.2 79.71 31.73Q80.13 31.57 80.52 31.34Q81.23 30.94 81.79 30.39Q82.45 29.76 82.92 28.93Q83.03 28.73 83.14 28.52Q83.79 27.13 83.79 25.44Q83.79 23.76 83.15 22.39Q83.04 22.16 82.92 21.94Q82.45 21.11 81.78 20.47Q81.22 19.94 80.52 19.54Q80.12 19.31 79.69 19.14Q78.51 18.67 77.15 18.67Q75.86 18.67 74.73 19.1Q74.24 19.28 73.78 19.54Q73.14 19.9 72.62 20.39Q71.89 21.05 71.38 21.95Q71.2 22.26 71.07 22.57Q70.5 23.88 70.5 25.44Q70.5 27.01 71.08 28.33Q71.21 28.64 71.38 28.93Q71.89 29.82 72.61 30.49Q73.14 30.97 73.78 31.34Q74.23 31.6 74.7 31.78ZM172.35 32.07L174.08 32.07L174.08 18.81L172.35 18.81L172.35 29.33L165.4 18.81L163.67 18.81L163.67 32.07L165.4 32.07L165.4 21.53L172.35 32.07ZM189.49 24.66L189.49 20.23L194.89 20.23L194.89 18.81L187.76 18.81L187.76 32.07L194.89 32.07L194.89 30.65L189.49 30.65L189.49 26.09L194.32 26.09L194.32 24.66L189.49 24.66ZM58.32 20.23L58.32 18.83L50.83 18.83L50.83 32.07L52.56 32.07L52.56 26.1L57.24 26.1L57.24 24.7L52.56 24.7L52.56 20.23L58.32 20.23ZM100.63 26.66L103.79 32.07L105.85 32.07L102.53 26.52Q103.95 26.21 104.73 25.33Q104.82 25.24 104.89 25.14Q105.2 24.73 105.39 24.27Q105.68 23.56 105.68 22.72Q105.68 21.76 105.3 20.98Q105.24 20.85 105.17 20.73Q105.1 20.61 105.03 20.5Q104.52 19.78 103.62 19.34Q102.59 18.83 101.09 18.83L96.81 18.83L96.81 32.07L98.54 32.07L98.54 26.66L100.63 26.66ZM127.25 20.23L127.25 18.83L118.28 18.83L118.28 20.23L121.91 20.23L121.91 32.07L123.64 32.07L123.64 20.23L127.25 20.23ZM141.8 27.2L141.8 18.83L140.07 18.83L140.07 27.19Q140.07 28.84 140.73 29.97Q141.13 30.67 141.72 31.15Q142.08 31.44 142.51 31.65Q143.64 32.2 145.05 32.2Q146.46 32.2 147.59 31.65Q148.03 31.44 148.39 31.14Q148.98 30.66 149.38 29.97Q150.05 28.84 150.05 27.19L150.05 18.83L148.32 18.83L148.32 27.2Q148.32 28.97 147.45 29.83Q147.33 29.95 147.2 30.05Q146.38 30.68 145.07 30.68Q143.73 30.68 142.9 30.03Q142.78 29.94 142.67 29.83Q141.8 28.97 141.8 27.2ZM79.15 30.31Q78.23 30.7 77.15 30.7Q76.07 30.7 75.16 30.32Q74.9 30.2 74.65 30.06Q74.28 29.84 73.96 29.57Q73.32 29.02 72.9 28.22Q72.26 27.01 72.26 25.44Q72.26 23.84 72.9 22.65Q73.33 21.85 73.97 21.3Q74.28 21.03 74.64 20.82Q74.82 20.72 75.01 20.63Q75.97 20.18 77.15 20.18Q78.33 20.18 79.3 20.64Q79.48 20.72 79.65 20.82Q80.01 21.03 80.32 21.3Q80.96 21.85 81.39 22.65Q82.03 23.84 82.03 25.44Q82.03 27.01 81.39 28.22Q80.97 29.02 80.33 29.57Q80.01 29.84 79.64 30.06Q79.4 30.2 79.15 30.31ZM101.09 25.27L98.54 25.27L98.54 20.25L101.09 20.25Q102.51 20.25 103.2 20.9Q103.33 21.02 103.43 21.15Q103.9 21.76 103.9 22.72Q103.9 23.6 103.5 24.21Q103.36 24.41 103.19 24.58Q102.49 25.27 101.09 25.27Z" fill="#FFFFFF" fill-opacity="1.000000" fill-rule="evenodd"/>
</svg>
