<svg width="101.000000" height="71.000000" viewBox="0 0 101 71" fill="none" xmlns="http://www.w3.org/2000/svg" xmlns:xlink="http://www.w3.org/1999/xlink">
	<desc>
			Created with Pixso.
	</desc>
	<defs/>
	<circle id="Ellipse 14" cx="72.743164" cy="26.873291" r="23.788406" fill="#DADADA" fill-opacity="1.000000"/>
	<path id="Star 13" d="M93.72 51.42L92.79 54.26C92.73 54.47 92.54 54.61 92.32 54.61L89.33 54.61C88.85 54.61 88.64 55.23 89.04 55.51L91.45 57.27C91.63 57.4 91.7 57.62 91.64 57.83L90.71 60.67C90.56 61.13 91.09 61.52 91.48 61.23L93.9 59.48C94.08 59.35 94.31 59.35 94.49 59.48L96.91 61.23C97.3 61.52 97.82 61.13 97.67 60.67L96.75 57.83C96.68 57.62 96.76 57.4 96.93 57.27L99.35 55.51C99.74 55.23 99.54 54.61 99.06 54.61L96.07 54.61C95.85 54.61 95.66 54.47 95.59 54.26L94.67 51.42C94.52 50.96 93.87 50.96 93.72 51.42Z" fill="#141414" fill-opacity="1.000000" fill-rule="evenodd"/>
	<path id="Polygon 1" d="M14.08 37.89L6.53 30.34C6.26 30.07 5.79 30.19 5.69 30.56L2.93 40.87C2.83 41.24 3.17 41.58 3.54 41.48L13.85 38.72C14.23 38.62 14.35 38.16 14.08 37.89Z" fill="#4EAF4E" fill-opacity="1.000000" fill-rule="evenodd"/>
	<circle id="Ellipse 13" cx="47.314453" cy="5.020508" r="5.021439" fill="#DADADA" fill-opacity="1.000000"/>
	<path id="Vector" d="M79.17 23.78L21.02 23.78C19.79 23.78 18.78 24.78 18.78 26.01L18.78 57.32C18.78 58.56 19.79 59.56 21.02 59.56L79.17 59.56C80.4 59.56 81.4 58.56 81.4 57.32L81.4 26.01C81.4 24.78 80.4 23.78 79.17 23.78Z" fill="#EBEBEB" fill-opacity="1.000000" fill-rule="nonzero"/>
	<path id="Vector" d="M79.17 23.78C80.4 23.78 81.4 24.78 81.4 26.01L81.4 57.32C81.4 58.56 80.4 59.56 79.17 59.56L21.02 59.56C19.79 59.56 18.78 58.56 18.78 57.32L18.78 26.01C18.78 24.78 19.79 23.78 21.02 23.78L79.17 23.78Z" stroke="#141414" stroke-opacity="1.000000" stroke-width="2.000000" stroke-linejoin="round"/>
	<path id="Vector 2" d="M81.51 43.71L63.6 59.71L78.51 59.71C80.17 59.71 81.51 58.36 81.51 56.71L81.51 43.71Z" fill="#4EAF4E" fill-opacity="1.000000" fill-rule="nonzero"/>
	<path id="Vector 2" d="M81.51 43.71L81.51 56.71C81.51 58.36 80.17 59.71 78.51 59.71L63.6 59.71L81.51 43.71Z" stroke="#000000" stroke-opacity="1.000000" stroke-width="1.000000"/>
	<path id="Vector 1" d="M18.68 39.51L36.59 23.52L21.68 23.52C20.02 23.52 18.68 24.86 18.68 26.52L18.68 39.51Z" fill="#4EAF4E" fill-opacity="1.000000" fill-rule="nonzero"/>
	<path id="Vector 1" d="M18.68 39.51L18.68 26.52C18.68 24.86 20.02 23.52 21.68 23.52L36.59 23.52L18.68 39.51Z" stroke="#000000" stroke-opacity="1.000000" stroke-width="1.000000"/>
	<path id="Vector" d="M50.09 50.61C55.03 50.61 59.04 46.61 59.04 41.67C59.04 36.73 55.03 32.72 50.09 32.72C45.15 32.72 41.15 36.73 41.15 41.67C41.15 46.61 45.15 50.61 50.09 50.61Z" fill="#FFCC4A" fill-opacity="1.000000" fill-rule="nonzero"/>
	<path id="Vector" d="M50.09 50.61C45.15 50.61 41.15 46.61 41.15 41.67C41.15 36.73 45.15 32.72 50.09 32.72C55.03 32.72 59.04 36.73 59.04 41.67C59.04 46.61 55.03 50.61 50.09 50.61Z" stroke="#141414" stroke-opacity="1.000000" stroke-width="2.000000" stroke-linejoin="round"/>
	<path id="Vector" d="M63.51 23.78L81.4 39.43" stroke="#141414" stroke-opacity="1.000000" stroke-width="2.000000" stroke-linejoin="round" stroke-linecap="round"/>
	<path id="Vector" d="M63.51 59.56L81.4 43.9" stroke="#141414" stroke-opacity="1.000000" stroke-width="2.000000" stroke-linejoin="round" stroke-linecap="round"/>
	<path id="Vector" d="M36.02 23.05L36.02 23.02C36.44 22.66 37.06 22.7 37.43 23.12C37.8 23.54 37.76 24.16 37.33 24.53L37.31 24.53L36.02 23.05ZM19.44 40.16L19.44 40.18C19.02 40.55 18.4 40.51 18.03 40.09C17.66 39.67 17.7 39.05 18.13 38.68L18.15 38.68L19.44 40.16Z" fill="#D9D9D9" fill-opacity="1.000000" fill-rule="nonzero"/>
	<path id="Vector" d="M36.68 23.78L18.78 39.43" stroke="#141414" stroke-opacity="1.000000" stroke-width="2.000000" stroke-linejoin="round" stroke-linecap="round"/>
	<path id="Vector" d="M36.68 59.56L18.78 43.9" stroke="#141414" stroke-opacity="1.000000" stroke-width="2.000000" stroke-linejoin="round" stroke-linecap="round"/>
</svg>
