<svg width="18.000000" height="18.000000" viewBox="0 0 18 18" fill="none" xmlns="http://www.w3.org/2000/svg" xmlns:xlink="http://www.w3.org/1999/xlink">
	<desc>
			Created with Pixso.
	</desc>
	<defs/>
	<path id="Icon" d="M11.83 1.43C12.82 1.43 13.77 1.81 14.47 2.49C15.17 3.16 15.57 4.08 15.57 5.03L15.57 12.24C15.57 13.2 15.17 14.11 14.47 14.79C13.77 15.46 12.82 15.84 11.83 15.85L4.33 15.85C3.34 15.84 2.39 15.46 1.69 14.79C0.99 14.11 0.59 13.2 0.59 12.24L0.59 5.03C0.59 4.08 0.99 3.16 1.69 2.49C2.39 1.81 3.34 1.43 4.33 1.43L11.83 1.43ZM11.83 -0.01L4.33 -0.01C1.45 -0.01 -0.91 2.26 -0.91 5.03L-0.91 12.24C-0.91 15.02 1.45 17.29 4.33 17.29L11.83 17.29C14.71 17.29 17.07 15.02 17.07 12.24L17.07 5.03C17.07 2.26 14.71 -0.01 11.83 -0.01Z" fill="#FFFFFF" fill-opacity="1.000000" fill-rule="nonzero"/>
	<path id="Icon" d="M12.95 5.03C12.73 5.03 12.51 4.97 12.33 4.85C12.14 4.73 12 4.56 11.91 4.37C11.83 4.17 11.8 3.95 11.85 3.74C11.89 3.53 12 3.34 12.16 3.19C12.31 3.04 12.51 2.93 12.73 2.89C12.95 2.85 13.17 2.87 13.38 2.95C13.59 3.04 13.76 3.17 13.88 3.35C14.01 3.53 14.07 3.74 14.07 3.95C14.07 4.1 14.05 4.24 13.99 4.37C13.93 4.5 13.85 4.62 13.75 4.72C13.64 4.82 13.52 4.9 13.38 4.95C13.24 5.01 13.1 5.03 12.95 5.03ZM8.08 5.75C8.67 5.75 9.25 5.92 9.75 6.24C10.24 6.56 10.62 7.01 10.85 7.54C11.08 8.06 11.14 8.64 11.02 9.2C10.9 9.76 10.62 10.27 10.2 10.68C9.78 11.08 9.25 11.36 8.66 11.47C8.08 11.58 7.48 11.52 6.93 11.3C6.39 11.08 5.92 10.71 5.59 10.24C5.26 9.77 5.08 9.21 5.08 8.64C5.08 7.87 5.4 7.14 5.96 6.6C6.52 6.06 7.29 5.76 8.08 5.75ZM8.08 4.31C7.19 4.31 6.32 4.57 5.58 5.04C4.84 5.52 4.27 6.19 3.93 6.98C3.59 7.77 3.5 8.64 3.67 9.48C3.85 10.32 4.27 11.09 4.9 11.7C5.53 12.3 6.33 12.71 7.2 12.88C8.08 13.05 8.98 12.96 9.8 12.63C10.62 12.31 11.32 11.75 11.82 11.04C12.31 10.33 12.58 9.49 12.58 8.64C12.58 7.49 12.1 6.39 11.26 5.58C10.42 4.77 9.27 4.31 8.08 4.31Z" fill="#FFFFFF" fill-opacity="1.000000" fill-rule="nonzero"/>
</svg>
