<svg width="100.000000" height="90.000000" viewBox="0 0 100 90" fill="none" xmlns="http://www.w3.org/2000/svg" xmlns:xlink="http://www.w3.org/1999/xlink">
	<desc>
			Created with Pixso.
	</desc>
	<defs/>
	<circle id="Ellipse 14" cx="22.793945" cy="66.193604" r="23.788406" fill="#DADADA" fill-opacity="1.000000"/>
	<path id="Star 13" d="M73.25 1.46L72.33 4.3C72.26 4.51 72.07 4.65 71.85 4.65L68.87 4.65C68.38 4.65 68.18 5.27 68.57 5.55L70.99 7.31C71.16 7.43 71.24 7.66 71.17 7.87L70.25 10.71C70.1 11.17 70.62 11.55 71.02 11.27L73.43 9.51C73.61 9.38 73.85 9.38 74.02 9.51L76.44 11.27C76.83 11.55 77.36 11.17 77.21 10.71L76.29 7.87C76.22 7.66 76.29 7.43 76.47 7.31L78.89 5.55C79.28 5.27 79.08 4.65 78.59 4.65L75.6 4.65C75.39 4.65 75.19 4.51 75.13 4.3L74.2 1.46C74.05 1 73.4 1 73.25 1.46Z" fill="#141414" fill-opacity="1.000000" fill-rule="evenodd"/>
	<path id="Polygon 1" d="M14.96 43.98L7.42 36.44C7.15 36.16 6.68 36.29 6.58 36.66L3.82 46.97C3.72 47.34 4.06 47.68 4.43 47.58L14.74 44.82C15.11 44.72 15.24 44.26 14.96 43.98Z" fill="#4EAF4E" fill-opacity="1.000000" fill-rule="evenodd"/>
	<circle id="Ellipse 13" cx="92.395508" cy="17.676025" r="7.257034" fill="#DADADA" fill-opacity="1.000000"/>
	<rect id="Rectangle 33" x="27.685547" y="56.426758" width="51.821083" height="8.028477" fill="#4EAF4E" fill-opacity="1.000000"/>
	<path id="Vector" d="M25.23 34.54L81.96 34.54L53.59 17.08L25.23 34.54Z" fill="#FFCC4A" fill-opacity="1.000000" fill-rule="nonzero"/>
	<path id="Vector" d="M81.96 34.54L53.59 17.08L25.23 34.54L81.96 34.54Z" stroke="#141414" stroke-opacity="1.000000" stroke-width="2.000000" stroke-linejoin="round"/>
	<path id="Vector" d="M33.95 34.54L33.95 56.36" stroke="#141414" stroke-opacity="1.000000" stroke-width="2.000000" stroke-linejoin="round" stroke-linecap="round"/>
	<path id="Vector" d="M47.04 34.54L47.04 56.36" stroke="#141414" stroke-opacity="1.000000" stroke-width="2.000000" stroke-linejoin="round" stroke-linecap="round"/>
	<path id="Vector" d="M60.14 34.54L60.14 56.36" stroke="#141414" stroke-opacity="1.000000" stroke-width="2.000000" stroke-linejoin="round" stroke-linecap="round"/>
	<path id="Vector" d="M73.23 34.54L73.23 56.36" stroke="#141414" stroke-opacity="1.000000" stroke-width="2.000000" stroke-linejoin="round" stroke-linecap="round"/>
	<path id="Vector" d="M27.41 56.36L79.77 56.36" stroke="#141414" stroke-opacity="1.000000" stroke-width="2.000000" stroke-linejoin="round" stroke-linecap="round"/>
	<path id="Vector" d="M23.04 65.09L84.14 65.09" stroke="#141414" stroke-opacity="1.000000" stroke-width="2.000000" stroke-linejoin="round" stroke-linecap="round"/>
</svg>
