<svg width="18.000000" height="18.000000" viewBox="0 0 18 18" fill="none" xmlns="http://www.w3.org/2000/svg" xmlns:xlink="http://www.w3.org/1999/xlink">
	<desc>
			Created with Pixso.
	</desc>
	<defs/>
	<path id="Icon" d="M16.27 -0.38L1.21 -0.38C0.39 -0.38 -0.33 0.21 -0.33 1.02L-0.33 16.11C-0.33 16.93 0.39 17.66 1.21 17.66L16.27 17.66C17.1 17.66 17.72 16.93 17.72 16.11L17.72 1.02C17.72 0.21 17.1 -0.38 16.27 -0.38ZM5.26 14.66L2.68 14.66L2.68 6.62L5.26 6.62L5.26 14.66ZM4.06 5.4L4.04 5.4C3.22 5.4 2.68 4.78 2.68 4.01C2.68 3.22 3.23 2.62 4.08 2.62C4.92 2.62 5.44 3.22 5.46 4.01C5.46 4.78 4.92 5.4 4.06 5.4ZM14.71 14.66L12.13 14.66L12.13 10.26C12.13 9.21 11.75 8.49 10.82 8.49C10.1 8.49 9.68 8.97 9.49 9.44C9.42 9.61 9.4 9.84 9.4 10.08L9.4 14.66L6.82 14.66L6.82 6.62L9.4 6.62L9.4 7.74C9.78 7.2 10.37 6.43 11.73 6.43C13.43 6.43 14.71 7.55 14.71 9.96L14.71 14.66Z" fill="#FFFFFF" fill-opacity="1.000000" fill-rule="nonzero"/>
</svg>
