<svg width="13.000000" height="17.000000" viewBox="0 0 13 17" fill="none" xmlns="http://www.w3.org/2000/svg" xmlns:xlink="http://www.w3.org/1999/xlink">
	<desc>
			Created with Pixso.
	</desc>
	<defs/>
	<path id="Icon" d="M6.2 8.58C4.9 8.58 3.84 7.53 3.84 6.23C3.84 4.93 4.9 3.87 6.2 3.87C7.5 3.87 8.56 4.93 8.56 6.23C8.56 7.53 7.5 8.58 6.2 8.58Z" stroke="#FFCC4A" stroke-opacity="1.000000" stroke-width="1.000000" stroke-linejoin="round"/>
	<path id="Icon" d="M6.2 15.65C6.2 15.65 0.31 11.53 0.31 6.23C0.31 4.66 0.93 3.17 2.03 2.06C3.14 0.96 4.64 0.34 6.2 0.34C7.76 0.34 9.26 0.96 10.37 2.06C11.47 3.17 12.09 4.66 12.09 6.23C12.09 11.53 6.2 15.65 6.2 15.65Z" stroke="#FFCC4A" stroke-opacity="1.000000" stroke-width="1.000000" stroke-linejoin="round"/>
</svg>
