<svg width="30.000000" height="29.000000" viewBox="0 0 30 29" fill="none" xmlns="http://www.w3.org/2000/svg" xmlns:xlink="http://www.w3.org/1999/xlink">
	<desc>
			Created with Pixso.
	</desc>
	<defs/>
	<path id="Union" d="M26.96 20.76C28.49 20.76 29.73 19.52 29.73 17.98L29.73 2.09C29.73 0.55 28.49 -0.69 26.96 -0.69L2.77 -0.69C1.24 -0.69 0 0.55 0 2.09L0 17.98C0 19.52 1.24 20.76 2.77 20.76L14.1 20.76C14.1 20.76 14.1 20.77 14.11 20.77L21.28 27.94C21.86 28.53 22.86 28.11 22.86 27.29L22.86 20.76L26.96 20.76Z" fill="#FFCC4A" fill-opacity="1.000000" fill-rule="nonzero"/>
	<rect id="Rectangle 15" x="7.569336" y="12.947754" rx="0.775175" width="13.869875" height="1.550351" fill="#1B1B1B" fill-opacity="1.000000"/>
	<rect id="Rectangle 16" x="7.569336" y="8.953613" rx="0.775175" width="13.869875" height="1.550351" fill="#1B1B1B" fill-opacity="1.000000"/>
	<rect id="Rectangle 17" x="7.569336" y="5.373047" rx="0.775175" width="13.869875" height="1.550351" fill="#1B1B1B" fill-opacity="1.000000"/>
</svg>
