<svg width="87.000000" height="39.000000" viewBox="0 0 87 39" fill="none" xmlns="http://www.w3.org/2000/svg" xmlns:xlink="http://www.w3.org/1999/xlink">
	<desc>
			Created with Pixso.
	</desc>
	<defs/>
	<path id="Norto" d="M16.38 -0.5L12.48 -0.5L12.48 28.34L4.79 -0.5L-0.18 -0.5L-0.18 38.07L3.73 38.07L3.73 8.19L11.74 38.07L16.38 38.07L16.38 -0.5ZM30.39 -0.5L24.06 -0.5Q21.63 -0.5 20.4 0.72Q19.17 1.95 19.17 4.41L19.17 33.17Q19.17 35.63 20.4 36.85Q21.63 38.07 24.06 38.07L30.39 38.07Q32.84 38.07 34.07 36.84Q35.3 35.62 35.3 33.17L35.3 4.41Q35.3 1.95 34.07 0.73Q32.84 -0.5 30.39 -0.5ZM42.3 38.07L42.3 21.95L45.95 21.95L51.59 38.07L56.18 38.07L50.35 21.89Q52 21.7 52.94 20.79Q54.2 19.57 54.2 17.05L54.2 4.41Q54.2 3.74 54.11 3.16L60.03 3.16L60.03 38.07L64.25 38.07L64.25 3.16L70.23 3.16Q70.14 3.74 70.14 4.41L70.14 33.17Q70.14 35.63 71.37 36.85Q72.59 38.07 75.03 38.07L81.36 38.07Q83.81 38.07 85.03 36.84Q86.26 35.62 86.26 33.17L86.26 4.41Q86.26 1.95 85.03 0.73Q83.81 -0.5 81.36 -0.5L75.03 -0.5Q72.59 -0.5 71.37 0.72Q70.75 1.34 70.44 2.27L70.44 -0.5L53.82 -0.5L53.82 2.06Q53.52 1.27 52.97 0.72Q51.75 -0.5 49.31 -0.5L38.08 -0.5L38.08 38.07L42.3 38.07ZM31.07 5.09L31.07 32.48Q31.07 33.73 30.69 34.07Q30.33 34.41 29.15 34.41L25.31 34.41Q24.12 34.41 23.75 34.07Q23.38 33.73 23.38 32.48L23.38 5.09Q23.38 3.85 23.75 3.51Q24.12 3.16 25.31 3.16L29.15 3.16Q30.33 3.16 30.69 3.51Q31.07 3.85 31.07 5.09ZM42.3 18.29L42.3 3.16L48.07 3.16Q49.31 3.16 49.64 3.51Q49.99 3.85 49.99 5.09L49.99 16.36Q49.99 17.61 49.64 17.95Q49.31 18.29 48.07 18.29L42.3 18.29ZM82.04 5.09L82.04 32.48Q82.04 33.73 81.66 34.07Q81.29 34.41 80.11 34.41L76.27 34.41Q75.09 34.41 74.71 34.07Q74.35 33.73 74.35 32.48L74.35 5.09Q74.35 3.85 74.71 3.51Q75.09 3.16 76.27 3.16L80.11 3.16Q81.29 3.16 81.66 3.51Q82.04 3.85 82.04 5.09Z" fill="#030211" fill-opacity="1.000000" fill-rule="evenodd"/>
</svg>
