<svg width="172.000000" height="37.000000" viewBox="0 0 172 37" fill="none" xmlns="http://www.w3.org/2000/svg" xmlns:xlink="http://www.w3.org/1999/xlink">
	<desc>
			Created with Pixso.
	</desc>
	<defs/>
	<path id="OutOfThe Sand Box" d="M0.35 1.72Q-0.48 3.16 -0.48 5.08Q-0.48 6.95 0.32 8.37Q0.57 8.82 0.91 9.22Q1.54 9.99 2.35 10.41Q3.32 10.9 4.54 10.9Q5.79 10.9 6.77 10.39Q7.56 9.97 8.18 9.21Q8.53 8.78 8.79 8.31Q9.56 6.9 9.56 5.08Q9.56 3.21 8.76 1.78Q8.51 1.33 8.18 0.93Q7.56 0.18 6.77 -0.24Q5.79 -0.76 4.54 -0.76Q3.32 -0.76 2.35 -0.26Q1.54 0.15 0.91 0.92Q0.59 1.3 0.35 1.72ZM69.41 1.72Q68.57 3.16 68.57 5.08Q68.57 6.95 69.37 8.37Q69.63 8.82 69.96 9.22Q70.6 9.99 71.41 10.41Q72.38 10.9 73.59 10.9Q74.85 10.9 75.83 10.39Q76.62 9.97 77.24 9.21Q77.59 8.78 77.85 8.31Q78.61 6.9 78.61 5.08Q78.61 3.21 77.81 1.78Q77.56 1.33 77.24 0.93Q76.62 0.18 75.83 -0.24Q74.85 -0.76 73.59 -0.76Q72.38 -0.76 71.41 -0.26Q70.6 0.15 69.96 0.92Q69.65 1.3 69.41 1.72ZM26.54 -0.43L22.17 -0.43L22.17 0.49L23.57 0.49L23.57 6Q23.57 8.42 24.24 9.38Q24.55 9.82 24.95 10.13Q25.96 10.9 27.56 10.9Q28.75 10.9 29.61 10.46Q30.47 10.02 30.86 9.48Q31.56 8.5 31.56 6.2L31.56 0.49L32.97 0.49L32.97 -0.43L28.59 -0.43L28.59 0.49L30.58 0.49L30.58 6.2Q30.58 7.99 30.19 8.7Q30.08 8.92 29.92 9.1Q29.2 9.93 27.54 9.93Q26.17 9.93 25.43 9.24Q25.12 8.95 24.92 8.54Q24.55 7.78 24.55 6L24.55 0.49L26.54 0.49L26.54 -0.43ZM55.26 -0.43L45.89 -0.43L45.56 4.18L46.49 4.3L46.77 0.49L50.09 0.49L50.09 9.65L47.72 9.65L47.72 10.57L53.43 10.57L53.43 9.65L51.06 9.65L51.06 0.49L54.38 0.49L54.66 4.3L55.6 4.18L55.26 -0.43ZM101.32 -0.43L92.16 -0.43L92.16 0.49L93.74 0.49L93.74 9.65L92.16 9.65L92.16 10.57L97.26 10.57L97.26 9.65L94.72 9.65L94.72 5.22L97.88 5.22L97.88 6.62L98.78 6.62L98.78 2.87L97.88 2.87L97.88 4.3L94.72 4.3L94.72 0.49L100.3 0.49L100.54 3.09L101.42 3.09L101.32 -0.43ZM124.32 -0.43L114.94 -0.43L114.61 4.18L115.55 4.3L115.82 0.49L119.14 0.49L119.14 9.65L116.78 9.65L116.78 10.57L122.48 10.57L122.48 9.65L120.12 9.65L120.12 0.49L123.44 0.49L123.71 4.3L124.65 4.18L124.32 -0.43ZM141.46 -0.43L137.55 -0.43L137.55 0.49L139.02 0.49L139.02 9.65L137.55 9.65L137.55 10.57L141.46 10.57L141.46 9.65L139.99 9.65L139.99 5.36L145.31 5.36L145.31 9.65L143.84 9.65L143.84 10.57L147.77 10.57L147.77 9.65L146.28 9.65L146.28 0.49L147.77 0.49L147.77 -0.43L143.84 -0.43L143.84 0.49L145.31 0.49L145.31 4.44L139.99 4.44L139.99 0.49L141.46 0.49L141.46 -0.43ZM170.2 -0.43L160.92 -0.43L160.92 0.49L162.58 0.49L162.58 9.65L160.92 9.65L160.92 10.57L170.38 10.57L170.38 6.98L169.48 6.98L169.38 9.65L163.56 9.65L163.56 5.22L166.72 5.22L166.72 6.62L167.62 6.62L167.62 2.87L166.72 2.87L166.72 4.3L163.56 4.3L163.56 0.49L169.19 0.49L169.38 3.17L170.28 3.17L170.2 -0.43ZM1 7.31Q0.57 6.28 0.57 5.06Q0.57 3.87 0.98 2.85Q1.23 2.24 1.62 1.69Q2.1 1.02 2.74 0.65Q3.52 0.22 4.54 0.22Q5.48 0.22 6.22 0.6Q6.91 0.96 7.43 1.65Q7.71 2.04 7.92 2.45Q8.5 3.61 8.5 5.06Q8.5 6.44 7.97 7.57Q7.75 8.04 7.44 8.47Q6.93 9.17 6.25 9.53Q5.5 9.93 4.54 9.93Q3.6 9.93 2.86 9.54Q2.16 9.17 1.64 8.45Q1.25 7.91 1 7.31ZM70.06 7.31Q69.63 6.28 69.63 5.06Q69.63 3.87 70.04 2.85Q70.28 2.24 70.67 1.69Q71.15 1.02 71.8 0.65Q72.58 0.22 73.59 0.22Q74.53 0.22 75.27 0.6Q75.97 0.96 76.48 1.65Q76.77 2.04 76.98 2.45Q77.56 3.61 77.56 5.06Q77.56 6.44 77.03 7.57Q76.81 8.04 76.49 8.47Q75.99 9.17 75.3 9.53Q74.55 9.93 73.59 9.93Q72.66 9.93 71.92 9.54Q71.21 9.17 70.69 8.45Q70.3 7.91 70.06 7.31ZM8.58 25.36L7.7 25.36Q7.7 25.46 7.66 25.61Q7.57 26.12 7.53 26.22Q7.51 26.26 7.48 26.28Q7.44 26.32 7.37 26.32Q7.29 26.32 6.92 26.04Q6.61 25.8 6.26 25.63Q5.47 25.24 4.5 25.24Q3.39 25.24 2.52 25.69Q2.1 25.91 1.74 26.24Q1.02 26.87 0.76 27.66Q0.61 28.11 0.61 28.6Q0.61 29.34 0.93 29.9L0.93 29.9Q1.26 30.46 1.67 30.75Q2.08 31.04 2.77 31.26Q3.46 31.47 3.86 31.53Q4.26 31.59 4.93 31.65Q5.34 31.69 5.61 31.73Q5.89 31.77 6.31 31.9Q6.73 32.04 6.99 32.24Q7.25 32.45 7.45 32.81Q7.64 33.17 7.64 33.66Q7.64 33.96 7.56 34.23Q7.4 34.79 6.91 35.24Q6.18 35.93 4.56 35.93Q3.32 35.93 2.57 35.32Q2.34 35.13 2.16 34.89Q1.73 34.32 1.49 33.15L0.61 33.15Q0.79 34.79 0.79 35.22Q0.79 36.12 0.61 36.96L1.49 36.96Q1.59 36.32 1.67 36.08Q1.76 35.93 1.86 35.93Q1.94 35.93 2.02 36Q2.26 36.2 2.52 36.36Q3.45 36.9 4.69 36.9Q5.73 36.9 6.61 36.53Q7.07 36.33 7.49 36.03Q8.01 35.66 8.3 35.16Q8.7 34.49 8.7 33.58Q8.7 32.88 8.41 32.32Q8.11 31.74 7.49 31.32Q7.41 31.26 7.33 31.22Q6.92 30.98 6.44 30.88Q5.87 30.75 4.64 30.61Q4.09 30.55 3.74 30.49Q3.39 30.42 2.83 30.21Q2.37 30.04 2.08 29.72Q2.02 29.65 1.97 29.58Q1.95 29.55 1.93 29.53Q1.67 29.11 1.67 28.52Q1.67 28.36 1.7 28.2Q1.81 27.53 2.44 26.94Q2.47 26.92 2.49 26.89Q3.26 26.22 4.62 26.22Q5.79 26.22 6.52 26.79Q6.85 27.04 7.1 27.41Q7.55 28.09 7.7 29.25L8.58 29.09Q8.41 27.66 8.41 26.77Q8.41 26.12 8.58 25.36ZM139.19 27.72Q138.35 29.16 138.35 31.08Q138.35 32.95 139.15 34.37Q139.41 34.82 139.74 35.22Q140.38 35.99 141.19 36.41Q142.16 36.9 143.37 36.9Q144.63 36.9 145.61 36.39Q146.4 35.97 147.02 35.21Q147.37 34.78 147.63 34.31Q148.39 32.9 148.39 31.08Q148.39 29.21 147.59 27.78Q147.34 27.33 147.02 26.93Q146.4 26.18 145.61 25.76Q144.63 25.24 143.37 25.24Q142.16 25.24 141.19 25.74Q140.38 26.15 139.74 26.92Q139.43 27.3 139.19 27.72ZM28.1 25.57L23.9 25.57L23.9 26.49L26.7 26.49L22.93 35.65L21.89 35.65L21.89 36.57L25.9 36.57L25.9 35.65L23.9 35.65L25 32.94L30.1 32.94L31.21 35.65L29.22 35.65L29.22 36.57L33.22 36.57L33.22 35.65L32.22 35.65L28.1 25.57ZM48.6 25.57L45.26 25.57L45.26 26.49L46.79 26.49L46.79 35.65L45.26 35.65L45.26 36.57L49.89 36.57L49.89 35.65L47.68 35.65L47.68 26.49L48.02 26.49L53.25 36.82L54.99 36.82L54.99 26.49L56.26 26.49L56.26 25.57L51.9 25.57L51.9 26.49L54.09 26.49L54.09 35.75L53.74 35.75L48.6 25.57ZM73.28 25.57L68.4 25.57L68.4 26.49L69.94 26.49L69.94 35.65L68.4 35.65L68.4 36.57L73.2 36.57Q75.68 36.57 76.88 35.44Q76.99 35.33 77.09 35.21Q78.5 33.68 78.5 30.87Q78.5 28.8 77.53 27.38Q77.42 27.2 77.29 27.04Q76.54 26.12 75.65 25.85Q74.75 25.57 73.28 25.57ZM120.71 25.57L115.37 25.57L115.37 26.49L117 26.49L117 35.65L115.37 35.65L115.37 36.57L120.53 36.57Q121.86 36.57 122.48 36.46Q123.11 36.36 123.73 36.02Q123.89 35.94 124.03 35.84Q124.45 35.53 124.74 35.03Q124.87 34.81 124.95 34.57Q125.12 34.1 125.12 33.56Q125.12 32.69 124.73 32.07Q124.19 31.21 122.89 30.83Q123.76 30.38 124.14 29.66Q124.44 29.11 124.44 28.41Q124.44 27.87 124.25 27.41Q124.02 26.84 123.52 26.39Q122.6 25.57 120.71 25.57ZM165.34 25.57L161.55 25.57L161.55 26.49L162.58 26.49L165.87 30.79L162.17 35.65L161.18 35.65L161.18 36.57L165.34 36.57L165.34 35.65L163.27 35.65L166.41 31.51L169.42 35.65L167.66 35.65L167.66 36.57L171.61 36.57L171.61 35.65L170.59 35.65L166.96 30.79L170.24 26.49L171.24 26.49L171.24 25.57L167.66 25.57L167.66 26.49L169.15 26.49L166.41 30.07L163.74 26.49L165.34 26.49L165.34 25.57ZM139.84 33.31Q139.41 32.28 139.41 31.06Q139.41 29.87 139.82 28.85Q140.06 28.24 140.45 27.69Q140.93 27.02 141.58 26.65Q142.35 26.22 143.37 26.22Q144.31 26.22 145.05 26.6Q145.74 26.96 146.26 27.65Q146.55 28.04 146.76 28.45Q147.34 29.61 147.34 31.06Q147.34 32.44 146.81 33.57Q146.59 34.04 146.27 34.47Q145.77 35.17 145.08 35.53Q144.33 35.93 143.37 35.93Q142.43 35.93 141.7 35.54Q140.99 35.17 140.47 34.45Q140.08 33.91 139.84 33.31ZM70.92 26.49L73.3 26.49Q74.55 26.49 75.25 26.73Q75.96 26.96 76.52 27.76Q76.56 27.81 76.6 27.86Q77.44 29.11 77.44 30.93Q77.44 33.3 76.26 34.6Q76.2 34.67 76.13 34.73Q75.2 35.65 73.2 35.65L70.92 35.65L70.92 26.49ZM117.97 26.49L120.67 26.49Q121 26.49 121.3 26.53Q121.6 26.57 122.17 26.72Q122.54 26.81 122.82 27.03Q122.96 27.15 123.08 27.29Q123.13 27.36 123.17 27.43Q123.42 27.82 123.42 28.37Q123.42 28.66 123.32 28.95Q123.23 29.25 122.97 29.6Q122.72 29.95 122.09 30.17Q121.47 30.4 120.57 30.4L117.97 30.4L117.97 26.49ZM27.56 26.73L29.76 32.08L25.35 32.08L27.56 26.73ZM117.97 31.32L120.41 31.32Q122.11 31.32 123.11 31.86Q123.59 32.13 123.84 32.54Q124.1 32.97 124.1 33.56Q124.1 34.07 123.95 34.44Q123.87 34.63 123.74 34.78Q123.62 34.93 123.46 35.04Q123.13 35.26 122.83 35.39Q122.52 35.52 122.02 35.57Q121.53 35.63 121.25 35.64Q120.98 35.65 120.49 35.65L117.97 35.65L117.97 31.32Z" fill="#030211" fill-opacity="1.000000" fill-rule="evenodd"/>
</svg>
