<svg width="18.000000" height="17.000000" viewBox="0 0 18 17" fill="none" xmlns="http://www.w3.org/2000/svg" xmlns:xlink="http://www.w3.org/1999/xlink">
	<desc>
			Created with Pixso.
	</desc>
	<defs/>
	<path id="Icon" d="M8.51 11.6C8.63 11.65 8.75 11.68 8.88 11.67C9.01 11.66 9.13 11.61 9.23 11.54L11.51 10.02C11.62 9.95 11.73 9.91 11.85 9.9C11.97 9.89 12.1 9.91 12.21 9.96L16.48 11.79C16.62 11.85 16.75 11.96 16.83 12.1C16.9 12.23 16.94 12.39 16.92 12.55C16.78 13.6 16.27 14.58 15.47 15.28C14.67 15.98 13.64 16.37 12.57 16.37C9.28 16.37 6.12 15.06 3.8 12.74C1.47 10.41 0.16 7.25 0.16 3.96C0.16 2.9 0.55 1.87 1.25 1.07C1.96 0.27 2.93 -0.25 3.99 -0.38C4.14 -0.4 4.3 -0.37 4.44 -0.29C4.58 -0.21 4.68 -0.09 4.74 0.06L6.58 4.34C6.63 4.45 6.65 4.56 6.64 4.68C6.63 4.8 6.59 4.92 6.52 5.02L5 7.34C4.93 7.44 4.89 7.56 4.88 7.69C4.88 7.81 4.9 7.94 4.95 8.05C5.7 9.6 6.96 10.85 8.51 11.6Z" stroke="#0D0D0D" stroke-opacity="1.000000" stroke-width="1.000000" stroke-linejoin="round"/>
</svg>
