<svg width="109.000000" height="109.000000" viewBox="0 0 109 109" fill="none" xmlns="http://www.w3.org/2000/svg" xmlns:xlink="http://www.w3.org/1999/xlink">
	<desc>
			Created with Pixso.
	</desc>
	<defs/>
	<circle id="Icon" cx="54.500000" cy="54.500000" r="54.500000" fill="#FFFFFF" fill-opacity="0.080000"/>
	<circle id="Icon" cx="54.500000" cy="54.500000" r="54.349998" stroke="#FFFFFF" stroke-opacity="0.420000" stroke-width="0.300000"/>
	<circle id="Icon" cx="54.500000" cy="54.500000" r="43.500000" fill="#FFFFFF" fill-opacity="0.170000"/>
	<circle id="Icon" cx="54.500000" cy="54.500000" r="43.349998" stroke="#D0D0D0" stroke-opacity="1.000000" stroke-width="0.300000"/>
	<circle id="Icon" cx="54.500000" cy="54.500000" r="33.500000" fill="#FFFFFF" fill-opacity="1.000000"/>
	<path id="Icon" d="M51.01 62.71L59.63 55.44C59.76 55.33 59.88 55.18 59.95 55.02C60.03 54.85 60.07 54.67 60.07 54.49C60.07 54.31 60.03 54.14 59.95 53.97C59.88 53.81 59.76 53.66 59.63 53.55L51.01 46.27C50.19 45.58 48.92 46.16 48.92 47.22L48.92 61.77C48.92 62.83 50.19 63.41 51.01 62.71Z" fill="#3B3A5D" fill-opacity="1.000000" fill-rule="nonzero"/>
</svg>
