<svg width="185.000000" height="48.000000" viewBox="0 0 185 48" fill="none" xmlns="http://www.w3.org/2000/svg" xmlns:xlink="http://www.w3.org/1999/xlink">
	<desc>
			Created with Pixso.
	</desc>
	<defs/>
	<path id="Points one" d="M89.42 5.21Q88.48 4.88 87.42 4.88Q86.01 4.88 84.82 5.38Q83.81 5.81 82.95 6.61Q82.12 7.37 81.62 8.32Q80.8 9.82 80.8 11.75Q80.8 14.04 81.82 15.69Q82.18 16.28 82.67 16.78Q83.55 17.7 84.62 18.19Q85.82 18.73 87.26 18.73Q88.53 18.73 89.63 18.29Q90.86 17.79 91.87 16.73Q92.51 16.06 92.94 15.27Q93.77 13.72 93.77 11.72Q93.77 9.88 93.02 8.42Q92.58 7.56 91.88 6.84Q90.77 5.68 89.42 5.21ZM182.24 9.46L182.24 4.88L181.87 4.88Q181.78 5.34 181.62 5.49Q181.57 5.53 181.53 5.56Q181.39 5.64 181.2 5.64Q180.98 5.64 180.43 5.4Q179.25 4.88 178.19 4.88Q176.99 4.88 176.09 5.4Q175.73 5.61 175.41 5.91Q174.77 6.51 174.51 7.24Q174.32 7.77 174.32 8.36Q174.32 8.95 174.51 9.47Q174.58 9.67 174.69 9.87Q175.06 10.55 175.78 11.12Q176.49 11.68 178.19 12.64Q179.89 13.59 180.27 13.88Q180.84 14.31 181.11 14.81Q181.38 15.31 181.38 15.8Q181.38 16.12 181.28 16.41Q181.11 16.91 180.67 17.32Q180.61 17.37 180.56 17.42Q179.87 17.96 178.74 17.96Q177.98 17.96 177.3 17.72Q177.05 17.62 176.8 17.5Q175.92 17.03 175.49 16.32Q175.06 15.61 174.8 14.18L174.44 14.18L174.44 18.73L174.8 18.73Q174.87 18.27 175.01 18.12Q175.04 18.09 175.08 18.06Q175.21 17.97 175.4 17.97Q175.65 17.97 176.61 18.28Q177.56 18.59 177.86 18.64Q178.37 18.73 178.94 18.73Q180.33 18.73 181.33 18.11Q181.66 17.91 181.95 17.64Q182.64 16.99 182.92 16.2Q183.11 15.66 183.11 15.04Q183.11 14.74 183.06 14.44Q182.97 13.97 182.75 13.53Q182.69 13.41 182.61 13.29Q182.26 12.72 181.7 12.28Q181.02 11.74 179.17 10.75Q176.89 9.53 176.29 8.79Q176.01 8.47 175.92 8.1Q175.87 7.9 175.87 7.69Q175.87 7.46 175.92 7.25Q176.06 6.72 176.53 6.28Q176.73 6.1 176.96 5.97Q177.5 5.66 178.21 5.66Q178.43 5.66 178.65 5.69Q179.32 5.77 179.95 6.12Q180.54 6.44 180.93 6.91Q181.11 7.12 181.24 7.36Q181.7 8.14 181.87 9.46L182.24 9.46ZM61.78 16.08L61.78 12.22Q62.41 12.36 62.97 12.43Q63.53 12.5 64.01 12.5Q65.87 12.5 66.93 11.57Q66.98 11.53 67.03 11.48Q67.4 11.12 67.65 10.69Q68.1 9.9 68.1 8.84Q68.1 8.08 67.81 7.45Q67.65 7.09 67.4 6.78Q66.98 6.27 66.45 5.93Q66.09 5.7 65.67 5.55Q64.64 5.18 62.86 5.18L58.01 5.18L58.01 5.54L58.51 5.54Q59.16 5.54 59.53 5.86Q59.59 5.91 59.64 5.97Q59.91 6.27 59.91 7.52L59.91 16.08Q59.91 17.21 59.71 17.51Q59.62 17.65 59.51 17.74Q59.15 18.06 58.51 18.06L58.01 18.06L58.01 18.42L63.68 18.42L63.68 18.06L63.18 18.06Q62.52 18.06 62.16 17.74Q62.1 17.69 62.05 17.63Q61.78 17.33 61.78 16.08ZM112.02 18.42L112.02 18.06L111.54 18.06Q111.35 18.06 111.17 18.02Q110.9 17.97 110.65 17.83Q110.34 17.65 110.24 17.41Q110.11 17.09 110.11 16.08L110.11 7.52Q110.11 6.33 110.36 6.02Q110.42 5.95 110.48 5.88Q110.85 5.54 111.54 5.54L112.02 5.54L112.02 5.18L106.34 5.18L106.34 5.54L106.81 5.54Q106.96 5.54 107.11 5.57Q107.42 5.62 107.71 5.78Q108.01 5.95 108.11 6.2Q108.24 6.52 108.24 7.52L108.24 16.08Q108.24 17.27 108 17.58Q107.95 17.65 107.89 17.71Q107.51 18.06 106.81 18.06L106.34 18.06L106.34 18.42L112.02 18.42ZM127.14 5.18L123.54 5.18L123.54 5.54Q124.12 5.54 124.4 5.63Q124.98 5.82 125.28 6.03Q125.57 6.25 126.15 6.92L126.15 16.13Q126.15 17.24 125.93 17.55Q125.88 17.64 125.81 17.71Q125.44 18.06 124.73 18.06L124.27 18.06L124.27 18.42L128.88 18.42L128.88 18.06L128.42 18.06Q127.69 18.06 127.32 17.7Q127.29 17.68 127.27 17.65Q127.01 17.35 127.01 16.13L127.01 7.97L135.74 18.64L136.09 18.64L136.09 7.48Q136.09 6.36 136.31 6.05Q136.37 5.96 136.44 5.89Q136.8 5.54 137.5 5.54L137.97 5.54L137.97 5.18L133.36 5.18L133.36 5.54L133.82 5.54Q134.56 5.54 134.92 5.91Q134.94 5.93 134.96 5.95Q135.23 6.26 135.23 7.48L135.23 15.11L127.14 5.18ZM161.27 8.29L161.12 5.18L150.31 5.18L150.15 8.29L150.53 8.29Q150.59 7.39 150.96 6.86Q151.29 6.37 151.74 6.18Q151.78 6.16 151.82 6.15Q152.22 6.01 153.14 6.01L154.73 6.01L154.73 16.13Q154.73 17.24 154.52 17.55Q154.46 17.64 154.38 17.71Q154.02 18.06 153.33 18.06L152.86 18.06L152.86 18.42L158.47 18.42L158.47 18.06L158.02 18.06Q157.29 18.06 156.92 17.7Q156.89 17.68 156.87 17.65Q156.61 17.35 156.61 16.13L156.61 6.01L158.47 6.01Q159.3 6.01 159.8 6.28Q159.88 6.32 159.95 6.37Q160.35 6.64 160.6 7.11Q160.79 7.47 160.9 8.29L161.27 8.29ZM85.46 6Q86.24 5.59 87.23 5.59Q88.44 5.59 89.31 6.13Q89.81 6.44 90.2 6.92Q91.54 8.59 91.54 11.99Q91.54 15.12 90.32 16.58Q89.69 17.34 88.87 17.7Q88.13 18.03 87.24 18.03Q86.3 18.03 85.56 17.65Q84.92 17.32 84.43 16.7Q83.04 14.96 83.04 11.71Q83.04 8.55 84.38 6.91Q84.85 6.33 85.46 6ZM62.7 11.81Q62.3 11.76 61.78 11.67L61.78 6.16Q62.56 5.97 63.06 5.97Q63.78 5.97 64.36 6.25Q64.44 6.29 64.52 6.34Q64.68 6.42 64.81 6.53Q65.25 6.88 65.52 7.44Q65.61 7.62 65.67 7.81Q65.87 8.39 65.87 9.04Q65.87 9.99 65.44 10.68Q65.31 10.89 65.13 11.07Q64.7 11.54 64.16 11.73Q63.79 11.86 63.38 11.86Q63.1 11.86 62.7 11.81ZM67 28.21Q66.06 27.88 64.99 27.88Q63.59 27.88 62.4 28.38Q61.39 28.81 60.53 29.61Q59.7 30.37 59.19 31.32Q58.38 32.82 58.38 34.75Q58.38 37.04 59.4 38.69Q59.76 39.28 60.24 39.78Q61.12 40.7 62.2 41.19Q63.4 41.73 64.84 41.73Q66.11 41.73 67.2 41.29Q68.44 40.79 69.45 39.73Q70.09 39.06 70.52 38.27Q71.35 36.72 71.35 34.72Q71.35 32.88 70.6 31.42Q70.16 30.56 69.46 29.84Q68.35 28.68 67 28.21ZM86.75 28.18L83.16 28.18L83.16 28.54Q83.73 28.54 84.02 28.63Q84.59 28.82 84.89 29.03Q85.19 29.25 85.77 29.92L85.77 39.13Q85.77 40.24 85.55 40.55Q85.49 40.64 85.42 40.71Q85.06 41.06 84.35 41.06L83.89 41.06L83.89 41.42L88.5 41.42L88.5 41.06L88.03 41.06Q87.31 41.06 86.93 40.7Q86.91 40.68 86.89 40.65Q86.63 40.35 86.63 39.13L86.63 30.97L95.36 41.64L95.71 41.64L95.71 30.48Q95.71 29.36 95.92 29.05Q95.98 28.96 96.06 28.89Q96.42 28.54 97.11 28.54L97.58 28.54L97.58 28.18L92.97 28.18L92.97 28.54L93.43 28.54Q94.18 28.54 94.54 28.91Q94.56 28.93 94.57 28.95Q94.85 29.26 94.85 30.48L94.85 38.11L86.75 28.18ZM113.35 34.14L113.35 28.9L116.98 28.9Q117.96 28.9 118.36 29.05Q118.77 29.23 119.02 29.54Q119.06 29.59 119.09 29.65Q119.34 30.04 119.55 31.08L119.93 31.08L119.78 28.18L109.58 28.18L109.58 28.54L110.04 28.54Q110.87 28.54 111.22 28.93Q111.47 29.23 111.47 30.49L111.47 39.09Q111.47 40.06 111.36 40.37Q111.31 40.5 111.23 40.6Q111.12 40.74 110.93 40.84Q110.7 40.96 110.44 41.02Q110.25 41.06 110.04 41.06L109.58 41.06L109.58 41.42L119.78 41.42L120.92 38.1L120.53 38.1Q119.9 39.32 119.29 39.93Q118.82 40.39 118.32 40.54Q117.81 40.7 116.69 40.7L114.44 40.7Q113.89 40.7 113.7 40.59Q113.56 40.51 113.48 40.39Q113.45 40.34 113.42 40.29Q113.35 40.09 113.35 39.22L113.35 34.85L116.26 34.85Q117.09 34.85 117.49 35.05Q117.83 35.21 118.01 35.49Q118.04 35.53 118.06 35.58Q118.2 35.86 118.34 36.82L118.7 36.82L118.7 32.21L118.34 32.21Q118.28 33.35 117.77 33.8Q117.39 34.14 116.26 34.14L113.35 34.14ZM63.04 29Q63.81 28.59 64.81 28.59Q66.02 28.59 66.89 29.13Q67.39 29.44 67.78 29.92Q69.11 31.59 69.11 34.99Q69.11 38.12 67.9 39.58Q67.26 40.34 66.45 40.7Q65.71 41.03 64.82 41.03Q63.88 41.03 63.14 40.65Q62.5 40.32 62 39.7Q60.62 37.96 60.62 34.71Q60.62 31.55 61.96 29.91Q62.43 29.33 63.04 29Z" fill="#030211" fill-opacity="1.000000" fill-rule="evenodd"/>
	<path id="Star 8" d="M4.64 12.91L2.59 35.41L23.1 44.89L43.61 35.41L41.56 12.91L23.1 -0.11L4.64 12.91ZM23.1 1.11L5.6 13.46L3.65 34.8L23.1 43.78L42.55 34.8L40.61 13.46L23.1 1.11Z" fill="#030211" fill-opacity="1.000000" fill-rule="evenodd"/>
	<path id="Star 9" d="M8.01 14.86L6.33 33.26L23.1 41L39.88 33.26L38.2 14.86L23.1 4.2L8.01 14.86ZM23.1 5.43L8.96 15.41L7.39 32.64L23.1 39.9L38.82 32.64L37.25 15.41L23.1 5.43Z" fill="#030211" fill-opacity="1.000000" fill-rule="evenodd"/>
	<path id="Star 10" d="M11.32 16.77L10.01 31.13L23.1 37.18L36.19 31.13L34.89 16.77L23.1 8.45L11.32 16.77ZM23.1 9.68L12.27 17.32L11.07 30.52L23.1 36.07L35.13 30.52L33.93 17.32L23.1 9.68Z" fill="#030211" fill-opacity="1.000000" fill-rule="evenodd"/>
	<path id="Star 11" d="M15 18.89L14.09 28.77L23.1 32.93L32.11 28.77L31.21 18.89L23.1 13.17L15 18.89ZM23.1 14.39L15.95 19.44L15.15 28.16L23.1 31.83L31.05 28.16L30.26 19.44L23.1 14.39Z" fill="#030211" fill-opacity="1.000000" fill-rule="evenodd"/>
	<rect id="Rectangle 10" x="126.288086" y="28.322510" width="57.534142" height="2.171021" fill="#030211" fill-opacity="1.000000"/>
	<rect id="Rectangle 11" x="126.288086" y="33.388916" width="57.534142" height="2.171021" fill="#030211" fill-opacity="1.000000"/>
	<rect id="Rectangle 12" x="126.288086" y="38.576416" width="57.534142" height="2.171021" fill="#030211" fill-opacity="1.000000"/>
</svg>
