<svg width="23.000000" height="22.000000" viewBox="0 0 23 22" fill="none" xmlns="http://www.w3.org/2000/svg" xmlns:xlink="http://www.w3.org/1999/xlink">
	<desc>
			Created with Pixso.
	</desc>
	<defs/>
	<path id="Vector" d="M11.19 -0.88C8.97 -0.88 6.81 -0.23 4.97 1C3.13 2.23 1.69 3.98 0.85 6.03C0 8.07 -0.22 10.32 0.21 12.49C0.64 14.66 1.71 16.66 3.27 18.22C4.84 19.79 6.83 20.85 9 21.28C11.17 21.72 13.42 21.49 15.47 20.65C17.51 19.8 19.26 18.37 20.49 16.53C21.72 14.69 22.38 12.52 22.38 10.31C22.37 7.34 21.19 4.5 19.09 2.4C17 0.3 14.15 -0.88 11.19 -0.88ZM15.06 6.86C15.32 6.86 15.57 6.94 15.78 7.08C15.99 7.22 16.16 7.43 16.25 7.66C16.35 7.9 16.38 8.16 16.33 8.41C16.28 8.66 16.15 8.89 15.97 9.07C15.79 9.25 15.56 9.37 15.31 9.42C15.06 9.47 14.8 9.45 14.57 9.35C14.33 9.25 14.13 9.09 13.99 8.87C13.84 8.66 13.77 8.41 13.77 8.16C13.77 7.81 13.91 7.49 14.15 7.24C14.39 7 14.72 6.86 15.06 6.86ZM7.31 6.86C7.57 6.86 7.82 6.94 8.03 7.08C8.24 7.22 8.41 7.43 8.51 7.66C8.6 7.9 8.63 8.16 8.58 8.41C8.53 8.66 8.41 8.89 8.23 9.07C8.04 9.25 7.81 9.37 7.56 9.42C7.31 9.47 7.05 9.45 6.82 9.35C6.58 9.25 6.38 9.09 6.24 8.87C6.1 8.66 6.02 8.41 6.02 8.16C6.02 7.81 6.16 7.49 6.4 7.24C6.64 7 6.97 6.86 7.31 6.86ZM16.41 13.32C15.88 14.24 15.12 15 14.2 15.53C13.28 16.06 12.24 16.33 11.19 16.33C10.13 16.33 9.09 16.06 8.17 15.53C7.26 15 6.5 14.24 5.97 13.32C5.9 13.22 5.85 13.11 5.83 13C5.81 12.88 5.81 12.76 5.84 12.64C5.86 12.53 5.91 12.42 5.98 12.32C6.05 12.23 6.14 12.15 6.24 12.09C6.35 12.03 6.46 11.99 6.58 11.98C6.7 11.96 6.82 11.98 6.93 12.01C7.04 12.05 7.15 12.1 7.24 12.18C7.33 12.26 7.4 12.35 7.45 12.46C7.83 13.11 8.38 13.66 9.03 14.04C9.69 14.41 10.43 14.61 11.19 14.61C11.94 14.61 12.69 14.41 13.34 14.04C14 13.66 14.54 13.11 14.92 12.46C15.04 12.28 15.23 12.16 15.44 12.11C15.65 12.06 15.87 12.1 16.06 12.2C16.25 12.31 16.39 12.49 16.45 12.7C16.52 12.9 16.5 13.13 16.41 13.32Z" fill="#4EAF4E" fill-opacity="1.000000" fill-rule="nonzero"/>
</svg>
