<svg width="21.000000" height="21.000000" viewBox="0 0 21 21" fill="none" xmlns="http://www.w3.org/2000/svg" xmlns:xlink="http://www.w3.org/1999/xlink">
	<desc>
			Created with Pixso.
	</desc>
	<defs/>
	<path id="Icon" d="M0 10C0 12.01 0.59 13.99 1.71 15.66C2.84 17.34 4.43 18.65 6.29 19.42C8.16 20.2 10.21 20.4 12.19 20C14.17 19.61 15.99 18.64 17.42 17.21C18.84 15.78 19.82 13.97 20.21 11.99C20.6 10.01 20.4 7.95 19.63 6.09C18.86 4.22 17.55 2.63 15.87 1.51C14.19 0.39 12.22 -0.21 10.2 -0.21C7.5 -0.21 4.9 0.87 2.99 2.78C1.08 4.7 0 7.29 0 10ZM9.55 5.88L13.48 9.42C13.56 9.49 13.62 9.58 13.67 9.68C13.71 9.78 13.73 9.89 13.73 10C13.73 10.1 13.71 10.21 13.67 10.31C13.62 10.41 13.56 10.5 13.48 10.57L9.55 14.11C9.4 14.24 9.2 14.31 8.99 14.3C8.79 14.29 8.59 14.2 8.46 14.05C8.32 13.89 8.24 13.7 8.25 13.49C8.26 13.28 8.34 13.09 8.49 12.95L11.77 10L8.49 7.04C8.41 6.97 8.35 6.89 8.3 6.79C8.26 6.7 8.23 6.6 8.23 6.49C8.22 6.39 8.24 6.29 8.27 6.19C8.31 6.09 8.36 6 8.43 5.92C8.5 5.84 8.59 5.78 8.68 5.74C8.78 5.69 8.88 5.67 8.98 5.67C9.09 5.66 9.19 5.68 9.29 5.72C9.39 5.75 9.48 5.81 9.55 5.88Z" fill="#181818" fill-opacity="1.000000" fill-rule="nonzero"/>
</svg>
