<svg width="0" height="0" class="hidden">
  <symbol xmlns="http://www.w3.org/2000/svg" xmlns:xlink="http://www.w3.org/1999/xlink" viewBox="0 0 14 12" id="arrow">
    <desc>Created with Pixso.</desc>
    <defs></defs>
    <path d="M-0.5 5.4L12.57 5.4M7.22 0.06L12.57 5.4L7.22 10.75" stroke-opacity="1.000000" stroke-width="1.000000"
      stroke-linejoin="round"></path>
  </symbol>
  <symbol fill="none" xmlns="http://www.w3.org/2000/svg" xmlns:xlink="http://www.w3.org/1999/xlink" viewBox="0 0 99 89"
    id="AuditEvaluation">
    <desc>Created with Pixso.</desc>
    <defs></defs>
    <circle id="Ellipse 14" cx="23.468750" cy="65.035400" r="23.788406" fill="#DDDDDD" fill-opacity="1.000000"></circle>
    <path id="Star 13"
      d="M79.06 0.75L78.14 3.59C78.07 3.8 77.88 3.93 77.66 3.93L74.67 3.93C74.19 3.93 73.99 4.55 74.38 4.84L76.8 6.6C76.97 6.72 77.05 6.95 76.98 7.15L76.05 10C75.91 10.46 76.43 10.84 76.82 10.56L79.24 8.8C79.42 8.67 79.66 8.67 79.83 8.8L82.25 10.56C82.64 10.84 83.17 10.46 83.02 10L82.09 7.15C82.03 6.95 82.1 6.72 82.28 6.6L84.69 4.84C85.08 4.55 84.88 3.93 84.4 3.93L81.41 3.93C81.19 3.93 81 3.8 80.94 3.59L80.01 0.75C79.86 0.29 79.21 0.29 79.06 0.75Z"
      fill="#141414" fill-opacity="1.000000" fill-rule="evenodd"></path>
    <path id="Polygon 1"
      d="M29.37 76.16L21.83 68.62C21.55 68.34 21.09 68.47 20.99 68.84L18.23 79.15C18.13 79.52 18.47 79.86 18.84 79.76L29.15 77C29.52 76.9 29.65 76.44 29.37 76.16Z"
      fill="#4EAF4E" fill-opacity="1.000000" fill-rule="evenodd"></path>
    <circle id="Ellipse 13" cx="91.285156" cy="22.990234" r="7.257034" fill="#DADADA" fill-opacity="1.000000"></circle>
    <path id="Ellipse 12"
      d="M30.98 60.68C34.94 67.55 41.33 72.17 48.44 74.08C56.1 76.14 63.88 74.88 70.26 71.2C77.13 67.24 81.75 60.86 83.65 53.74C85.71 46.08 84.46 38.3 80.79 31.92L55.88 46.3L30.98 60.68Z"
      fill="#FFCC4A" fill-opacity="1.000000" fill-rule="evenodd"></path>
    <path id="Vector" d="M55.65 45.47L55.65 16.43" stroke="#141414" stroke-opacity="1.000000" stroke-width="2.000000"
      stroke-linejoin="round" stroke-linecap="round"></path>
    <path id="Vector" d="M80.79 30.95L30.51 60" stroke="#141414" stroke-opacity="1.000000" stroke-width="2.000000"
      stroke-linejoin="round" stroke-linecap="round"></path>
    <path id="Vector"
      d="M27.1 50.8C26.77 49.04 26.6 47.26 26.61 45.47C26.61 39.47 28.47 33.61 31.94 28.7C35.41 23.8 40.31 20.09 45.97 18.1L45.97 39.88L27.1 50.8Z"
      fill="#4EAF4E" fill-opacity="1.000000" fill-rule="nonzero"></path>
    <path id="Vector"
      d="M26.61 45.47C26.61 39.47 28.47 33.61 31.94 28.7C35.41 23.8 40.31 20.09 45.97 18.1L45.97 39.88L27.1 50.8C26.77 49.04 26.6 47.26 26.61 45.47Z"
      stroke="#141414" stroke-opacity="1.000000" stroke-width="2.000000" stroke-linejoin="round"></path>
    <path id="Vector"
      d="M26.61 45.47C26.61 39.47 28.47 33.61 31.94 28.7C35.41 23.8 40.31 20.09 45.97 18.1L45.97 39.88L27.1 50.8C26.77 49.04 26.6 47.26 26.61 45.47Z"
      stroke="#141414" stroke-opacity="1.000000" stroke-width="2.000000" stroke-linejoin="round"></path>
    <path id="Vector"
      d="M55.65 16.43C60.74 16.43 65.74 17.77 70.15 20.31C74.56 22.85 78.23 26.51 80.78 30.91C83.33 35.31 84.68 40.31 84.69 45.4C84.71 50.49 83.38 55.49 80.85 59.91C78.33 64.32 74.68 68 70.29 70.56C65.89 73.12 60.9 74.49 55.81 74.52C50.72 74.54 45.71 73.23 41.29 70.72C36.87 68.2 33.18 64.57 30.61 60.18"
      stroke="#141414" stroke-opacity="1.000000" stroke-width="2.000000" stroke-linejoin="round" stroke-linecap="round">
    </path>
  </symbol>
  <symbol fill="none" xmlns="http://www.w3.org/2000/svg" xmlns:xlink="http://www.w3.org/1999/xlink" viewBox="0 0 53 53"
    id="BestFeatures">
    <desc>Created with Pixso.</desc>
    <defs></defs>
    <circle id="Background" cx="25.888672" cy="26.388916" r="26.388947" fill="#181818" fill-opacity="1.000000"></circle>
    <path id="Icon" d="M37.68 35.61L11.75 35.61" stroke="#FFFFFF" stroke-opacity="1.000000" stroke-width="2.000000"
      stroke-linejoin="round" stroke-linecap="round"></path>
    <path id="Icon" d="M21.09 35.61L21.09 20.05L28.35 20.05" stroke="#FFFFFF" stroke-opacity="1.000000"
      stroke-width="2.000000" stroke-linejoin="round" stroke-linecap="round"></path>
    <path id="Icon" d="M35.61 13.83L35.61 35.61L28.35 35.61L28.35 13.83L35.61 13.83Z" stroke="#FFFFFF"
      stroke-opacity="1.000000" stroke-width="2.000000" stroke-linejoin="round"></path>
    <path id="Icon" d="M13.83 35.61L13.83 26.27L21.09 26.27" stroke="#FFFFFF" stroke-opacity="1.000000"
      stroke-width="2.000000" stroke-linejoin="round" stroke-linecap="round"></path>
  </symbol>
  <symbol fill="none" xmlns="http://www.w3.org/2000/svg" xmlns:xlink="http://www.w3.org/1999/xlink" viewBox="0 0 53 53"
    id="Experience">
    <desc>Created with Pixso.</desc>
    <defs></defs>
    <circle id="Background" cx="26.280273" cy="25.994873" r="26.388947" fill="#181818" fill-opacity="1.000000"></circle>
    <path id="Pattern"
      d="M26.25 38.44C19.37 38.44 13.79 32.86 13.79 25.98C13.79 19.1 19.37 13.52 26.25 13.52C33.13 13.52 38.71 19.1 38.71 25.98C38.71 32.86 33.13 38.44 26.25 38.44Z"
      stroke="#FFFFFF" stroke-opacity="1.000000" stroke-width="2.000000" stroke-linejoin="round"></path>
    <path id="Pattern"
      d="M16.07 33.17L17.59 32.25C17.74 32.16 17.86 32.03 17.95 31.87C18.04 31.72 18.08 31.55 18.08 31.37L18.11 26.68C18.11 26.49 18.17 26.3 18.28 26.14L20.85 22.1C20.92 21.98 21.02 21.88 21.14 21.8C21.26 21.72 21.39 21.67 21.53 21.64C21.67 21.61 21.82 21.62 21.95 21.65C22.09 21.68 22.22 21.73 22.34 21.82L24.88 23.66C25.1 23.81 25.37 23.88 25.64 23.85L29.72 23.3C29.97 23.26 30.2 23.14 30.36 22.95L33.24 19.62C33.41 19.42 33.5 19.16 33.49 18.9L33.34 15.74"
      stroke="#FFFFFF" stroke-opacity="1.000000" stroke-width="2.000000" stroke-linejoin="round" stroke-linecap="round">
    </path>
    <path id="Pattern"
      d="M33.92 35.81L32.51 34.41C32.38 34.28 32.22 34.18 32.05 34.13L29.26 33.41C29.01 33.34 28.8 33.18 28.66 32.97C28.52 32.76 28.47 32.5 28.5 32.25L28.8 30.15C28.83 29.97 28.91 29.81 29.02 29.67C29.13 29.52 29.27 29.41 29.44 29.34L33.38 27.7C33.57 27.62 33.77 27.6 33.96 27.63C34.16 27.67 34.34 27.76 34.49 27.89L37.72 30.85"
      stroke="#FFFFFF" stroke-opacity="1.000000" stroke-width="2.000000" stroke-linejoin="round" stroke-linecap="round">
    </path>
  </symbol>
  <symbol xmlns="http://www.w3.org/2000/svg" xmlns:xlink="http://www.w3.org/1999/xlink" viewBox="0 0 234 29" id="Brand">
    <desc>Created with Pixso.</desc>
    <defs></defs>
    <path id="Brand"
      d="M174.56 21.47L174.56 0.07L176.4 0.07L176.4 28.55L176.2 28.55L154 6.67L153.84 6.67L153.84 28.07L152 28.07L152 -0.41L152.2 -0.41L174.4 21.47L174.56 21.47ZM9.8 28.07L-0.24 28.07L-0.24 0.07L9.76 0.07Q11.84 0.07 13.38 0.7Q14.92 1.31 15.9 2.27Q16.88 3.23 17.36 4.39Q17.84 5.55 17.84 6.67Q17.84 7.33 17.69 7.96Q17.55 8.54 17.27 9.1Q17.03 9.6 16.7 10.05Q16.3 10.61 15.78 11.09Q14.84 11.95 13.6 12.49Q13.28 12.63 12.94 12.74Q11.99 13.03 10.95 13.03L10.95 13.19Q11.84 13.23 13.28 13.47Q14.71 13.71 16.07 14.44Q16.23 14.52 16.39 14.61Q17.55 15.31 18.42 16.52Q19.4 17.87 19.4 20.15Q19.4 20.23 19.4 20.31Q19.37 21.66 18.89 23.01Q18.79 23.32 18.65 23.61Q18.15 24.67 17.27 25.55Q16.16 26.67 14.31 27.38Q12.48 28.07 9.8 28.07ZM48.8 28.07L48.8 0.07L57.88 0.07Q60.56 0.07 62.32 0.81Q64.08 1.55 65.09 2.65Q66.12 3.75 66.54 5.03Q66.96 6.31 66.96 7.39Q66.96 8.59 66.56 9.85Q66.51 9.99 66.46 10.13Q66.06 11.23 65.28 12.19Q64.4 13.27 63.01 13.99Q61.64 14.71 59.72 14.83L59.72 14.99L60.12 15.19Q60.6 15.43 60.93 15.79Q61.27 16.15 61.81 16.95Q62.36 17.75 63.28 19.21Q64.19 20.67 65.88 23.11Q66.44 23.95 66.96 24.61Q67.48 25.27 68.03 25.73Q68.6 26.19 69.23 26.43Q69.88 26.67 70.72 26.67Q70.92 26.67 71.12 26.65Q71.32 26.63 71.52 26.59L71.52 28.07Q70.96 28.39 70.4 28.47Q69.84 28.55 68.96 28.55Q67.76 28.55 66.9 28.23Q66.04 27.92 65.36 27.38L65.36 27.38Q64.68 26.83 64.1 26.07Q63.52 25.31 62.91 24.39L59.76 19.71Q59.04 18.59 58.52 17.84Q58 17.07 57.4 16.6Q57.09 16.34 56.74 16.17Q56.42 16.01 56.06 15.91Q55.32 15.71 54.19 15.71L52.44 15.71L52.44 28.07L48.8 28.07ZM119.52 28.07L115.68 19.83L101.88 19.83L98.36 28.07L96.52 28.07L108.36 0.07L110.36 0.07L123.4 28.07L119.52 28.07ZM208.99 0.07L208.99 28.07L218.68 28.07Q221.38 28.07 223.79 27.23Q224.06 27.14 224.32 27.04Q226.44 26.2 228.13 24.83Q228.54 24.49 228.94 24.12Q229.53 23.55 230.06 22.91Q231.26 21.45 232.06 19.65Q233.2 17.07 233.2 13.99Q233.2 11.44 232.39 9.2Q232.25 8.83 232.1 8.47Q231.38 6.8 230.28 5.42Q229.7 4.7 229.01 4.06Q227.04 2.19 224.28 1.14Q221.52 0.07 218.2 0.07L208.99 0.07ZM3.4 1.83L3.4 12.31L8.2 12.31Q9.36 12.31 10.39 11.93Q10.42 11.92 10.46 11.91Q11.37 11.57 12.1 10.99Q12.22 10.9 12.34 10.79Q12.74 10.45 13.05 10.04Q13.38 9.59 13.62 9.08Q13.73 8.85 13.81 8.61Q14.08 7.81 14.08 6.91Q14.08 5.99 13.76 5.07Q13.66 4.79 13.52 4.52Q13.22 3.93 12.73 3.43Q12.04 2.71 10.94 2.27Q9.84 1.83 8.28 1.83L3.4 1.83ZM56.48 1.83L52.44 1.83L52.44 13.91L56.56 13.91Q58.16 13.91 59.38 13.35Q60.6 12.79 61.44 11.89Q62.13 11.15 62.54 10.27Q62.63 10.09 62.7 9.9Q63.12 8.79 63.12 7.71Q63.12 6.43 62.66 5.36Q62.44 4.84 62.13 4.4Q61.78 3.9 61.31 3.49Q60.43 2.71 59.21 2.27Q58 1.83 56.48 1.83ZM217.04 26.31L212.64 26.31L212.64 1.83L217.04 1.83Q220 1.83 222.28 2.84Q224.47 3.79 225.97 5.4Q226.03 5.46 226.09 5.53Q226.56 6.04 226.95 6.6Q227.88 7.9 228.44 9.46Q228.74 10.29 228.93 11.14Q229.24 12.57 229.24 14.07Q229.24 16.23 228.55 18.41Q228.26 19.37 227.8 20.26Q227.23 21.37 226.4 22.35Q224.92 24.11 222.62 25.21Q220.32 26.31 217.04 26.31ZM102.64 18.03L114.84 18.03L108.56 4.55L108.4 4.55L102.64 18.03ZM3.4 14.07L3.4 26.31L9.2 26.31Q10.48 26.31 11.62 25.93Q12.59 25.61 13.34 25.01Q13.47 24.9 13.6 24.79Q13.79 24.61 13.97 24.42Q14.55 23.78 14.94 22.95Q15.44 21.87 15.44 20.47Q15.44 19.62 15.23 18.82Q15.13 18.42 14.98 18.03Q14.83 17.65 14.62 17.3Q14.21 16.58 13.57 15.99Q12.63 15.11 11.2 14.59Q9.76 14.07 7.8 14.07L3.4 14.07Z"
      fill-opacity="1.000000" fill-rule="evenodd"></path>
  </symbol>
  <symbol fill="none" xmlns="http://www.w3.org/2000/svg" xmlns:xlink="http://www.w3.org/1999/xlink" viewBox="0 0 22 22"
    id="calendar">
    <desc>Created with Pixso.</desc>
    <defs></defs>
    <path id="Icon" d="M14.8 1.94L14.8 4.7" stroke="#0D0D0D" stroke-opacity="1.000000" stroke-width="1.000000"
      stroke-linejoin="round" stroke-linecap="round"></path>
    <path id="Icon" d="M7.9 10.9L13.42 10.9" stroke="#0D0D0D" stroke-opacity="1.000000" stroke-width="1.000000"
      stroke-linejoin="round" stroke-linecap="round"></path>
    <path id="Icon" d="M7.9 13.66L13.42 13.66" stroke="#0D0D0D" stroke-opacity="1.000000" stroke-width="1.000000"
      stroke-linejoin="round" stroke-linecap="round"></path>
    <path id="Icon"
      d="M16.87 3.32C17.05 3.32 17.23 3.39 17.36 3.52C17.49 3.65 17.56 3.82 17.56 4.01L17.56 17.11C17.56 17.66 17.34 18.18 16.95 18.57C16.56 18.96 16.04 19.18 15.49 19.18L5.83 19.18C5.29 19.18 4.76 18.96 4.37 18.57C3.98 18.18 3.77 17.66 3.77 17.11L3.77 4.01C3.77 3.82 3.84 3.65 3.97 3.52C4.1 3.39 4.27 3.32 4.45 3.32L16.87 3.32Z"
      stroke="#0D0D0D" stroke-opacity="1.000000" stroke-width="1.000000" stroke-linejoin="round"></path>
    <path id="Icon" d="M6.52 1.94L6.52 4.7" stroke="#0D0D0D" stroke-opacity="1.000000" stroke-width="1.000000"
      stroke-linejoin="round" stroke-linecap="round"></path>
    <path id="Icon" d="M10.66 1.94L10.66 4.7" stroke="#0D0D0D" stroke-opacity="1.000000" stroke-width="1.000000"
      stroke-linejoin="round" stroke-linecap="round"></path>
  </symbol>
  <symbol fill="none" xmlns="http://www.w3.org/2000/svg" xmlns:xlink="http://www.w3.org/1999/xlink" viewBox="0 0 53 53"
    id="CompanyGrowth">
    <desc>Created with Pixso.</desc>
    <defs></defs>
    <circle id="Background" cx="26.142578" cy="25.994873" r="26.388947" fill="#181818" fill-opacity="1.000000"></circle>
    <path id="Pattern" d="M35.38 33.83L16.17 33.83L16.17 17.83" stroke="#FFFFFF" stroke-opacity="1.000000"
      stroke-width="2.000000" stroke-linejoin="round" stroke-linecap="round"></path>
    <path id="Pattern" d="M35.38 22.63L28.97 28.23L22.57 23.43L16.17 29.03" stroke="#FFFFFF" stroke-opacity="1.000000"
      stroke-width="2.000000" stroke-linejoin="round" stroke-linecap="round"></path>
  </symbol>
  <symbol fill="none" xmlns="http://www.w3.org/2000/svg" xmlns:xlink="http://www.w3.org/1999/xlink" viewBox="0 0 53 53"
    id="Consistency">
    <desc>Created with Pixso.</desc>
    <defs></defs>
    <circle id="Background" cx="26.280273" cy="26.388916" r="26.388947" fill="#181818" fill-opacity="1.000000"></circle>
    <path id="Pattern"
      d="M17.79 20.97C17.66 20.87 17.56 20.74 17.48 20.59C17.41 20.45 17.37 20.29 17.37 20.12L17.37 15.37C17.37 15.09 17.48 14.82 17.68 14.62C17.88 14.42 18.15 14.31 18.43 14.31L33.22 14.31C33.5 14.31 33.77 14.42 33.97 14.62C34.17 14.82 34.28 15.09 34.28 15.37L34.28 20.07C34.28 20.23 34.24 20.39 34.16 20.54C34.09 20.69 33.99 20.82 33.86 20.91L25.82 26.99L17.79 20.97Z"
      stroke="#FFFFFF" stroke-opacity="1.000000" stroke-width="2.000000" stroke-linejoin="round"></path>
    <path id="Pattern"
      d="M17.79 33.02C17.66 33.11 17.56 33.24 17.48 33.39C17.41 33.54 17.37 33.7 17.37 33.86L17.37 38.62C17.37 38.9 17.48 39.17 17.68 39.36C17.88 39.56 18.15 39.67 18.43 39.67L33.22 39.67C33.5 39.67 33.77 39.56 33.97 39.36C34.17 39.17 34.28 38.9 34.28 38.62L34.28 33.91C34.28 33.75 34.24 33.59 34.16 33.44C34.09 33.29 33.99 33.17 33.86 33.07L25.82 26.99L17.79 33.02Z"
      stroke="#FFFFFF" stroke-opacity="1.000000" stroke-width="2.000000" stroke-linejoin="round"></path>
  </symbol>
  <symbol fill="none" xmlns="http://www.w3.org/2000/svg" xmlns:xlink="http://www.w3.org/1999/xlink" viewBox="0 0 53 53"
    id="CreativeIdeas">
    <desc>Created with Pixso.</desc>
    <defs></defs>
    <circle id="Background" cx="25.888672" cy="26.388916" r="26.388947" fill="#181818" fill-opacity="1.000000"></circle>
    <path id="Icon" d="M14.55 32.04L25.7 38.55L36.85 32.04" stroke="#FFFFFF" stroke-opacity="1.000000"
      stroke-width="2.000000" stroke-linejoin="round" stroke-linecap="round"></path>
    <path id="Icon" d="M14.55 26.47L25.7 32.97L36.85 26.47" stroke="#FFFFFF" stroke-opacity="1.000000"
      stroke-width="2.000000" stroke-linejoin="round" stroke-linecap="round"></path>
    <path id="Icon" d="M25.7 27.4L36.85 20.89L25.7 14.38L14.55 20.89L25.7 27.4Z" stroke="#FFFFFF"
      stroke-opacity="1.000000" stroke-width="2.000000" stroke-linejoin="round"></path>
  </symbol>
  <symbol fill="none" xmlns="http://www.w3.org/2000/svg" xmlns:xlink="http://www.w3.org/1999/xlink" viewBox="0 0 53 53"
    id="EasySolutions">
    <desc>Created with Pixso.</desc>
    <defs></defs>
    <circle id="Background" cx="25.888672" cy="26.388916" r="26.388947" fill="#181818" fill-opacity="1.000000"></circle>
    <path id="Icon"
      d="M26.61 32.08C23.23 32.08 20.49 29.34 20.49 25.97C20.49 22.59 23.23 19.85 26.61 19.85C29.99 19.85 32.73 22.59 32.73 25.97C32.73 29.34 29.99 32.08 26.61 32.08Z"
      stroke="#FFFFFF" stroke-opacity="1.000000" stroke-width="2.000000" stroke-linejoin="round"></path>
    <path id="Icon"
      d="M36.02 21.38L39.33 23.19C39.74 25.02 39.75 26.91 39.34 28.74L36.02 30.56C35.79 31.04 35.52 31.5 35.21 31.93L35.28 35.68C33.87 36.94 32.21 37.89 30.41 38.47L27.15 36.54C26.61 36.57 26.07 36.57 25.54 36.54L22.29 38.45C20.48 37.89 18.81 36.94 17.41 35.68L17.47 31.95C17.17 31.5 16.9 31.04 16.67 30.56L13.36 28.74C12.95 26.91 12.94 25.02 13.35 23.19L16.67 21.38C16.9 20.9 17.17 20.44 17.47 20L17.41 16.25C18.81 14.99 20.47 14.04 22.28 13.47L25.54 15.4C26.07 15.36 26.61 15.36 27.15 15.4L30.4 13.48C32.21 14.04 33.87 14.99 35.28 16.25L35.21 20C35.52 20.44 35.79 20.9 36.02 21.38Z"
      stroke="#FFFFFF" stroke-opacity="1.000000" stroke-width="2.000000" stroke-linejoin="round"></path>
  </symbol>
  <symbol xmlns="http://www.w3.org/2000/svg" xmlns:xlink="http://www.w3.org/1999/xlink" viewBox="0 0 20 20"
    id="Facebook">
    <desc>Created with Pixso.</desc>
    <defs></defs>
    <path id="Icon"
      d="M19.79 9.7C19.79 4.34 15.15 0 9.43 0C3.71 0 -0.93 4.34 -0.93 9.7C-0.93 14.54 2.86 18.55 7.81 19.28L7.81 12.5L5.18 12.5L5.18 9.7L7.81 9.7L7.81 7.56C7.81 5.13 9.36 3.78 11.72 3.78C12.86 3.78 14.04 3.97 14.04 3.97L14.04 6.36L12.74 6.36C11.45 6.36 11.05 7.11 11.05 7.88L11.05 9.7L13.92 9.7L13.46 12.5L11.05 12.5L11.05 19.28C16 18.55 19.79 14.54 19.79 9.7Z"
      fill-opacity="1.000000" fill-rule="evenodd"></path>
  </symbol>
  <symbol fill="none" xmlns="http://www.w3.org/2000/svg" xmlns:xlink="http://www.w3.org/1999/xlink" viewBox="0 0 88 88"
    id="star">
    <desc>Created with Pixso.</desc>
    <defs></defs>
    <circle id="Ellipse 14" cx="20.896484" cy="66.385742" r="20.896465" fill="#DADADA" fill-opacity="1.000000"></circle>
    <path id="Star 13"
      d="M56.29 1.46L55.17 4.91C55.11 5.12 54.91 5.26 54.7 5.26L51.06 5.26C50.58 5.26 50.38 5.88 50.77 6.16L53.71 8.3C53.88 8.43 53.96 8.65 53.89 8.86L52.77 12.32C52.62 12.78 53.14 13.16 53.54 12.87L56.48 10.74C56.65 10.61 56.89 10.61 57.06 10.74L60 12.87C60.4 13.16 60.92 12.78 60.77 12.32L59.65 8.86C59.58 8.65 59.66 8.43 59.83 8.3L62.77 6.16C63.16 5.88 62.96 5.26 62.48 5.26L58.84 5.26C58.63 5.26 58.44 5.12 58.37 4.91L57.25 1.46C57.1 1 56.44 1 56.29 1.46Z"
      fill="#141414" fill-opacity="1.000000" fill-rule="evenodd"></path>
    <path id="Polygon 1"
      d="M29.19 68.62L21.85 61.28C21.58 61.01 21.11 61.14 21.01 61.51L18.33 71.53C18.23 71.91 18.57 72.25 18.94 72.15L28.97 69.46C29.34 69.36 29.46 68.9 29.19 68.62Z"
      fill="#4EAF4E" fill-opacity="1.000000" fill-rule="evenodd"></path>
    <circle id="Ellipse 13" cx="72.980469" cy="23.430908" r="6.029487" fill="#DADADA" fill-opacity="1.000000"></circle>
    <path id="Vector"
      d="M63.42 34.19C74.63 35.24 83.08 39.69 83.08 45.03C83.08 51.14 72.08 56.09 58.51 56.09C52.49 56.09 46.96 55.1 42.7 53.51M63.35 35.17L63.33 35.19C62.77 35.14 62.38 34.66 62.43 34.1C62.48 33.54 62.96 33.14 63.52 33.2L63.53 33.22L63.35 35.17ZM42.37 54.43L42.34 54.44C41.82 54.25 41.56 53.68 41.76 53.16C41.96 52.63 42.52 52.37 43.05 52.57L43.06 52.6L42.37 54.43Z"
      fill="#4EAF4E" fill-opacity="1.000000" fill-rule="nonzero"></path>
    <path id="Vector"
      d="M63.42 34.19C74.63 35.24 83.08 39.69 83.08 45.03C83.08 51.14 72.08 56.09 58.51 56.09C52.49 56.09 46.96 55.1 42.7 53.51"
      stroke="#141414" stroke-opacity="1.000000" stroke-width="2.000000" stroke-linejoin="round" stroke-linecap="round">
    </path>
    <path id="Vector"
      d="M14.29 30.29L14.29 42.57C14.29 48.69 25.28 53.63 38.86 53.63C52.43 53.63 63.42 48.69 63.42 42.57L63.42 30.29M13.31 30.31L13.29 30.29C13.29 29.73 13.73 29.29 14.29 29.29C14.85 29.29 15.29 29.73 15.29 30.29L15.27 30.31L13.31 30.31ZM62.44 30.31L62.42 30.29C62.42 29.73 62.86 29.29 63.42 29.29C63.98 29.29 64.42 29.73 64.42 30.29L64.4 30.31L62.44 30.31Z"
      fill="#FFFFFF" fill-opacity="1.000000" fill-rule="nonzero"></path>
    <path id="Vector"
      d="M14.29 30.29L14.29 42.57C14.29 48.69 25.28 53.63 38.86 53.63C52.43 53.63 63.42 48.69 63.42 42.57L63.42 30.29"
      stroke="#141414" stroke-opacity="1.000000" stroke-width="2.000000" stroke-linejoin="round" stroke-linecap="round">
    </path>
    <path id="Vector"
      d="M38.86 41.35C52.42 41.35 63.42 36.4 63.42 30.29C63.42 24.19 52.42 19.24 38.86 19.24C25.29 19.24 14.29 24.19 14.29 30.29C14.29 36.4 25.29 41.35 38.86 41.35Z"
      fill="#FFCC4A" fill-opacity="1.000000" fill-rule="nonzero"></path>
    <path id="Vector"
      d="M38.86 41.35C25.29 41.35 14.29 36.4 14.29 30.29C14.29 24.19 25.29 19.24 38.86 19.24C52.42 19.24 63.42 24.19 63.42 30.29C63.42 36.4 52.42 41.35 38.86 41.35Z"
      stroke="#141414" stroke-opacity="1.000000" stroke-width="2.000000" stroke-linejoin="round"></path>
    <path id="Vector" d="M29.03 40.43L29.03 52.71" stroke="#141414" stroke-opacity="1.000000" stroke-width="2.000000"
      stroke-linejoin="round" stroke-linecap="round"></path>
    <path id="Vector"
      d="M33.94 53.41L33.94 57.31C33.94 63.43 44.94 68.37 58.51 68.37C72.08 68.37 83.08 63.43 83.08 57.31L83.08 45.03"
      stroke="#141414" stroke-opacity="1.000000" stroke-width="2.000000" stroke-linejoin="round" stroke-linecap="round">
    </path>
    <path id="Vector" d="M68.34 55.17L68.34 67.45" stroke="#141414" stroke-opacity="1.000000" stroke-width="2.000000"
      stroke-linejoin="round" stroke-linecap="round"></path>
    <path id="Vector" d="M48.68 40.43L48.68 67.45" stroke="#141414" stroke-opacity="1.000000" stroke-width="2.000000"
      stroke-linejoin="round" stroke-linecap="round"></path>
  </symbol>
  <symbol id="FinancialProjections" viewBox="0 0 96 71" fill="none" xmlns="http://www.w3.org/2000/svg"
    xmlns:xlink="http://www.w3.org/1999/xlink">
    <desc>
      Created with Pixso.
    </desc>
    <defs />
    <circle id="Ellipse 14" cx="64.794922" cy="26.776001" r="23.788406" fill="#EFEFEF" fill-opacity="1.000000" />
    <path id="Star 13"
      d="M34.36 0.85L33.22 4.38C33.15 4.58 32.96 4.72 32.74 4.72L29.03 4.72C28.55 4.72 28.35 5.34 28.74 5.63L31.74 7.81C31.91 7.93 31.99 8.16 31.92 8.36L30.77 11.89C30.62 12.35 31.15 12.73 31.54 12.45L34.54 10.27C34.72 10.14 34.96 10.14 35.13 10.27L38.13 12.45C38.52 12.73 39.05 12.35 38.9 11.89L37.75 8.36C37.69 8.16 37.76 7.93 37.93 7.81L40.93 5.63C41.33 5.34 41.12 4.72 40.64 4.72L36.93 4.72C36.72 4.72 36.52 4.58 36.46 4.38L35.31 0.85C35.16 0.39 34.51 0.39 34.36 0.85Z"
      fill="#FFCC4A" fill-opacity="1.000000" fill-rule="evenodd" />
    <path id="Polygon 1"
      d="M14.36 62.92L6.82 55.37C6.54 55.1 6.08 55.23 5.98 55.6L3.22 65.91C3.12 66.28 3.46 66.62 3.83 66.52L14.14 63.76C14.51 63.66 14.64 63.19 14.36 62.92Z"
      fill="#4EAF4E" fill-opacity="1.000000" fill-rule="evenodd" />
    <circle id="Ellipse 13" cx="89.791016" cy="19.375488" r="5.886673" fill="#D0D0D0" fill-opacity="1.000000" />
    <path id="Vector"
      d="M76.18 21.7L28.67 21.7C27.48 21.7 26.51 22.66 26.51 23.86L26.51 56.25C26.51 57.44 27.48 58.41 28.67 58.41L76.18 58.41C77.37 58.41 78.34 57.44 78.34 56.25L78.34 23.86C78.34 22.66 77.37 21.7 76.18 21.7Z"
      fill-opacity="1.000000" fill-rule="nonzero" />
    <path id="Vector"
      d="M76.18 21.7C77.37 21.7 78.34 22.66 78.34 23.86L78.34 56.25C78.34 57.44 77.37 58.41 76.18 58.41L28.67 58.41C27.48 58.41 26.51 57.44 26.51 56.25L26.51 23.86C26.51 22.66 27.48 21.7 28.67 21.7L76.18 21.7Z"
      stroke="#FFFFFF" stroke-opacity="1.000000" stroke-width="2.000000" stroke-linejoin="round" />
    <path id="Vector1"
      d="M76.18 21.7C77.37 21.7 78.34 22.66 78.34 23.86L78.34 56.25C78.34 57.44 77.37 58.41 76.18 58.41L28.67 58.41C27.48 58.41 26.51 57.44 26.51 56.25L26.51 23.86C26.51 22.66 27.48 21.7 28.67 21.7L76.18 21.7Z"
      stroke="#141414" stroke-opacity="1.000000" stroke-width="2.000000" stroke-linejoin="round" />
    <path id="Vector"
      d="M76.18 48.12L28.67 48.12C27.48 48.12 26.51 48.39 26.51 48.72L26.51 57.8C26.51 58.14 27.48 58.41 28.67 58.41L76.18 58.41C77.37 58.41 78.34 58.14 78.34 57.8L78.34 48.72C78.34 48.39 77.37 48.12 76.18 48.12Z"
      fill="#4EAF4E" fill-opacity="1.000000" fill-rule="nonzero" />
    <path id="Vector1"
      d="M76.18 48.12C77.37 48.12 78.34 48.39 78.34 48.72L78.34 57.8C78.34 58.14 77.37 58.41 76.18 58.41L28.67 58.41C27.48 58.41 26.51 58.14 26.51 57.8L26.51 48.72C26.51 48.39 27.48 48.12 28.67 48.12L76.18 48.12Z"
      stroke-opacity="1.000000" stroke-width="2.000000" stroke-linejoin="round" />
    <path id="Vector" d="M61.06 58.41L69.7 69.21" stroke="#141414" stroke-opacity="1.000000" stroke-width="2.000000"
      stroke-linejoin="round" stroke-linecap="round" />
    <path id="Vector" d="M43.79 58.41L35.15 69.21" stroke="#141414" stroke-opacity="1.000000" stroke-width="2.000000"
      stroke-linejoin="round" stroke-linecap="round" />
    <path id="Vector" d="M43.79 41.13L43.79 47.61" stroke="#141414" stroke-opacity="1.000000" stroke-width="2.000000"
      stroke-linejoin="round" stroke-linecap="round" />
    <path id="Vector" d="M52.42 36.81L52.42 47.61" stroke="#141414" stroke-opacity="1.000000" stroke-width="2.000000"
      stroke-linejoin="round" stroke-linecap="round" />
    <path id="Vector" d="M61.06 32.5L61.06 47.61" stroke="#141414" stroke-opacity="1.000000" stroke-width="2.000000"
      stroke-linejoin="round" stroke-linecap="round" />
    <path id="Vector" d="M52.42 21.7L52.42 15.22" stroke="#141414" stroke-opacity="1.000000" stroke-width="2.000000"
      stroke-linejoin="round" stroke-linecap="round" />
  </symbol>
  <symbol xmlns="http://www.w3.org/2000/svg" xmlns:xlink="http://www.w3.org/1999/xlink" viewBox="0 0 246 52"
    id="fortne">
    <desc>Created with Pixso.</desc>
    <defs></defs>
    <ellipse id="Ellipse 8" cx="122.712891" cy="25.575195" rx="123.029114" ry="26.312622" fill-opacity="1.000000">
    </ellipse>
    <path id="Fortune"
      d="M74.7 31.78Q75.84 32.2 77.15 32.2Q78.52 32.2 79.71 31.73Q80.13 31.57 80.52 31.34Q81.23 30.94 81.79 30.39Q82.45 29.76 82.92 28.93Q83.03 28.73 83.14 28.52Q83.79 27.13 83.79 25.44Q83.79 23.76 83.15 22.39Q83.04 22.16 82.92 21.94Q82.45 21.11 81.78 20.47Q81.22 19.94 80.52 19.54Q80.12 19.31 79.69 19.14Q78.51 18.67 77.15 18.67Q75.86 18.67 74.73 19.1Q74.24 19.28 73.78 19.54Q73.14 19.9 72.62 20.39Q71.89 21.05 71.38 21.95Q71.2 22.26 71.07 22.57Q70.5 23.88 70.5 25.44Q70.5 27.01 71.08 28.33Q71.21 28.64 71.38 28.93Q71.89 29.82 72.61 30.49Q73.14 30.97 73.78 31.34Q74.23 31.6 74.7 31.78ZM172.35 32.07L174.08 32.07L174.08 18.81L172.35 18.81L172.35 29.33L165.4 18.81L163.67 18.81L163.67 32.07L165.4 32.07L165.4 21.53L172.35 32.07ZM189.49 24.66L189.49 20.23L194.89 20.23L194.89 18.81L187.76 18.81L187.76 32.07L194.89 32.07L194.89 30.65L189.49 30.65L189.49 26.09L194.32 26.09L194.32 24.66L189.49 24.66ZM58.32 20.23L58.32 18.83L50.83 18.83L50.83 32.07L52.56 32.07L52.56 26.1L57.24 26.1L57.24 24.7L52.56 24.7L52.56 20.23L58.32 20.23ZM100.63 26.66L103.79 32.07L105.85 32.07L102.53 26.52Q103.95 26.21 104.73 25.33Q104.82 25.24 104.89 25.14Q105.2 24.73 105.39 24.27Q105.68 23.56 105.68 22.72Q105.68 21.76 105.3 20.98Q105.24 20.85 105.17 20.73Q105.1 20.61 105.03 20.5Q104.52 19.78 103.62 19.34Q102.59 18.83 101.09 18.83L96.81 18.83L96.81 32.07L98.54 32.07L98.54 26.66L100.63 26.66ZM127.25 20.23L127.25 18.83L118.28 18.83L118.28 20.23L121.91 20.23L121.91 32.07L123.64 32.07L123.64 20.23L127.25 20.23ZM141.8 27.2L141.8 18.83L140.07 18.83L140.07 27.19Q140.07 28.84 140.73 29.97Q141.13 30.67 141.72 31.15Q142.08 31.44 142.51 31.65Q143.64 32.2 145.05 32.2Q146.46 32.2 147.59 31.65Q148.03 31.44 148.39 31.14Q148.98 30.66 149.38 29.97Q150.05 28.84 150.05 27.19L150.05 18.83L148.32 18.83L148.32 27.2Q148.32 28.97 147.45 29.83Q147.33 29.95 147.2 30.05Q146.38 30.68 145.07 30.68Q143.73 30.68 142.9 30.03Q142.78 29.94 142.67 29.83Q141.8 28.97 141.8 27.2ZM79.15 30.31Q78.23 30.7 77.15 30.7Q76.07 30.7 75.16 30.32Q74.9 30.2 74.65 30.06Q74.28 29.84 73.96 29.57Q73.32 29.02 72.9 28.22Q72.26 27.01 72.26 25.44Q72.26 23.84 72.9 22.65Q73.33 21.85 73.97 21.3Q74.28 21.03 74.64 20.82Q74.82 20.72 75.01 20.63Q75.97 20.18 77.15 20.18Q78.33 20.18 79.3 20.64Q79.48 20.72 79.65 20.82Q80.01 21.03 80.32 21.3Q80.96 21.85 81.39 22.65Q82.03 23.84 82.03 25.44Q82.03 27.01 81.39 28.22Q80.97 29.02 80.33 29.57Q80.01 29.84 79.64 30.06Q79.4 30.2 79.15 30.31ZM101.09 25.27L98.54 25.27L98.54 20.25L101.09 20.25Q102.51 20.25 103.2 20.9Q103.33 21.02 103.43 21.15Q103.9 21.76 103.9 22.72Q103.9 23.6 103.5 24.21Q103.36 24.41 103.19 24.58Q102.49 25.27 101.09 25.27Z"
      fill-opacity="1.000000" fill-rule="evenodd"></path>
  </symbol>
  <symbol fill="none" xmlns="http://www.w3.org/2000/svg" xmlns:xlink="http://www.w3.org/1999/xlink" viewBox="0 0 101 71"
    id="FundsAndInvestments">
    <desc>Created with Pixso.</desc>
    <defs></defs>
    <circle id="Ellipse 14" cx="72.743164" cy="26.873291" r="23.788406" fill="#DADADA" fill-opacity="1.000000"></circle>
    <path id="Star 13"
      d="M93.72 51.42L92.79 54.26C92.73 54.47 92.54 54.61 92.32 54.61L89.33 54.61C88.85 54.61 88.64 55.23 89.04 55.51L91.45 57.27C91.63 57.4 91.7 57.62 91.64 57.83L90.71 60.67C90.56 61.13 91.09 61.52 91.48 61.23L93.9 59.48C94.08 59.35 94.31 59.35 94.49 59.48L96.91 61.23C97.3 61.52 97.82 61.13 97.67 60.67L96.75 57.83C96.68 57.62 96.76 57.4 96.93 57.27L99.35 55.51C99.74 55.23 99.54 54.61 99.06 54.61L96.07 54.61C95.85 54.61 95.66 54.47 95.59 54.26L94.67 51.42C94.52 50.96 93.87 50.96 93.72 51.42Z"
      fill="#141414" fill-opacity="1.000000" fill-rule="evenodd"></path>
    <path id="Polygon 1"
      d="M14.08 37.89L6.53 30.34C6.26 30.07 5.79 30.19 5.69 30.56L2.93 40.87C2.83 41.24 3.17 41.58 3.54 41.48L13.85 38.72C14.23 38.62 14.35 38.16 14.08 37.89Z"
      fill="#4EAF4E" fill-opacity="1.000000" fill-rule="evenodd"></path>
    <circle id="Ellipse 13" cx="47.314453" cy="5.020508" r="5.021439" fill="#DADADA" fill-opacity="1.000000"></circle>
    <path id="Vector"
      d="M79.17 23.78L21.02 23.78C19.79 23.78 18.78 24.78 18.78 26.01L18.78 57.32C18.78 58.56 19.79 59.56 21.02 59.56L79.17 59.56C80.4 59.56 81.4 58.56 81.4 57.32L81.4 26.01C81.4 24.78 80.4 23.78 79.17 23.78Z"
      fill="#EBEBEB" fill-opacity="1.000000" fill-rule="nonzero"></path>
    <path id="Vector"
      d="M79.17 23.78C80.4 23.78 81.4 24.78 81.4 26.01L81.4 57.32C81.4 58.56 80.4 59.56 79.17 59.56L21.02 59.56C19.79 59.56 18.78 58.56 18.78 57.32L18.78 26.01C18.78 24.78 19.79 23.78 21.02 23.78L79.17 23.78Z"
      stroke="#141414" stroke-opacity="1.000000" stroke-width="2.000000" stroke-linejoin="round"></path>
    <path id="Vector 2" d="M81.51 43.71L63.6 59.71L78.51 59.71C80.17 59.71 81.51 58.36 81.51 56.71L81.51 43.71Z"
      fill="#4EAF4E" fill-opacity="1.000000" fill-rule="nonzero"></path>
    <path id="Vector 2" d="M81.51 43.71L81.51 56.71C81.51 58.36 80.17 59.71 78.51 59.71L63.6 59.71L81.51 43.71Z"
      stroke="#000000" stroke-opacity="1.000000" stroke-width="1.000000"></path>
    <path id="Vector 1" d="M18.68 39.51L36.59 23.52L21.68 23.52C20.02 23.52 18.68 24.86 18.68 26.52L18.68 39.51Z"
      fill="#4EAF4E" fill-opacity="1.000000" fill-rule="nonzero"></path>
    <path id="Vector 1" d="M18.68 39.51L18.68 26.52C18.68 24.86 20.02 23.52 21.68 23.52L36.59 23.52L18.68 39.51Z"
      stroke="#000000" stroke-opacity="1.000000" stroke-width="1.000000"></path>
    <path id="Vector"
      d="M50.09 50.61C55.03 50.61 59.04 46.61 59.04 41.67C59.04 36.73 55.03 32.72 50.09 32.72C45.15 32.72 41.15 36.73 41.15 41.67C41.15 46.61 45.15 50.61 50.09 50.61Z"
      fill="#FFCC4A" fill-opacity="1.000000" fill-rule="nonzero"></path>
    <path id="Vector"
      d="M50.09 50.61C45.15 50.61 41.15 46.61 41.15 41.67C41.15 36.73 45.15 32.72 50.09 32.72C55.03 32.72 59.04 36.73 59.04 41.67C59.04 46.61 55.03 50.61 50.09 50.61Z"
      stroke="#141414" stroke-opacity="1.000000" stroke-width="2.000000" stroke-linejoin="round"></path>
    <path id="Vector" d="M63.51 23.78L81.4 39.43" stroke="#141414" stroke-opacity="1.000000" stroke-width="2.000000"
      stroke-linejoin="round" stroke-linecap="round"></path>
    <path id="Vector" d="M63.51 59.56L81.4 43.9" stroke="#141414" stroke-opacity="1.000000" stroke-width="2.000000"
      stroke-linejoin="round" stroke-linecap="round"></path>
    <path id="Vector"
      d="M36.02 23.05L36.02 23.02C36.44 22.66 37.06 22.7 37.43 23.12C37.8 23.54 37.76 24.16 37.33 24.53L37.31 24.53L36.02 23.05ZM19.44 40.16L19.44 40.18C19.02 40.55 18.4 40.51 18.03 40.09C17.66 39.67 17.7 39.05 18.13 38.68L18.15 38.68L19.44 40.16Z"
      fill="#D9D9D9" fill-opacity="1.000000" fill-rule="nonzero"></path>
    <path id="Vector" d="M36.68 23.78L18.78 39.43" stroke="#141414" stroke-opacity="1.000000" stroke-width="2.000000"
      stroke-linejoin="round" stroke-linecap="round"></path>
    <path id="Vector" d="M36.68 59.56L18.78 43.9" stroke="#141414" stroke-opacity="1.000000" stroke-width="2.000000"
      stroke-linejoin="round" stroke-linecap="round"></path>
  </symbol>
  <symbol fill="none" xmlns="http://www.w3.org/2000/svg" xmlns:xlink="http://www.w3.org/1999/xlink"
    viewBox="0 0 164 183" id="GreenBackground">
    <desc>Created with Pixso.</desc>
    <defs></defs>
    <rect id="Background" rx="20.000000" width="164.000000" height="183.000000" fill="#4EAF4E" fill-opacity="1.000000">
    </rect>
  </symbol>
  <symbol fill="none" xmlns="http://www.w3.org/2000/svg" xmlns:xlink="http://www.w3.org/1999/xlink" viewBox="0 0 53 53"
    id="Improvement">
    <desc>Created with Pixso.</desc>
    <defs></defs>
    <circle id="Background" cx="26.142578" cy="26.388916" r="26.388947" fill="#181818" fill-opacity="1.000000"></circle>
    <path id="Pattern" d="M37.93 35.61L12.01 35.61" stroke="#FFFFFF" stroke-opacity="1.000000" stroke-width="2.000000"
      stroke-linejoin="round" stroke-linecap="round"></path>
    <path id="Pattern" d="M21.34 35.61L21.34 20.05L28.6 20.05" stroke="#FFFFFF" stroke-opacity="1.000000"
      stroke-width="2.000000" stroke-linejoin="round" stroke-linecap="round"></path>
    <path id="Pattern" d="M35.86 13.83L35.86 35.61L28.6 35.61L28.6 13.83L35.86 13.83Z" stroke="#FFFFFF"
      stroke-opacity="1.000000" stroke-width="2.000000" stroke-linejoin="round"></path>
    <path id="Pattern" d="M14.08 35.61L14.08 26.27L21.34 26.27" stroke="#FFFFFF" stroke-opacity="1.000000"
      stroke-width="2.000000" stroke-linejoin="round" stroke-linecap="round"></path>
  </symbol>
  <symbol xmlns="http://www.w3.org/2000/svg" xmlns:xlink="http://www.w3.org/1999/xlink" viewBox="0 0 18 18"
    id="Instagram">
    <desc>Created with Pixso.</desc>
    <defs></defs>
    <path id="Icon"
      d="M11.83 1.43C12.82 1.43 13.77 1.81 14.47 2.49C15.17 3.16 15.57 4.08 15.57 5.03L15.57 12.24C15.57 13.2 15.17 14.11 14.47 14.79C13.77 15.46 12.82 15.84 11.83 15.85L4.33 15.85C3.34 15.84 2.39 15.46 1.69 14.79C0.99 14.11 0.59 13.2 0.59 12.24L0.59 5.03C0.59 4.08 0.99 3.16 1.69 2.49C2.39 1.81 3.34 1.43 4.33 1.43L11.83 1.43ZM11.83 -0.01L4.33 -0.01C1.45 -0.01 -0.91 2.26 -0.91 5.03L-0.91 12.24C-0.91 15.02 1.45 17.29 4.33 17.29L11.83 17.29C14.71 17.29 17.07 15.02 17.07 12.24L17.07 5.03C17.07 2.26 14.71 -0.01 11.83 -0.01Z"
      fill-opacity="1.000000" fill-rule="nonzero"></path>
    <path id="Icon"
      d="M12.95 5.03C12.73 5.03 12.51 4.97 12.33 4.85C12.14 4.73 12 4.56 11.91 4.37C11.83 4.17 11.8 3.95 11.85 3.74C11.89 3.53 12 3.34 12.16 3.19C12.31 3.04 12.51 2.93 12.73 2.89C12.95 2.85 13.17 2.87 13.38 2.95C13.59 3.04 13.76 3.17 13.88 3.35C14.01 3.53 14.07 3.74 14.07 3.95C14.07 4.1 14.05 4.24 13.99 4.37C13.93 4.5 13.85 4.62 13.75 4.72C13.64 4.82 13.52 4.9 13.38 4.95C13.24 5.01 13.1 5.03 12.95 5.03ZM8.08 5.75C8.67 5.75 9.25 5.92 9.75 6.24C10.24 6.56 10.62 7.01 10.85 7.54C11.08 8.06 11.14 8.64 11.02 9.2C10.9 9.76 10.62 10.27 10.2 10.68C9.78 11.08 9.25 11.36 8.66 11.47C8.08 11.58 7.48 11.52 6.93 11.3C6.39 11.08 5.92 10.71 5.59 10.24C5.26 9.77 5.08 9.21 5.08 8.64C5.08 7.87 5.4 7.14 5.96 6.6C6.52 6.06 7.29 5.76 8.08 5.75ZM8.08 4.31C7.19 4.31 6.32 4.57 5.58 5.04C4.84 5.52 4.27 6.19 3.93 6.98C3.59 7.77 3.5 8.64 3.67 9.48C3.85 10.32 4.27 11.09 4.9 11.7C5.53 12.3 6.33 12.71 7.2 12.88C8.08 13.05 8.98 12.96 9.8 12.63C10.62 12.31 11.32 11.75 11.82 11.04C12.31 10.33 12.58 9.49 12.58 8.64C12.58 7.49 12.1 6.39 11.26 5.58C10.42 4.77 9.27 4.31 8.08 4.31Z"
      fill-opacity="1.000000" fill-rule="nonzero"></path>
  </symbol>
  <symbol fill="none" xmlns="http://www.w3.org/2000/svg" xmlns:xlink="http://www.w3.org/1999/xlink" viewBox="0 0 100 90"
    id="InvestmentBanking">
    <desc>Created with Pixso.</desc>
    <defs></defs>
    <circle id="Ellipse 14" cx="22.793945" cy="66.193604" r="23.788406" fill="#DADADA" fill-opacity="1.000000"></circle>
    <path id="Star 13"
      d="M73.25 1.46L72.33 4.3C72.26 4.51 72.07 4.65 71.85 4.65L68.87 4.65C68.38 4.65 68.18 5.27 68.57 5.55L70.99 7.31C71.16 7.43 71.24 7.66 71.17 7.87L70.25 10.71C70.1 11.17 70.62 11.55 71.02 11.27L73.43 9.51C73.61 9.38 73.85 9.38 74.02 9.51L76.44 11.27C76.83 11.55 77.36 11.17 77.21 10.71L76.29 7.87C76.22 7.66 76.29 7.43 76.47 7.31L78.89 5.55C79.28 5.27 79.08 4.65 78.59 4.65L75.6 4.65C75.39 4.65 75.19 4.51 75.13 4.3L74.2 1.46C74.05 1 73.4 1 73.25 1.46Z"
      fill="#141414" fill-opacity="1.000000" fill-rule="evenodd"></path>
    <path id="Polygon 1"
      d="M14.96 43.98L7.42 36.44C7.15 36.16 6.68 36.29 6.58 36.66L3.82 46.97C3.72 47.34 4.06 47.68 4.43 47.58L14.74 44.82C15.11 44.72 15.24 44.26 14.96 43.98Z"
      fill="#4EAF4E" fill-opacity="1.000000" fill-rule="evenodd"></path>
    <circle id="Ellipse 13" cx="92.395508" cy="17.676025" r="7.257034" fill="#DADADA" fill-opacity="1.000000"></circle>
    <rect id="Rectangle 33" x="27.685547" y="56.426758" width="51.821083" height="8.028477" fill="#4EAF4E"
      fill-opacity="1.000000"></rect>
    <path id="Vector" d="M25.23 34.54L81.96 34.54L53.59 17.08L25.23 34.54Z" fill="#FFCC4A" fill-opacity="1.000000"
      fill-rule="nonzero"></path>
    <path id="Vector" d="M81.96 34.54L53.59 17.08L25.23 34.54L81.96 34.54Z" stroke="#141414" stroke-opacity="1.000000"
      stroke-width="2.000000" stroke-linejoin="round"></path>
    <path id="Vector" d="M33.95 34.54L33.95 56.36" stroke="#141414" stroke-opacity="1.000000" stroke-width="2.000000"
      stroke-linejoin="round" stroke-linecap="round"></path>
    <path id="Vector" d="M47.04 34.54L47.04 56.36" stroke="#141414" stroke-opacity="1.000000" stroke-width="2.000000"
      stroke-linejoin="round" stroke-linecap="round"></path>
    <path id="Vector" d="M60.14 34.54L60.14 56.36" stroke="#141414" stroke-opacity="1.000000" stroke-width="2.000000"
      stroke-linejoin="round" stroke-linecap="round"></path>
    <path id="Vector" d="M73.23 34.54L73.23 56.36" stroke="#141414" stroke-opacity="1.000000" stroke-width="2.000000"
      stroke-linejoin="round" stroke-linecap="round"></path>
    <path id="Vector" d="M27.41 56.36L79.77 56.36" stroke="#141414" stroke-opacity="1.000000" stroke-width="2.000000"
      stroke-linejoin="round" stroke-linecap="round"></path>
    <path id="Vector" d="M23.04 65.09L84.14 65.09" stroke="#141414" stroke-opacity="1.000000" stroke-width="2.000000"
      stroke-linejoin="round" stroke-linecap="round"></path>
  </symbol>
  <symbol fill="none" xmlns="http://www.w3.org/2000/svg" xmlns:xlink="http://www.w3.org/1999/xlink" viewBox="0 0 18 18"
    id="Linked-In">
    <desc>Created with Pixso.</desc>
    <defs></defs>
    <path id="Icon"
      d="M16.27 -0.38L1.21 -0.38C0.39 -0.38 -0.33 0.21 -0.33 1.02L-0.33 16.11C-0.33 16.93 0.39 17.66 1.21 17.66L16.27 17.66C17.1 17.66 17.72 16.93 17.72 16.11L17.72 1.02C17.72 0.21 17.1 -0.38 16.27 -0.38ZM5.26 14.66L2.68 14.66L2.68 6.62L5.26 6.62L5.26 14.66ZM4.06 5.4L4.04 5.4C3.22 5.4 2.68 4.78 2.68 4.01C2.68 3.22 3.23 2.62 4.08 2.62C4.92 2.62 5.44 3.22 5.46 4.01C5.46 4.78 4.92 5.4 4.06 5.4ZM14.71 14.66L12.13 14.66L12.13 10.26C12.13 9.21 11.75 8.49 10.82 8.49C10.1 8.49 9.68 8.97 9.49 9.44C9.42 9.61 9.4 9.84 9.4 10.08L9.4 14.66L6.82 14.66L6.82 6.62L9.4 6.62L9.4 7.74C9.78 7.2 10.37 6.43 11.73 6.43C13.43 6.43 14.71 7.55 14.71 9.96L14.71 14.66Z"
      fill="#FFFFFF" fill-opacity="1.000000" fill-rule="nonzero"></path>
  </symbol>
  <symbol xmlns="http://www.w3.org/2000/svg" xmlns:xlink="http://www.w3.org/1999/xlink" viewBox="0 0 13 17"
    id="location">
    <desc>Created with Pixso.</desc>
    <defs></defs>
    <path id="Icon"
      d="M6.2 8.58C4.9 8.58 3.84 7.53 3.84 6.23C3.84 4.93 4.9 3.87 6.2 3.87C7.5 3.87 8.56 4.93 8.56 6.23C8.56 7.53 7.5 8.58 6.2 8.58Z"
      stroke-opacity="1.000000" stroke-width="1.000000" stroke-linejoin="round"></path>
    <path id="Icon"
      d="M6.2 15.65C6.2 15.65 0.31 11.53 0.31 6.23C0.31 4.66 0.93 3.17 2.03 2.06C3.14 0.96 4.64 0.34 6.2 0.34C7.76 0.34 9.26 0.96 10.37 2.06C11.47 3.17 12.09 4.66 12.09 6.23C12.09 11.53 6.2 15.65 6.2 15.65Z"
      stroke-opacity="1.000000" stroke-width="1.000000" stroke-linejoin="round"></path>
  </symbol>
  <symbol fill="none" xmlns="http://www.w3.org/2000/svg" xmlns:xlink="http://www.w3.org/1999/xlink" viewBox="0 0 30 29"
    id="Logo">
    <desc>Created with Pixso.</desc>
    <defs></defs>
    <path id="Union"
      d="M26.96 20.76C28.49 20.76 29.73 19.52 29.73 17.98L29.73 2.09C29.73 0.55 28.49 -0.69 26.96 -0.69L2.77 -0.69C1.24 -0.69 0 0.55 0 2.09L0 17.98C0 19.52 1.24 20.76 2.77 20.76L14.1 20.76C14.1 20.76 14.1 20.77 14.11 20.77L21.28 27.94C21.86 28.53 22.86 28.11 22.86 27.29L22.86 20.76L26.96 20.76Z"
      fill="#FFCC4A" fill-opacity="1.000000" fill-rule="nonzero"></path>
    <rect id="Rectangle 15" x="7.569336" y="12.947754" rx="0.775175" width="13.869875" height="1.550351" fill="#1B1B1B"
      fill-opacity="1.000000"></rect>
    <rect id="Rectangle 16" x="7.569336" y="8.953613" rx="0.775175" width="13.869875" height="1.550351" fill="#1B1B1B"
      fill-opacity="1.000000"></rect>
    <rect id="Rectangle 17" x="7.569336" y="5.373047" rx="0.775175" width="13.869875" height="1.550351" fill="#1B1B1B"
      fill-opacity="1.000000"></rect>
  </symbol>
  <symbol xmlns="http://www.w3.org/2000/svg" xmlns:xlink="http://www.w3.org/1999/xlink" viewBox="0 0 87 39" id="Norto">
    <desc>Created with Pixso.</desc>
    <defs></defs>
    <path id="Norto"
      d="M16.38 -0.5L12.48 -0.5L12.48 28.34L4.79 -0.5L-0.18 -0.5L-0.18 38.07L3.73 38.07L3.73 8.19L11.74 38.07L16.38 38.07L16.38 -0.5ZM30.39 -0.5L24.06 -0.5Q21.63 -0.5 20.4 0.72Q19.17 1.95 19.17 4.41L19.17 33.17Q19.17 35.63 20.4 36.85Q21.63 38.07 24.06 38.07L30.39 38.07Q32.84 38.07 34.07 36.84Q35.3 35.62 35.3 33.17L35.3 4.41Q35.3 1.95 34.07 0.73Q32.84 -0.5 30.39 -0.5ZM42.3 38.07L42.3 21.95L45.95 21.95L51.59 38.07L56.18 38.07L50.35 21.89Q52 21.7 52.94 20.79Q54.2 19.57 54.2 17.05L54.2 4.41Q54.2 3.74 54.11 3.16L60.03 3.16L60.03 38.07L64.25 38.07L64.25 3.16L70.23 3.16Q70.14 3.74 70.14 4.41L70.14 33.17Q70.14 35.63 71.37 36.85Q72.59 38.07 75.03 38.07L81.36 38.07Q83.81 38.07 85.03 36.84Q86.26 35.62 86.26 33.17L86.26 4.41Q86.26 1.95 85.03 0.73Q83.81 -0.5 81.36 -0.5L75.03 -0.5Q72.59 -0.5 71.37 0.72Q70.75 1.34 70.44 2.27L70.44 -0.5L53.82 -0.5L53.82 2.06Q53.52 1.27 52.97 0.72Q51.75 -0.5 49.31 -0.5L38.08 -0.5L38.08 38.07L42.3 38.07ZM31.07 5.09L31.07 32.48Q31.07 33.73 30.69 34.07Q30.33 34.41 29.15 34.41L25.31 34.41Q24.12 34.41 23.75 34.07Q23.38 33.73 23.38 32.48L23.38 5.09Q23.38 3.85 23.75 3.51Q24.12 3.16 25.31 3.16L29.15 3.16Q30.33 3.16 30.69 3.51Q31.07 3.85 31.07 5.09ZM42.3 18.29L42.3 3.16L48.07 3.16Q49.31 3.16 49.64 3.51Q49.99 3.85 49.99 5.09L49.99 16.36Q49.99 17.61 49.64 17.95Q49.31 18.29 48.07 18.29L42.3 18.29ZM82.04 5.09L82.04 32.48Q82.04 33.73 81.66 34.07Q81.29 34.41 80.11 34.41L76.27 34.41Q75.09 34.41 74.71 34.07Q74.35 33.73 74.35 32.48L74.35 5.09Q74.35 3.85 74.71 3.51Q75.09 3.16 76.27 3.16L80.11 3.16Q81.29 3.16 81.66 3.51Q82.04 3.85 82.04 5.09Z"
      fill-opacity="1.000000" fill-rule="evenodd"></path>
  </symbol>
  <symbol xmlns="http://www.w3.org/2000/svg" xmlns:xlink="http://www.w3.org/1999/xlink" viewBox="0 0 172 37"
    id="OutOfTheSandBox">
    <desc>Created with Pixso.</desc>
    <defs></defs>
    <path id="OutOfThe Sand Box"
      d="M0.35 1.72Q-0.48 3.16 -0.48 5.08Q-0.48 6.95 0.32 8.37Q0.57 8.82 0.91 9.22Q1.54 9.99 2.35 10.41Q3.32 10.9 4.54 10.9Q5.79 10.9 6.77 10.39Q7.56 9.97 8.18 9.21Q8.53 8.78 8.79 8.31Q9.56 6.9 9.56 5.08Q9.56 3.21 8.76 1.78Q8.51 1.33 8.18 0.93Q7.56 0.18 6.77 -0.24Q5.79 -0.76 4.54 -0.76Q3.32 -0.76 2.35 -0.26Q1.54 0.15 0.91 0.92Q0.59 1.3 0.35 1.72ZM69.41 1.72Q68.57 3.16 68.57 5.08Q68.57 6.95 69.37 8.37Q69.63 8.82 69.96 9.22Q70.6 9.99 71.41 10.41Q72.38 10.9 73.59 10.9Q74.85 10.9 75.83 10.39Q76.62 9.97 77.24 9.21Q77.59 8.78 77.85 8.31Q78.61 6.9 78.61 5.08Q78.61 3.21 77.81 1.78Q77.56 1.33 77.24 0.93Q76.62 0.18 75.83 -0.24Q74.85 -0.76 73.59 -0.76Q72.38 -0.76 71.41 -0.26Q70.6 0.15 69.96 0.92Q69.65 1.3 69.41 1.72ZM26.54 -0.43L22.17 -0.43L22.17 0.49L23.57 0.49L23.57 6Q23.57 8.42 24.24 9.38Q24.55 9.82 24.95 10.13Q25.96 10.9 27.56 10.9Q28.75 10.9 29.61 10.46Q30.47 10.02 30.86 9.48Q31.56 8.5 31.56 6.2L31.56 0.49L32.97 0.49L32.97 -0.43L28.59 -0.43L28.59 0.49L30.58 0.49L30.58 6.2Q30.58 7.99 30.19 8.7Q30.08 8.92 29.92 9.1Q29.2 9.93 27.54 9.93Q26.17 9.93 25.43 9.24Q25.12 8.95 24.92 8.54Q24.55 7.78 24.55 6L24.55 0.49L26.54 0.49L26.54 -0.43ZM55.26 -0.43L45.89 -0.43L45.56 4.18L46.49 4.3L46.77 0.49L50.09 0.49L50.09 9.65L47.72 9.65L47.72 10.57L53.43 10.57L53.43 9.65L51.06 9.65L51.06 0.49L54.38 0.49L54.66 4.3L55.6 4.18L55.26 -0.43ZM101.32 -0.43L92.16 -0.43L92.16 0.49L93.74 0.49L93.74 9.65L92.16 9.65L92.16 10.57L97.26 10.57L97.26 9.65L94.72 9.65L94.72 5.22L97.88 5.22L97.88 6.62L98.78 6.62L98.78 2.87L97.88 2.87L97.88 4.3L94.72 4.3L94.72 0.49L100.3 0.49L100.54 3.09L101.42 3.09L101.32 -0.43ZM124.32 -0.43L114.94 -0.43L114.61 4.18L115.55 4.3L115.82 0.49L119.14 0.49L119.14 9.65L116.78 9.65L116.78 10.57L122.48 10.57L122.48 9.65L120.12 9.65L120.12 0.49L123.44 0.49L123.71 4.3L124.65 4.18L124.32 -0.43ZM141.46 -0.43L137.55 -0.43L137.55 0.49L139.02 0.49L139.02 9.65L137.55 9.65L137.55 10.57L141.46 10.57L141.46 9.65L139.99 9.65L139.99 5.36L145.31 5.36L145.31 9.65L143.84 9.65L143.84 10.57L147.77 10.57L147.77 9.65L146.28 9.65L146.28 0.49L147.77 0.49L147.77 -0.43L143.84 -0.43L143.84 0.49L145.31 0.49L145.31 4.44L139.99 4.44L139.99 0.49L141.46 0.49L141.46 -0.43ZM170.2 -0.43L160.92 -0.43L160.92 0.49L162.58 0.49L162.58 9.65L160.92 9.65L160.92 10.57L170.38 10.57L170.38 6.98L169.48 6.98L169.38 9.65L163.56 9.65L163.56 5.22L166.72 5.22L166.72 6.62L167.62 6.62L167.62 2.87L166.72 2.87L166.72 4.3L163.56 4.3L163.56 0.49L169.19 0.49L169.38 3.17L170.28 3.17L170.2 -0.43ZM1 7.31Q0.57 6.28 0.57 5.06Q0.57 3.87 0.98 2.85Q1.23 2.24 1.62 1.69Q2.1 1.02 2.74 0.65Q3.52 0.22 4.54 0.22Q5.48 0.22 6.22 0.6Q6.91 0.96 7.43 1.65Q7.71 2.04 7.92 2.45Q8.5 3.61 8.5 5.06Q8.5 6.44 7.97 7.57Q7.75 8.04 7.44 8.47Q6.93 9.17 6.25 9.53Q5.5 9.93 4.54 9.93Q3.6 9.93 2.86 9.54Q2.16 9.17 1.64 8.45Q1.25 7.91 1 7.31ZM70.06 7.31Q69.63 6.28 69.63 5.06Q69.63 3.87 70.04 2.85Q70.28 2.24 70.67 1.69Q71.15 1.02 71.8 0.65Q72.58 0.22 73.59 0.22Q74.53 0.22 75.27 0.6Q75.97 0.96 76.48 1.65Q76.77 2.04 76.98 2.45Q77.56 3.61 77.56 5.06Q77.56 6.44 77.03 7.57Q76.81 8.04 76.49 8.47Q75.99 9.17 75.3 9.53Q74.55 9.93 73.59 9.93Q72.66 9.93 71.92 9.54Q71.21 9.17 70.69 8.45Q70.3 7.91 70.06 7.31ZM8.58 25.36L7.7 25.36Q7.7 25.46 7.66 25.61Q7.57 26.12 7.53 26.22Q7.51 26.26 7.48 26.28Q7.44 26.32 7.37 26.32Q7.29 26.32 6.92 26.04Q6.61 25.8 6.26 25.63Q5.47 25.24 4.5 25.24Q3.39 25.24 2.52 25.69Q2.1 25.91 1.74 26.24Q1.02 26.87 0.76 27.66Q0.61 28.11 0.61 28.6Q0.61 29.34 0.93 29.9L0.93 29.9Q1.26 30.46 1.67 30.75Q2.08 31.04 2.77 31.26Q3.46 31.47 3.86 31.53Q4.26 31.59 4.93 31.65Q5.34 31.69 5.61 31.73Q5.89 31.77 6.31 31.9Q6.73 32.04 6.99 32.24Q7.25 32.45 7.45 32.81Q7.64 33.17 7.64 33.66Q7.64 33.96 7.56 34.23Q7.4 34.79 6.91 35.24Q6.18 35.93 4.56 35.93Q3.32 35.93 2.57 35.32Q2.34 35.13 2.16 34.89Q1.73 34.32 1.49 33.15L0.61 33.15Q0.79 34.79 0.79 35.22Q0.79 36.12 0.61 36.96L1.49 36.96Q1.59 36.32 1.67 36.08Q1.76 35.93 1.86 35.93Q1.94 35.93 2.02 36Q2.26 36.2 2.52 36.36Q3.45 36.9 4.69 36.9Q5.73 36.9 6.61 36.53Q7.07 36.33 7.49 36.03Q8.01 35.66 8.3 35.16Q8.7 34.49 8.7 33.58Q8.7 32.88 8.41 32.32Q8.11 31.74 7.49 31.32Q7.41 31.26 7.33 31.22Q6.92 30.98 6.44 30.88Q5.87 30.75 4.64 30.61Q4.09 30.55 3.74 30.49Q3.39 30.42 2.83 30.21Q2.37 30.04 2.08 29.72Q2.02 29.65 1.97 29.58Q1.95 29.55 1.93 29.53Q1.67 29.11 1.67 28.52Q1.67 28.36 1.7 28.2Q1.81 27.53 2.44 26.94Q2.47 26.92 2.49 26.89Q3.26 26.22 4.62 26.22Q5.79 26.22 6.52 26.79Q6.85 27.04 7.1 27.41Q7.55 28.09 7.7 29.25L8.58 29.09Q8.41 27.66 8.41 26.77Q8.41 26.12 8.58 25.36ZM139.19 27.72Q138.35 29.16 138.35 31.08Q138.35 32.95 139.15 34.37Q139.41 34.82 139.74 35.22Q140.38 35.99 141.19 36.41Q142.16 36.9 143.37 36.9Q144.63 36.9 145.61 36.39Q146.4 35.97 147.02 35.21Q147.37 34.78 147.63 34.31Q148.39 32.9 148.39 31.08Q148.39 29.21 147.59 27.78Q147.34 27.33 147.02 26.93Q146.4 26.18 145.61 25.76Q144.63 25.24 143.37 25.24Q142.16 25.24 141.19 25.74Q140.38 26.15 139.74 26.92Q139.43 27.3 139.19 27.72ZM28.1 25.57L23.9 25.57L23.9 26.49L26.7 26.49L22.93 35.65L21.89 35.65L21.89 36.57L25.9 36.57L25.9 35.65L23.9 35.65L25 32.94L30.1 32.94L31.21 35.65L29.22 35.65L29.22 36.57L33.22 36.57L33.22 35.65L32.22 35.65L28.1 25.57ZM48.6 25.57L45.26 25.57L45.26 26.49L46.79 26.49L46.79 35.65L45.26 35.65L45.26 36.57L49.89 36.57L49.89 35.65L47.68 35.65L47.68 26.49L48.02 26.49L53.25 36.82L54.99 36.82L54.99 26.49L56.26 26.49L56.26 25.57L51.9 25.57L51.9 26.49L54.09 26.49L54.09 35.75L53.74 35.75L48.6 25.57ZM73.28 25.57L68.4 25.57L68.4 26.49L69.94 26.49L69.94 35.65L68.4 35.65L68.4 36.57L73.2 36.57Q75.68 36.57 76.88 35.44Q76.99 35.33 77.09 35.21Q78.5 33.68 78.5 30.87Q78.5 28.8 77.53 27.38Q77.42 27.2 77.29 27.04Q76.54 26.12 75.65 25.85Q74.75 25.57 73.28 25.57ZM120.71 25.57L115.37 25.57L115.37 26.49L117 26.49L117 35.65L115.37 35.65L115.37 36.57L120.53 36.57Q121.86 36.57 122.48 36.46Q123.11 36.36 123.73 36.02Q123.89 35.94 124.03 35.84Q124.45 35.53 124.74 35.03Q124.87 34.81 124.95 34.57Q125.12 34.1 125.12 33.56Q125.12 32.69 124.73 32.07Q124.19 31.21 122.89 30.83Q123.76 30.38 124.14 29.66Q124.44 29.11 124.44 28.41Q124.44 27.87 124.25 27.41Q124.02 26.84 123.52 26.39Q122.6 25.57 120.71 25.57ZM165.34 25.57L161.55 25.57L161.55 26.49L162.58 26.49L165.87 30.79L162.17 35.65L161.18 35.65L161.18 36.57L165.34 36.57L165.34 35.65L163.27 35.65L166.41 31.51L169.42 35.65L167.66 35.65L167.66 36.57L171.61 36.57L171.61 35.65L170.59 35.65L166.96 30.79L170.24 26.49L171.24 26.49L171.24 25.57L167.66 25.57L167.66 26.49L169.15 26.49L166.41 30.07L163.74 26.49L165.34 26.49L165.34 25.57ZM139.84 33.31Q139.41 32.28 139.41 31.06Q139.41 29.87 139.82 28.85Q140.06 28.24 140.45 27.69Q140.93 27.02 141.58 26.65Q142.35 26.22 143.37 26.22Q144.31 26.22 145.05 26.6Q145.74 26.96 146.26 27.65Q146.55 28.04 146.76 28.45Q147.34 29.61 147.34 31.06Q147.34 32.44 146.81 33.57Q146.59 34.04 146.27 34.47Q145.77 35.17 145.08 35.53Q144.33 35.93 143.37 35.93Q142.43 35.93 141.7 35.54Q140.99 35.17 140.47 34.45Q140.08 33.91 139.84 33.31ZM70.92 26.49L73.3 26.49Q74.55 26.49 75.25 26.73Q75.96 26.96 76.52 27.76Q76.56 27.81 76.6 27.86Q77.44 29.11 77.44 30.93Q77.44 33.3 76.26 34.6Q76.2 34.67 76.13 34.73Q75.2 35.65 73.2 35.65L70.92 35.65L70.92 26.49ZM117.97 26.49L120.67 26.49Q121 26.49 121.3 26.53Q121.6 26.57 122.17 26.72Q122.54 26.81 122.82 27.03Q122.96 27.15 123.08 27.29Q123.13 27.36 123.17 27.43Q123.42 27.82 123.42 28.37Q123.42 28.66 123.32 28.95Q123.23 29.25 122.97 29.6Q122.72 29.95 122.09 30.17Q121.47 30.4 120.57 30.4L117.97 30.4L117.97 26.49ZM27.56 26.73L29.76 32.08L25.35 32.08L27.56 26.73ZM117.97 31.32L120.41 31.32Q122.11 31.32 123.11 31.86Q123.59 32.13 123.84 32.54Q124.1 32.97 124.1 33.56Q124.1 34.07 123.95 34.44Q123.87 34.63 123.74 34.78Q123.62 34.93 123.46 35.04Q123.13 35.26 122.83 35.39Q122.52 35.52 122.02 35.57Q121.53 35.63 121.25 35.64Q120.98 35.65 120.49 35.65L117.97 35.65L117.97 31.32Z"
      fill-opacity="1.000000" fill-rule="evenodd"></path>
  </symbol>
  <symbol xmlns="http://www.w3.org/2000/svg" xmlns:xlink="http://www.w3.org/1999/xlink" viewBox="0 0 18 17" id="phone">
    <desc>Created with Pixso.</desc>
    <defs></defs>
    <path id="Icon"
      d="M8.51 11.6C8.63 11.65 8.75 11.68 8.88 11.67C9.01 11.66 9.13 11.61 9.23 11.54L11.51 10.02C11.62 9.95 11.73 9.91 11.85 9.9C11.97 9.89 12.1 9.91 12.21 9.96L16.48 11.79C16.62 11.85 16.75 11.96 16.83 12.1C16.9 12.23 16.94 12.39 16.92 12.55C16.78 13.6 16.27 14.58 15.47 15.28C14.67 15.98 13.64 16.37 12.57 16.37C9.28 16.37 6.12 15.06 3.8 12.74C1.47 10.41 0.16 7.25 0.16 3.96C0.16 2.9 0.55 1.87 1.25 1.07C1.96 0.27 2.93 -0.25 3.99 -0.38C4.14 -0.4 4.3 -0.37 4.44 -0.29C4.58 -0.21 4.68 -0.09 4.74 0.06L6.58 4.34C6.63 4.45 6.65 4.56 6.64 4.68C6.63 4.8 6.59 4.92 6.52 5.02L5 7.34C4.93 7.44 4.89 7.56 4.88 7.69C4.88 7.81 4.9 7.94 4.95 8.05C5.7 9.6 6.96 10.85 8.51 11.6Z"
      stroke-opacity="1.000000" stroke-width="1.000000" stroke-linejoin="round"></path>
  </symbol>
  <symbol fill="none" xmlns="http://www.w3.org/2000/svg" xmlns:xlink="http://www.w3.org/1999/xlink"
    viewBox="0 0 109 109" id="PlayButton">
    <desc>Created with Pixso.</desc>
    <defs></defs>
    <circle id="Icon" cx="54.500000" cy="54.500000" r="54.500000" fill="#FFFFFF" fill-opacity="0.080000"></circle>
    <circle id="Icon" cx="54.500000" cy="54.500000" r="54.349998" stroke="#FFFFFF" stroke-opacity="0.420000"
      stroke-width="0.300000"></circle>
    <circle id="Icon" cx="54.500000" cy="54.500000" r="43.500000" fill="#FFFFFF" fill-opacity="0.170000"></circle>
    <circle id="Icon" cx="54.500000" cy="54.500000" r="43.349998" stroke="#D0D0D0" stroke-opacity="1.000000"
      stroke-width="0.300000"></circle>
    <circle id="Icon" cx="54.500000" cy="54.500000" r="33.500000" fill="#FFFFFF" fill-opacity="1.000000"></circle>
    <path id="Icon"
      d="M51.01 62.71L59.63 55.44C59.76 55.33 59.88 55.18 59.95 55.02C60.03 54.85 60.07 54.67 60.07 54.49C60.07 54.31 60.03 54.14 59.95 53.97C59.88 53.81 59.76 53.66 59.63 53.55L51.01 46.27C50.19 45.58 48.92 46.16 48.92 47.22L48.92 61.77C48.92 62.83 50.19 63.41 51.01 62.71Z"
      fill="#3B3A5D" fill-opacity="1.000000" fill-rule="nonzero"></path>
  </symbol>
  <symbol xmlns="http://www.w3.org/2000/svg" xmlns:xlink="http://www.w3.org/1999/xlink" viewBox="0 0 185 48"
    id="points">
    <desc>Created with Pixso.</desc>
    <defs></defs>
    <path id="Points one"
      d="M89.42 5.21Q88.48 4.88 87.42 4.88Q86.01 4.88 84.82 5.38Q83.81 5.81 82.95 6.61Q82.12 7.37 81.62 8.32Q80.8 9.82 80.8 11.75Q80.8 14.04 81.82 15.69Q82.18 16.28 82.67 16.78Q83.55 17.7 84.62 18.19Q85.82 18.73 87.26 18.73Q88.53 18.73 89.63 18.29Q90.86 17.79 91.87 16.73Q92.51 16.06 92.94 15.27Q93.77 13.72 93.77 11.72Q93.77 9.88 93.02 8.42Q92.58 7.56 91.88 6.84Q90.77 5.68 89.42 5.21ZM182.24 9.46L182.24 4.88L181.87 4.88Q181.78 5.34 181.62 5.49Q181.57 5.53 181.53 5.56Q181.39 5.64 181.2 5.64Q180.98 5.64 180.43 5.4Q179.25 4.88 178.19 4.88Q176.99 4.88 176.09 5.4Q175.73 5.61 175.41 5.91Q174.77 6.51 174.51 7.24Q174.32 7.77 174.32 8.36Q174.32 8.95 174.51 9.47Q174.58 9.67 174.69 9.87Q175.06 10.55 175.78 11.12Q176.49 11.68 178.19 12.64Q179.89 13.59 180.27 13.88Q180.84 14.31 181.11 14.81Q181.38 15.31 181.38 15.8Q181.38 16.12 181.28 16.41Q181.11 16.91 180.67 17.32Q180.61 17.37 180.56 17.42Q179.87 17.96 178.74 17.96Q177.98 17.96 177.3 17.72Q177.05 17.62 176.8 17.5Q175.92 17.03 175.49 16.32Q175.06 15.61 174.8 14.18L174.44 14.18L174.44 18.73L174.8 18.73Q174.87 18.27 175.01 18.12Q175.04 18.09 175.08 18.06Q175.21 17.97 175.4 17.97Q175.65 17.97 176.61 18.28Q177.56 18.59 177.86 18.64Q178.37 18.73 178.94 18.73Q180.33 18.73 181.33 18.11Q181.66 17.91 181.95 17.64Q182.64 16.99 182.92 16.2Q183.11 15.66 183.11 15.04Q183.11 14.74 183.06 14.44Q182.97 13.97 182.75 13.53Q182.69 13.41 182.61 13.29Q182.26 12.72 181.7 12.28Q181.02 11.74 179.17 10.75Q176.89 9.53 176.29 8.79Q176.01 8.47 175.92 8.1Q175.87 7.9 175.87 7.69Q175.87 7.46 175.92 7.25Q176.06 6.72 176.53 6.28Q176.73 6.1 176.96 5.97Q177.5 5.66 178.21 5.66Q178.43 5.66 178.65 5.69Q179.32 5.77 179.95 6.12Q180.54 6.44 180.93 6.91Q181.11 7.12 181.24 7.36Q181.7 8.14 181.87 9.46L182.24 9.46ZM61.78 16.08L61.78 12.22Q62.41 12.36 62.97 12.43Q63.53 12.5 64.01 12.5Q65.87 12.5 66.93 11.57Q66.98 11.53 67.03 11.48Q67.4 11.12 67.65 10.69Q68.1 9.9 68.1 8.84Q68.1 8.08 67.81 7.45Q67.65 7.09 67.4 6.78Q66.98 6.27 66.45 5.93Q66.09 5.7 65.67 5.55Q64.64 5.18 62.86 5.18L58.01 5.18L58.01 5.54L58.51 5.54Q59.16 5.54 59.53 5.86Q59.59 5.91 59.64 5.97Q59.91 6.27 59.91 7.52L59.91 16.08Q59.91 17.21 59.71 17.51Q59.62 17.65 59.51 17.74Q59.15 18.06 58.51 18.06L58.01 18.06L58.01 18.42L63.68 18.42L63.68 18.06L63.18 18.06Q62.52 18.06 62.16 17.74Q62.1 17.69 62.05 17.63Q61.78 17.33 61.78 16.08ZM112.02 18.42L112.02 18.06L111.54 18.06Q111.35 18.06 111.17 18.02Q110.9 17.97 110.65 17.83Q110.34 17.65 110.24 17.41Q110.11 17.09 110.11 16.08L110.11 7.52Q110.11 6.33 110.36 6.02Q110.42 5.95 110.48 5.88Q110.85 5.54 111.54 5.54L112.02 5.54L112.02 5.18L106.34 5.18L106.34 5.54L106.81 5.54Q106.96 5.54 107.11 5.57Q107.42 5.62 107.71 5.78Q108.01 5.95 108.11 6.2Q108.24 6.52 108.24 7.52L108.24 16.08Q108.24 17.27 108 17.58Q107.95 17.65 107.89 17.71Q107.51 18.06 106.81 18.06L106.34 18.06L106.34 18.42L112.02 18.42ZM127.14 5.18L123.54 5.18L123.54 5.54Q124.12 5.54 124.4 5.63Q124.98 5.82 125.28 6.03Q125.57 6.25 126.15 6.92L126.15 16.13Q126.15 17.24 125.93 17.55Q125.88 17.64 125.81 17.71Q125.44 18.06 124.73 18.06L124.27 18.06L124.27 18.42L128.88 18.42L128.88 18.06L128.42 18.06Q127.69 18.06 127.32 17.7Q127.29 17.68 127.27 17.65Q127.01 17.35 127.01 16.13L127.01 7.97L135.74 18.64L136.09 18.64L136.09 7.48Q136.09 6.36 136.31 6.05Q136.37 5.96 136.44 5.89Q136.8 5.54 137.5 5.54L137.97 5.54L137.97 5.18L133.36 5.18L133.36 5.54L133.82 5.54Q134.56 5.54 134.92 5.91Q134.94 5.93 134.96 5.95Q135.23 6.26 135.23 7.48L135.23 15.11L127.14 5.18ZM161.27 8.29L161.12 5.18L150.31 5.18L150.15 8.29L150.53 8.29Q150.59 7.39 150.96 6.86Q151.29 6.37 151.74 6.18Q151.78 6.16 151.82 6.15Q152.22 6.01 153.14 6.01L154.73 6.01L154.73 16.13Q154.73 17.24 154.52 17.55Q154.46 17.64 154.38 17.71Q154.02 18.06 153.33 18.06L152.86 18.06L152.86 18.42L158.47 18.42L158.47 18.06L158.02 18.06Q157.29 18.06 156.92 17.7Q156.89 17.68 156.87 17.65Q156.61 17.35 156.61 16.13L156.61 6.01L158.47 6.01Q159.3 6.01 159.8 6.28Q159.88 6.32 159.95 6.37Q160.35 6.64 160.6 7.11Q160.79 7.47 160.9 8.29L161.27 8.29ZM85.46 6Q86.24 5.59 87.23 5.59Q88.44 5.59 89.31 6.13Q89.81 6.44 90.2 6.92Q91.54 8.59 91.54 11.99Q91.54 15.12 90.32 16.58Q89.69 17.34 88.87 17.7Q88.13 18.03 87.24 18.03Q86.3 18.03 85.56 17.65Q84.92 17.32 84.43 16.7Q83.04 14.96 83.04 11.71Q83.04 8.55 84.38 6.91Q84.85 6.33 85.46 6ZM62.7 11.81Q62.3 11.76 61.78 11.67L61.78 6.16Q62.56 5.97 63.06 5.97Q63.78 5.97 64.36 6.25Q64.44 6.29 64.52 6.34Q64.68 6.42 64.81 6.53Q65.25 6.88 65.52 7.44Q65.61 7.62 65.67 7.81Q65.87 8.39 65.87 9.04Q65.87 9.99 65.44 10.68Q65.31 10.89 65.13 11.07Q64.7 11.54 64.16 11.73Q63.79 11.86 63.38 11.86Q63.1 11.86 62.7 11.81ZM67 28.21Q66.06 27.88 64.99 27.88Q63.59 27.88 62.4 28.38Q61.39 28.81 60.53 29.61Q59.7 30.37 59.19 31.32Q58.38 32.82 58.38 34.75Q58.38 37.04 59.4 38.69Q59.76 39.28 60.24 39.78Q61.12 40.7 62.2 41.19Q63.4 41.73 64.84 41.73Q66.11 41.73 67.2 41.29Q68.44 40.79 69.45 39.73Q70.09 39.06 70.52 38.27Q71.35 36.72 71.35 34.72Q71.35 32.88 70.6 31.42Q70.16 30.56 69.46 29.84Q68.35 28.68 67 28.21ZM86.75 28.18L83.16 28.18L83.16 28.54Q83.73 28.54 84.02 28.63Q84.59 28.82 84.89 29.03Q85.19 29.25 85.77 29.92L85.77 39.13Q85.77 40.24 85.55 40.55Q85.49 40.64 85.42 40.71Q85.06 41.06 84.35 41.06L83.89 41.06L83.89 41.42L88.5 41.42L88.5 41.06L88.03 41.06Q87.31 41.06 86.93 40.7Q86.91 40.68 86.89 40.65Q86.63 40.35 86.63 39.13L86.63 30.97L95.36 41.64L95.71 41.64L95.71 30.48Q95.71 29.36 95.92 29.05Q95.98 28.96 96.06 28.89Q96.42 28.54 97.11 28.54L97.58 28.54L97.58 28.18L92.97 28.18L92.97 28.54L93.43 28.54Q94.18 28.54 94.54 28.91Q94.56 28.93 94.57 28.95Q94.85 29.26 94.85 30.48L94.85 38.11L86.75 28.18ZM113.35 34.14L113.35 28.9L116.98 28.9Q117.96 28.9 118.36 29.05Q118.77 29.23 119.02 29.54Q119.06 29.59 119.09 29.65Q119.34 30.04 119.55 31.08L119.93 31.08L119.78 28.18L109.58 28.18L109.58 28.54L110.04 28.54Q110.87 28.54 111.22 28.93Q111.47 29.23 111.47 30.49L111.47 39.09Q111.47 40.06 111.36 40.37Q111.31 40.5 111.23 40.6Q111.12 40.74 110.93 40.84Q110.7 40.96 110.44 41.02Q110.25 41.06 110.04 41.06L109.58 41.06L109.58 41.42L119.78 41.42L120.92 38.1L120.53 38.1Q119.9 39.32 119.29 39.93Q118.82 40.39 118.32 40.54Q117.81 40.7 116.69 40.7L114.44 40.7Q113.89 40.7 113.7 40.59Q113.56 40.51 113.48 40.39Q113.45 40.34 113.42 40.29Q113.35 40.09 113.35 39.22L113.35 34.85L116.26 34.85Q117.09 34.85 117.49 35.05Q117.83 35.21 118.01 35.49Q118.04 35.53 118.06 35.58Q118.2 35.86 118.34 36.82L118.7 36.82L118.7 32.21L118.34 32.21Q118.28 33.35 117.77 33.8Q117.39 34.14 116.26 34.14L113.35 34.14ZM63.04 29Q63.81 28.59 64.81 28.59Q66.02 28.59 66.89 29.13Q67.39 29.44 67.78 29.92Q69.11 31.59 69.11 34.99Q69.11 38.12 67.9 39.58Q67.26 40.34 66.45 40.7Q65.71 41.03 64.82 41.03Q63.88 41.03 63.14 40.65Q62.5 40.32 62 39.7Q60.62 37.96 60.62 34.71Q60.62 31.55 61.96 29.91Q62.43 29.33 63.04 29Z"
      fill-opacity="1.000000" fill-rule="evenodd"></path>
    <path id="Star 8"
      d="M4.64 12.91L2.59 35.41L23.1 44.89L43.61 35.41L41.56 12.91L23.1 -0.11L4.64 12.91ZM23.1 1.11L5.6 13.46L3.65 34.8L23.1 43.78L42.55 34.8L40.61 13.46L23.1 1.11Z"
      fill-opacity="1.000000" fill-rule="evenodd"></path>
    <path id="Star 9"
      d="M8.01 14.86L6.33 33.26L23.1 41L39.88 33.26L38.2 14.86L23.1 4.2L8.01 14.86ZM23.1 5.43L8.96 15.41L7.39 32.64L23.1 39.9L38.82 32.64L37.25 15.41L23.1 5.43Z"
      fill-opacity="1.000000" fill-rule="evenodd"></path>
    <path id="Star 10"
      d="M11.32 16.77L10.01 31.13L23.1 37.18L36.19 31.13L34.89 16.77L23.1 8.45L11.32 16.77ZM23.1 9.68L12.27 17.32L11.07 30.52L23.1 36.07L35.13 30.52L33.93 17.32L23.1 9.68Z"
      fill-opacity="1.000000" fill-rule="evenodd"></path>
    <path id="Star 11"
      d="M15 18.89L14.09 28.77L23.1 32.93L32.11 28.77L31.21 18.89L23.1 13.17L15 18.89ZM23.1 14.39L15.95 19.44L15.15 28.16L23.1 31.83L31.05 28.16L30.26 19.44L23.1 14.39Z"
      fill-opacity="1.000000" fill-rule="evenodd"></path>
    <rect id="Rectangle 10" x="126.288086" y="28.322510" width="57.534142" height="2.171021" fill-opacity="1.000000">
    </rect>
    <rect id="Rectangle 11" x="126.288086" y="33.388916" width="57.534142" height="2.171021" fill-opacity="1.000000">
    </rect>
    <rect id="Rectangle 12" x="126.288086" y="38.576416" width="57.534142" height="2.171021" fill-opacity="1.000000">
    </rect>
  </symbol>
  <symbol fill="none" xmlns="http://www.w3.org/2000/svg" xmlns:xlink="http://www.w3.org/1999/xlink" viewBox="0 0 23 22"
    id="smail">
    <desc>Created with Pixso.</desc>
    <defs></defs>
    <path id="Vector"
      d="M11.19 -0.88C8.97 -0.88 6.81 -0.23 4.97 1C3.13 2.23 1.69 3.98 0.85 6.03C0 8.07 -0.22 10.32 0.21 12.49C0.64 14.66 1.71 16.66 3.27 18.22C4.84 19.79 6.83 20.85 9 21.28C11.17 21.72 13.42 21.49 15.47 20.65C17.51 19.8 19.26 18.37 20.49 16.53C21.72 14.69 22.38 12.52 22.38 10.31C22.37 7.34 21.19 4.5 19.09 2.4C17 0.3 14.15 -0.88 11.19 -0.88ZM15.06 6.86C15.32 6.86 15.57 6.94 15.78 7.08C15.99 7.22 16.16 7.43 16.25 7.66C16.35 7.9 16.38 8.16 16.33 8.41C16.28 8.66 16.15 8.89 15.97 9.07C15.79 9.25 15.56 9.37 15.31 9.42C15.06 9.47 14.8 9.45 14.57 9.35C14.33 9.25 14.13 9.09 13.99 8.87C13.84 8.66 13.77 8.41 13.77 8.16C13.77 7.81 13.91 7.49 14.15 7.24C14.39 7 14.72 6.86 15.06 6.86ZM7.31 6.86C7.57 6.86 7.82 6.94 8.03 7.08C8.24 7.22 8.41 7.43 8.51 7.66C8.6 7.9 8.63 8.16 8.58 8.41C8.53 8.66 8.41 8.89 8.23 9.07C8.04 9.25 7.81 9.37 7.56 9.42C7.31 9.47 7.05 9.45 6.82 9.35C6.58 9.25 6.38 9.09 6.24 8.87C6.1 8.66 6.02 8.41 6.02 8.16C6.02 7.81 6.16 7.49 6.4 7.24C6.64 7 6.97 6.86 7.31 6.86ZM16.41 13.32C15.88 14.24 15.12 15 14.2 15.53C13.28 16.06 12.24 16.33 11.19 16.33C10.13 16.33 9.09 16.06 8.17 15.53C7.26 15 6.5 14.24 5.97 13.32C5.9 13.22 5.85 13.11 5.83 13C5.81 12.88 5.81 12.76 5.84 12.64C5.86 12.53 5.91 12.42 5.98 12.32C6.05 12.23 6.14 12.15 6.24 12.09C6.35 12.03 6.46 11.99 6.58 11.98C6.7 11.96 6.82 11.98 6.93 12.01C7.04 12.05 7.15 12.1 7.24 12.18C7.33 12.26 7.4 12.35 7.45 12.46C7.83 13.11 8.38 13.66 9.03 14.04C9.69 14.41 10.43 14.61 11.19 14.61C11.94 14.61 12.69 14.41 13.34 14.04C14 13.66 14.54 13.11 14.92 12.46C15.04 12.28 15.23 12.16 15.44 12.11C15.65 12.06 15.87 12.1 16.06 12.2C16.25 12.31 16.39 12.49 16.45 12.7C16.52 12.9 16.5 13.13 16.41 13.32Z"
      fill="#4EAF4E" fill-opacity="1.000000" fill-rule="nonzero"></path>
  </symbol>
  <symbol fill="none" xmlns="http://www.w3.org/2000/svg" xmlns:xlink="http://www.w3.org/1999/xlink" viewBox="0 0 21 21"
    id="smallArrow">
    <desc>Created with Pixso.</desc>
    <defs></defs>
    <path id="Icon"
      d="M0 10C0 12.01 0.59 13.99 1.71 15.66C2.84 17.34 4.43 18.65 6.29 19.42C8.16 20.2 10.21 20.4 12.19 20C14.17 19.61 15.99 18.64 17.42 17.21C18.84 15.78 19.82 13.97 20.21 11.99C20.6 10.01 20.4 7.95 19.63 6.09C18.86 4.22 17.55 2.63 15.87 1.51C14.19 0.39 12.22 -0.21 10.2 -0.21C7.5 -0.21 4.9 0.87 2.99 2.78C1.08 4.7 0 7.29 0 10ZM9.55 5.88L13.48 9.42C13.56 9.49 13.62 9.58 13.67 9.68C13.71 9.78 13.73 9.89 13.73 10C13.73 10.1 13.71 10.21 13.67 10.31C13.62 10.41 13.56 10.5 13.48 10.57L9.55 14.11C9.4 14.24 9.2 14.31 8.99 14.3C8.79 14.29 8.59 14.2 8.46 14.05C8.32 13.89 8.24 13.7 8.25 13.49C8.26 13.28 8.34 13.09 8.49 12.95L11.77 10L8.49 7.04C8.41 6.97 8.35 6.89 8.3 6.79C8.26 6.7 8.23 6.6 8.23 6.49C8.22 6.39 8.24 6.29 8.27 6.19C8.31 6.09 8.36 6 8.43 5.92C8.5 5.84 8.59 5.78 8.68 5.74C8.78 5.69 8.88 5.67 8.98 5.67C9.09 5.66 9.19 5.68 9.29 5.72C9.39 5.75 9.48 5.81 9.55 5.88Z"
      fill="#181818" fill-opacity="1.000000" fill-rule="nonzero"></path>
  </symbol>
  <symbol fill="none" xmlns="http://www.w3.org/2000/svg" xmlns:xlink="http://www.w3.org/1999/xlink" viewBox="0 0 22 21"
    id="Star">
    <desc>Created with Pixso.</desc>
    <defs></defs>
    <path id="Star 12"
      d="M9.69 -0.08L7.8 5.73C7.67 6.14 7.28 6.42 6.85 6.42L0.74 6.42C-0.23 6.42 -0.63 7.66 0.15 8.23L5.09 11.82C5.45 12.08 5.59 12.53 5.46 12.94L3.57 18.75C3.27 19.67 4.33 20.44 5.11 19.87L10.05 16.28C10.4 16.02 10.88 16.02 11.23 16.28L16.17 19.87C16.95 20.44 18.01 19.67 17.71 18.75L15.82 12.94C15.69 12.53 15.83 12.08 16.18 11.82L21.13 8.23C21.91 7.66 21.51 6.42 20.54 6.42L14.43 6.42C14 6.42 13.61 6.14 13.48 5.73L11.59 -0.08C11.29 -1 9.99 -1 9.69 -0.08Z"
      fill="#FFCC4A" fill-opacity="1.000000" fill-rule="evenodd"></path>
  </symbol>
  <symbol xmlns="http://www.w3.org/2000/svg" xmlns:xlink="http://www.w3.org/1999/xlink" viewBox="0 0 206 52"
    id="studioGreen">
    <desc>Created with Pixso.</desc>
    <defs></defs>
    <path id="Studio Green"
      d="M72.52 8.51L69.57 8.51C69.46 7.36 68.56 6.69 67.09 6.69C65.58 6.69 64.75 7.38 64.75 8.32C64.73 9.37 65.79 9.83 67.05 10.12L68.36 10.43C70.89 11.01 72.71 12.29 72.72 14.71C72.71 17.38 70.62 19.07 67.07 19.07C63.54 19.07 61.29 17.45 61.21 14.3L64.19 14.3C64.29 15.76 65.44 16.49 67.04 16.49C68.6 16.49 69.61 15.77 69.62 14.71C69.61 13.73 68.73 13.27 67.14 12.89L65.56 12.49C63.1 11.9 61.59 10.67 61.59 8.53C61.58 5.88 63.92 4.12 67.11 4.12C70.34 4.12 72.48 5.91 72.52 8.51ZM185.94 4.12C189.8 4.12 192.75 6.84 192.75 11.6C192.75 16.35 189.8 19.07 185.94 19.07C182.07 19.07 179.14 16.33 179.14 11.6C179.14 6.84 182.07 4.12 185.94 4.12ZM89.98 6.86L85.52 6.86L85.52 4.32L97.47 4.32L97.47 6.86L93.02 6.86L93.02 18.87L89.98 18.87L89.98 6.86ZM119.73 13.51L119.73 4.32L122.81 4.32L122.81 13.77C122.81 16.95 120.39 19.07 116.78 19.07C113.15 19.07 110.75 16.95 110.75 13.77L110.75 4.32L113.82 4.32L113.82 13.51C113.82 15.17 114.99 16.37 116.78 16.37C118.56 16.37 119.73 15.17 119.73 13.51ZM148.9 11.58C148.9 16.13 146.22 18.87 141.79 18.87L136.63 18.87L136.63 4.32L141.83 4.32C146.22 4.32 148.9 7.05 148.9 11.58ZM162.48 4.32L165.56 4.32L165.56 18.87L162.48 18.87L162.48 4.32ZM185.94 16.35C188.17 16.35 189.64 14.68 189.64 11.6C189.64 8.51 188.17 6.84 185.94 6.84C183.71 6.84 182.25 8.51 182.25 11.6C182.25 14.68 183.71 16.35 185.94 16.35ZM139.71 6.96L139.71 16.23L141.66 16.23C144.4 16.23 145.84 14.82 145.84 11.58C145.84 8.35 144.4 6.96 141.67 6.96L139.71 6.96ZM74.45 33.02L71.33 33.02C70.94 31.66 69.87 30.84 68.28 30.84C66.06 30.84 64.54 32.56 64.54 35.58C64.54 38.62 66 40.35 68.31 40.35C70.35 40.35 71.58 39.2 71.62 37.4L68.5 37.4L68.5 35.08L74.59 35.08L74.59 36.92C74.59 40.74 71.97 43.07 68.29 43.07C64.2 43.07 61.43 40.21 61.43 35.61C61.43 30.89 64.39 28.12 68.23 28.12C71.52 28.12 74.06 30.15 74.45 33.02ZM95.07 42.87L92 42.87L92 28.32L97.73 28.32C101.04 28.32 102.95 30.18 102.95 33.07C102.95 35.06 102.03 36.51 100.37 37.21L103.47 42.87L100.07 42.87L97.31 37.71L95.07 37.71L95.07 42.87ZM130.05 42.87L120.22 42.87L120.22 28.32L130.02 28.32L130.02 30.86L123.3 30.86L123.3 34.32L129.52 34.32L129.52 36.86L123.3 36.86L123.3 40.33L130.05 40.33L130.05 42.87ZM157.4 42.87L147.57 42.87L147.57 28.32L157.37 28.32L157.37 30.86L150.65 30.86L150.65 34.32L156.87 34.32L156.87 36.86L150.65 36.86L150.65 40.33L157.4 40.33L157.4 42.87ZM184.03 28.32L187.09 28.32L187.09 42.87L184.44 42.87L178.11 33.71L178 33.71L178 42.87L174.92 42.87L174.92 28.32L177.62 28.32L183.9 37.47L184.03 37.47L184.03 28.32ZM95.07 30.84L95.07 35.24L97.16 35.24C98.92 35.24 99.78 34.51 99.78 33.07C99.78 31.62 98.92 30.84 97.14 30.84L95.07 30.84Z"
      fill-opacity="1.000000" fill-rule="evenodd"></path>
    <path id="Star 8"
      d="M25.8 -0.23L24.32 17.18L16.97 1.32L21.54 18.2L9.21 5.8L19.28 20.1L3.45 12.67L17.8 22.66L0.39 21.09L17.28 25.57L0.39 30.05L17.8 28.48L3.45 38.47L19.28 31.04L9.21 45.34L21.54 32.95L16.97 49.82L24.32 33.96L25.8 51.37L27.28 33.96L34.62 49.82L30.06 32.95L42.39 45.34L32.32 31.04L48.15 38.47L33.8 28.48L51.21 30.05L34.31 25.57L51.21 21.09L33.8 22.66L48.15 12.67L32.32 20.1L42.39 5.8L30.06 18.2L34.62 1.32L27.28 17.18L25.8 -0.23Z"
      fill-opacity="1.000000" fill-rule="evenodd"></path>
  </symbol>
  <symbol fill="none" xmlns="http://www.w3.org/2000/svg" xmlns:xlink="http://www.w3.org/1999/xlink" viewBox="0 0 104 66"
    id="TaxesEfficiency">
    <desc>Created with Pixso.</desc>
    <defs></defs>
    <circle id="Ellipse 14" cx="21.867188" cy="49.958740" r="15.557342" fill="#DADADA" fill-opacity="1.000000"></circle>
    <path id="Star 13"
      d="M76.75 1.46L75.78 4.43C75.71 4.63 75.52 4.77 75.31 4.77L72.18 4.77C71.7 4.77 71.5 5.39 71.89 5.68L74.41 7.52C74.59 7.64 74.66 7.87 74.6 8.07L73.63 11.05C73.48 11.51 74.01 11.89 74.4 11.6L76.93 9.77C77.1 9.64 77.34 9.64 77.52 9.77L80.04 11.6C80.44 11.89 80.96 11.51 80.81 11.05L79.85 8.07C79.78 7.87 79.85 7.64 80.03 7.52L82.56 5.68C82.95 5.39 82.75 4.77 82.26 4.77L79.14 4.77C78.92 4.77 78.73 4.63 78.66 4.43L77.7 1.46C77.55 1 76.9 1 76.75 1.46Z"
      fill="#141414" fill-opacity="1.000000" fill-rule="evenodd"></path>
    <path id="Polygon 1"
      d="M11.11 54.53L5.22 48.64C4.95 48.37 4.48 48.49 4.38 48.86L2.23 56.91C2.13 57.28 2.47 57.62 2.84 57.52L10.89 55.36C11.26 55.26 11.38 54.8 11.11 54.53Z"
      fill="#4EAF4E" fill-opacity="1.000000" fill-rule="evenodd"></path>
    <circle id="Ellipse 13" cx="96.820312" cy="21.403320" r="7.058524" fill="#DADADA" fill-opacity="1.000000"></circle>
    <path id="Rectangle 31"
      d="M21.68 28.37L78.17 28.37L78.17 54.44C78.17 55.55 77.28 56.44 76.17 56.44L24.68 56.44C23.02 56.44 21.68 55.1 21.68 53.44L21.68 28.37Z"
      fill="#FFCC4A" fill-opacity="1.000000" fill-rule="evenodd"></path>
    <path id="Rectangle 32"
      d="M64.78 28.93L20.67 28.93L20.67 20.47C20.67 18.26 22.47 16.47 24.67 16.47L61.78 16.47C63.44 16.47 64.78 17.81 64.78 19.47L64.78 28.93Z"
      fill="#4EAF4E" fill-opacity="1.000000" fill-rule="evenodd"></path>
    <path id="Rectangle 32"
      d="M20.67 28.93L20.67 20.47C20.67 18.26 22.47 16.47 24.67 16.47L61.78 16.47C63.44 16.47 64.78 17.81 64.78 19.47L64.78 28.93L20.67 28.93ZM22.67 26.93L22.67 20.47C22.67 19.37 23.57 18.47 24.67 18.47L61.78 18.47C62.33 18.47 62.78 18.92 62.78 19.47L62.78 26.93L22.67 26.93Z"
      fill="#141414" fill-opacity="1.000000" fill-rule="evenodd"></path>
    <path id="Vector"
      d="M75.53 17.2C76.72 17.2 77.69 18.17 77.69 19.37L77.69 54C77.69 55.2 76.72 56.16 75.53 56.16L23.58 56.16C22.39 56.16 21.42 55.2 21.42 54L21.42 19.37C21.42 18.17 22.39 17.2 23.58 17.2L75.53 17.2Z"
      stroke="#141414" stroke-opacity="1.000000" stroke-width="2.000000" stroke-linejoin="round"></path>
    <path id="Vector" d="M60.38 47.51L69.03 47.51" stroke="#141414" stroke-opacity="1.000000" stroke-width="2.000000"
      stroke-linejoin="round" stroke-linecap="round"></path>
    <path id="Vector" d="M47.39 47.51L51.72 47.51" stroke="#141414" stroke-opacity="1.000000" stroke-width="2.000000"
      stroke-linejoin="round" stroke-linecap="round"></path>
    <path id="Vector" d="M21.42 28.27L77.69 28.27" stroke="#141414" stroke-opacity="1.000000" stroke-width="2.000000"
      stroke-linejoin="round" stroke-linecap="round"></path>
  </symbol>
  <symbol xmlns="http://www.w3.org/2000/svg" xmlns:xlink="http://www.w3.org/1999/xlink" viewBox="0 0 14 15" id="time">
    <desc>Created with Pixso.</desc>
    <defs></defs>
    <path id="Icon"
      d="M6.65 13.65C2.98 13.65 0 10.67 0 7C0 3.32 2.98 0.34 6.65 0.34C10.33 0.34 13.31 3.32 13.31 7C13.31 10.67 10.33 13.65 6.65 13.65Z"
      stroke-opacity="1.000000" stroke-width="1.000000" stroke-linejoin="round"></path>
    <path id="Icon" d="M6.65 3.11L6.65 7L10.53 7" stroke-opacity="1.000000" stroke-width="1.000000"
      stroke-linejoin="round" stroke-linecap="round"></path>
  </symbol>
  <symbol xmlns="http://www.w3.org/2000/svg" xmlns:xlink="http://www.w3.org/1999/xlink" viewBox="0 0 20 16"
    id="Twitter">
    <desc>Created with Pixso.</desc>
    <defs></defs>
    <path id="Icon"
      d="M19.67 1.57C18.92 1.9 18.14 2.11 17.33 2.21C18.18 1.71 18.82 0.92 19.12 -0.01C18.32 0.46 17.44 0.79 16.53 0.96C16.15 0.56 15.68 0.24 15.17 0.02C14.66 -0.2 14.11 -0.31 13.55 -0.31C11.3 -0.31 9.47 1.49 9.47 3.7C9.47 4.01 9.51 4.32 9.58 4.62C7.96 4.54 6.38 4.13 4.93 3.41C3.48 2.68 2.2 1.67 1.17 0.42C0.81 1.03 0.62 1.73 0.61 2.44C0.61 3.83 1.34 5.06 2.44 5.78C1.79 5.76 1.15 5.59 0.58 5.28L0.58 5.33C0.58 7.27 1.99 8.89 3.86 9.26C3.5 9.35 3.14 9.4 2.78 9.4C2.52 9.4 2.27 9.38 2.01 9.33C2.53 10.92 4.04 12.08 5.83 12.11C4.37 13.23 2.59 13.84 0.76 13.83C0.43 13.83 0.11 13.81 -0.21 13.77C1.65 14.96 3.82 15.59 6.03 15.59C13.54 15.59 17.65 9.47 17.65 4.17C17.65 4 17.64 3.82 17.64 3.65C18.43 3.09 19.12 2.38 19.67 1.57Z"
      fill-opacity="1.000000" fill-rule="nonzero"></path>
  </symbol>
  <symbol id="Circle" viewBox="0 0 94 94" xmlns="http://www.w3.org/2000/svg" xmlns:xlink="http://www.w3.org/1999/xlink">
    <desc>
      Created with Pixso.
    </desc>
    <defs />
    <path id="Ellipse 9"
      d="M76.68 10.33C68.49 3.44 57.93 -0.7 46.41 -0.7C35.71 -0.7 24.95 2.91 16.14 10.33C7.94 17.2 2.02 26.88 0.03 38.22C-1.83 48.76 -0.15 59.98 5.62 69.95C10.97 79.22 19.47 86.72 30.3 90.65C40.35 94.32 51.69 94.6 62.52 90.65C72.57 87 81.44 79.93 87.19 69.95C92.55 60.69 94.8 49.57 92.79 38.22C90.93 27.69 85.51 17.72 76.68 10.33ZM19.16 13.93C26.54 7.74 36.04 4.01 46.41 4.01C56.04 4.01 65.72 7.26 73.65 13.93C81.03 20.12 86.36 28.83 88.15 39.04C89.83 48.52 88.31 58.62 83.11 67.59C78.3 75.93 70.65 82.69 60.9 86.23C51.86 89.53 41.65 89.78 31.91 86.23C22.86 82.94 14.88 76.58 9.7 67.59C4.88 59.26 2.86 49.25 4.67 39.04C6.33 29.56 11.22 20.59 19.16 13.93Z"
      fill="#F1F1F1" fill-opacity="1.000000" fill-rule="evenodd" />
    <circle id="Ellipse 11" cx="11.492188" cy="18.760498" r="8.189812" fill="#FFFFFF" fill-opacity="1.000000" />
    <circle id="Ellipse 11" cx="11.492188" cy="18.760498" r="6.189812" stroke="#4EAF4E" fill="#fff"
      stroke-opacity="1.000000" stroke-width="4.000000" />
    <path id="Ellipse 10"
      d="M48.76 -0.64C60.51 -0.06 71.14 4.83 79.08 12.49C88.22 21.28 93.03 32.89 93.47 44.65C93.95 57.32 89.36 69.01 81.52 77.79C73.08 87.25 61.65 92.49 49.92 93.36C37.27 94.32 25.41 90.17 16.35 82.66C6.58 74.57 0.92 63.35 -0.39 51.66C-1.72 39.9 1.42 28.66 7.66 19.62C8.4 18.55 9.88 18.36 10.91 19.15C11.95 19.94 12.13 21.42 11.4 22.49C5.47 31.15 3.19 41.34 4.29 51.14C5.55 62.48 11.21 72.28 19.36 79.03C28.14 86.32 39.01 89.46 49.57 88.67C60.95 87.83 70.95 82.54 78.01 74.64C85.62 66.15 89.16 55.4 88.76 44.82C88.35 33.41 83.44 23.22 75.81 15.88C68.21 8.54 58.55 4.62 48.76 4.07C47.46 4 46.41 2.95 46.41 1.65C46.41 0.35 47.46 -0.71 48.76 -0.64Z"
      fill="#4EAF4E" fill-opacity="1.000000" fill-rule="evenodd" />
  </symbol>
  <symbol id="FinanceRestructuring" viewBox="0 0 88 87" fill="none" xmlns="http://www.w3.org/2000/svg"
    xmlns:xlink="http://www.w3.org/1999/xlink">
    <desc>
      Created with Pixso.
    </desc>
    <defs />
    <circle id="Ellipse 14" cx="20.289062" cy="65.708008" r="20.896465" fill="#DADADA" fill-opacity="1.000000" />
    <path id="Star 13"
      d="M55.69 0.78L54.56 4.24C54.5 4.44 54.3 4.58 54.09 4.58L50.45 4.58C49.97 4.58 49.77 5.2 50.16 5.49L53.1 7.62C53.28 7.75 53.35 7.98 53.28 8.18L52.16 11.64C52.01 12.1 52.54 12.48 52.93 12.2L55.87 10.06C56.04 9.93 56.28 9.93 56.46 10.06L59.4 12.2C59.79 12.48 60.32 12.1 60.17 11.64L59.04 8.18C58.98 7.98 59.05 7.75 59.22 7.62L62.16 5.49C62.56 5.2 62.35 4.58 61.87 4.58L58.24 4.58C58.02 4.58 57.83 4.44 57.76 4.24L56.64 0.78C56.49 0.32 55.84 0.32 55.69 0.78Z"
      fill="#141414" fill-opacity="1.000000" fill-rule="evenodd" />
    <path id="Polygon 1"
      d="M28.58 67.95L21.24 60.61C20.97 60.33 20.51 60.46 20.41 60.83L17.72 70.86C17.62 71.23 17.96 71.57 18.33 71.47L28.36 68.78C28.73 68.68 28.86 68.22 28.58 67.95Z"
      fill="#4EAF4E" fill-opacity="1.000000" fill-rule="evenodd" />
    <circle id="Ellipse 13" cx="72.373047" cy="22.754395" r="6.029487" fill="#DADADA" fill-opacity="1.000000" />
    <path id="Vector"
      d="M62.82 33.51C74.02 34.56 82.47 39.01 82.47 44.35C82.47 50.47 71.48 55.41 57.9 55.41C51.88 55.41 46.36 54.43 42.09 52.83M62.75 34.49L62.72 34.51C62.17 34.46 61.77 33.98 61.82 33.42C61.87 32.86 62.35 32.47 62.91 32.52L62.93 32.54L62.75 34.49ZM41.76 53.75L41.74 53.77C41.21 53.57 40.96 53 41.15 52.48C41.35 51.96 41.91 51.7 42.44 51.89L42.45 51.92L41.76 53.75Z"
      fill="#4EAF4E" fill-opacity="1.000000" fill-rule="nonzero" />
    <path id="Vector"
      d="M62.82 33.51C74.02 34.56 82.47 39.01 82.47 44.35C82.47 50.47 71.48 55.41 57.9 55.41C51.88 55.41 46.36 54.43 42.09 52.83"
      stroke="#141414" stroke-opacity="1.000000" stroke-width="2.000000" stroke-linejoin="round"
      stroke-linecap="round" />
    <path id="Vector"
      d="M13.68 29.61L13.68 41.9C13.68 48.01 24.68 52.95 38.25 52.95C51.82 52.95 62.82 48.01 62.82 41.9L62.82 29.61M12.7 29.63L12.68 29.61C12.68 29.05 13.12 28.61 13.68 28.61C14.24 28.61 14.68 29.05 14.68 29.61L14.66 29.63L12.7 29.63ZM61.84 29.63L61.82 29.61C61.82 29.05 62.26 28.61 62.82 28.61C63.38 28.61 63.82 29.05 63.82 29.61L63.8 29.63L61.84 29.63Z"
      fill="#FFFFFF" fill-opacity="1.000000" fill-rule="nonzero" />
    <path id="Vector"
      d="M13.68 29.61L13.68 41.9C13.68 48.01 24.68 52.95 38.25 52.95C51.82 52.95 62.82 48.01 62.82 41.9L62.82 29.61"
      stroke="#141414" stroke-opacity="1.000000" stroke-width="2.000000" stroke-linejoin="round"
      stroke-linecap="round" />
    <path id="Vector"
      d="M38.25 40.67C51.82 40.67 62.82 35.72 62.82 29.61C62.82 23.51 51.82 18.56 38.25 18.56C24.68 18.56 13.68 23.51 13.68 29.61C13.68 35.72 24.68 40.67 38.25 40.67Z"
      fill="#FFCC4A" fill-opacity="1.000000" fill-rule="nonzero" />
    <path id="Vector"
      d="M38.25 40.67C24.68 40.67 13.68 35.72 13.68 29.61C13.68 23.51 24.68 18.56 38.25 18.56C51.82 18.56 62.82 23.51 62.82 29.61C62.82 35.72 51.82 40.67 38.25 40.67Z"
      stroke="#141414" stroke-opacity="1.000000" stroke-width="2.000000" stroke-linejoin="round" />
    <path id="Vector" d="M28.42 39.75L28.42 52.03" stroke="#141414" stroke-opacity="1.000000" stroke-width="2.000000"
      stroke-linejoin="round" stroke-linecap="round" />
    <path id="Vector"
      d="M33.34 52.74L33.34 56.64C33.34 62.75 44.33 67.69 57.9 67.69C71.48 67.69 82.47 62.75 82.47 56.64L82.47 44.35"
      stroke="#141414" stroke-opacity="1.000000" stroke-width="2.000000" stroke-linejoin="round"
      stroke-linecap="round" />
    <path id="Vector" d="M67.73 54.49L67.73 66.77" stroke="#141414" stroke-opacity="1.000000" stroke-width="2.000000"
      stroke-linejoin="round" stroke-linecap="round" />
    <path id="Vector" d="M48.08 39.75L48.08 66.77" stroke="#141414" stroke-opacity="1.000000" stroke-width="2.000000"
      stroke-linejoin="round" stroke-linecap="round" />
  </symbol>
  <symbol fill="none" xmlns="http://www.w3.org/2000/svg" xmlns:xlink="http://www.w3.org/1999/xlink"
    viewBox="0 0 21.6865 21.6865" id="success">
    <desc>Created with Pixso.</desc>
    <defs></defs>
    <path id="Vector" d="M15.35 8.38L9.33 14.12L6.33 11.25" stroke="#4EAF4E" stroke-opacity="1.000000"
      stroke-width="2.000000" stroke-linejoin="round" stroke-linecap="round"></path>
    <path id="Vector"
      d="M10.84 20.68C5.4 20.68 1 16.27 1 10.84C1 5.4 5.4 1 10.84 1C16.27 1 20.68 5.4 20.68 10.84C20.68 16.27 16.27 20.68 10.84 20.68Z"
      stroke="#4EAF4E" stroke-opacity="1.000000" stroke-width="2.000000" stroke-linejoin="round"></path>
  </symbol>
  <symbol id="banking" viewBox="0 0 30 26" xmlns="http://www.w3.org/2000/svg"
    xmlns:xlink="http://www.w3.org/1999/xlink">
    <desc>
      Created with Pixso.
    </desc>
    <defs />
    <path id="Vector"
      d="M27.6 4.72L3.6 4.72C3.28 4.72 2.97 4.6 2.75 4.38C2.52 4.15 2.39 3.85 2.39 3.54C2.39 3.23 2.52 2.93 2.75 2.7C2.97 2.48 3.28 2.36 3.6 2.36L24 2.36C24.31 2.36 24.62 2.23 24.84 2.01C25.07 1.79 25.2 1.49 25.2 1.18C25.2 0.86 25.07 0.56 24.84 0.34C24.62 0.12 24.31 0 24 0L3.6 0C2.64 0 1.73 0.37 1.05 1.04C0.38 1.7 0 2.6 0 3.54L0 22.45C0 23.39 0.38 24.29 1.05 24.95C1.73 25.62 2.64 25.99 3.6 26L27.6 26C28.23 26 28.84 25.75 29.29 25.3C29.74 24.86 30 24.26 30 23.63L30 7.09C30 6.46 29.74 5.86 29.29 5.41C28.84 4.97 28.23 4.72 27.6 4.72ZM22.2 17.13C21.84 17.13 21.49 17.03 21.2 16.83C20.9 16.64 20.67 16.36 20.53 16.04C20.4 15.71 20.36 15.36 20.43 15.01C20.5 14.67 20.67 14.35 20.92 14.11C21.17 13.86 21.49 13.69 21.84 13.62C22.19 13.55 22.56 13.59 22.88 13.72C23.21 13.86 23.49 14.08 23.69 14.37C23.89 14.67 24 15.01 24 15.36C24 15.83 23.81 16.28 23.47 16.61C23.13 16.94 22.67 17.13 22.2 17.13Z"
      fill-opacity="1.000000" fill-rule="nonzero" />
  </symbol>
  <symbol id="logistic" viewBox="0 0 32 30" fill="none" xmlns="http://www.w3.org/2000/svg"
    xmlns:xlink="http://www.w3.org/1999/xlink">
    <desc>
      Created with Pixso.
    </desc>
    <defs />
    <path id="Vector"
      d="M31.63 11.67C31.6 11.52 31.53 11.37 31.43 11.24C31.33 11.11 31.2 11.01 31.06 10.93L27.66 9.08C27.48 8.72 27.28 8.37 27.06 8.03L27.12 4.22C27.12 4.06 27.09 3.9 27.02 3.76C26.96 3.61 26.87 3.48 26.75 3.37C25.06 1.86 23.05 0.73 20.88 0.05C20.72 0 20.56 -0.02 20.39 0C20.23 0.02 20.08 0.08 19.94 0.16L16.61 2.12C16.19 2.11 15.8 2.11 15.38 2.12L12.05 0.16C11.91 0.08 11.76 0.02 11.6 0C11.43 -0.02 11.27 0 11.11 0.05C8.93 0.73 6.93 1.87 5.24 3.38C5.12 3.49 5.03 3.62 4.96 3.76C4.9 3.91 4.87 4.06 4.87 4.22L4.94 8.03C4.71 8.37 4.51 8.72 4.31 9.08L0.93 10.93C0.78 11 0.66 11.11 0.56 11.24C0.46 11.37 0.39 11.52 0.36 11.67C-0.13 13.86 -0.13 16.12 0.36 18.31C0.39 18.47 0.46 18.62 0.56 18.74C0.66 18.87 0.79 18.98 0.93 19.05L4.33 20.9C4.51 21.27 4.72 21.62 4.94 21.95L4.87 25.76C4.87 25.92 4.9 26.08 4.97 26.23C5.03 26.38 5.12 26.51 5.24 26.62C6.94 28.12 8.94 29.25 11.11 29.94C11.27 29.99 11.43 30 11.6 29.98C11.76 29.96 11.91 29.91 12.05 29.83L15.38 27.87L16.61 27.87L19.95 29.83C20.12 29.94 20.33 30 20.54 30C20.65 29.99 20.77 29.97 20.88 29.94C23.06 29.26 25.06 28.12 26.75 26.61C26.87 26.5 26.96 26.37 27.03 26.22C27.09 26.08 27.12 25.92 27.12 25.76L27.06 21.95C27.28 21.62 27.48 21.27 27.68 20.9L31.07 19.05C31.22 18.98 31.34 18.87 31.43 18.74C31.53 18.62 31.6 18.47 31.63 18.31C32.12 16.12 32.12 13.86 31.63 11.67ZM22.28 14.99C22.28 16.21 21.91 17.4 21.22 18.42C20.53 19.43 19.55 20.22 18.4 20.69C17.25 21.15 15.99 21.28 14.77 21.04C13.55 20.8 12.43 20.21 11.55 19.35C10.67 18.49 10.08 17.39 9.83 16.2C9.59 15 9.71 13.76 10.19 12.63C10.67 11.51 11.47 10.55 12.5 9.87C13.54 9.19 14.75 8.83 16 8.83C17.66 8.83 19.26 9.48 20.44 10.63C21.62 11.79 22.28 13.36 22.28 14.99Z"
      fill="#181818" fill-opacity="1.000000" fill-rule="nonzero" />
  </symbol>
  <symbol id="trading" viewBox="0 0 30 20" fill="none" xmlns="http://www.w3.org/2000/svg"
    xmlns:xlink="http://www.w3.org/1999/xlink">
    <desc>
      Created with Pixso.
    </desc>
    <defs />
    <path id="Vector"
      d="M30 1.11L30 10C30 10.21 29.93 10.43 29.82 10.61C29.7 10.79 29.53 10.94 29.34 11.02C29.21 11.08 29.07 11.11 28.92 11.11C28.64 11.1 28.37 10.99 28.16 10.79L24.64 7.12L16.83 15.23C16.63 15.44 16.35 15.56 16.07 15.56C15.78 15.56 15.51 15.44 15.31 15.23L10.71 10.45L1.84 19.68C1.63 19.88 1.36 19.99 1.07 20C0.79 19.99 0.52 19.88 0.31 19.68C0.11 19.46 0 19.18 0 18.88C0 18.59 0.11 18.3 0.31 18.09L9.95 8.09C10.15 7.88 10.43 7.77 10.71 7.77C11 7.77 11.27 7.88 11.48 8.09L16.07 12.87L23.13 5.55L19.59 1.9C19.45 1.74 19.35 1.54 19.31 1.32C19.27 1.1 19.29 0.88 19.36 0.68C19.45 0.47 19.58 0.3 19.76 0.18C19.94 0.06 20.14 0 20.35 0L28.92 0C29.21 0 29.48 0.11 29.68 0.32C29.88 0.53 30 0.81 30 1.11Z"
      fill="#181818" fill-opacity="1.000000" fill-rule="nonzero" />
  </symbol>
  <symbol id="Balance" viewBox="0 0 34 26" xmlns="http://www.w3.org/2000/svg"
    xmlns:xlink="http://www.w3.org/1999/xlink">
    <desc>
      Created with Pixso.
    </desc>
    <defs />
    <path id="Vector"
      d="M32.69 0L1.3 0C0.96 0 0.62 0.13 0.38 0.38C0.13 0.62 0 0.95 0 1.3L0 23.39C0 24.08 0.27 24.75 0.76 25.23C1.25 25.72 1.92 26 2.61 26L31.38 26C32.07 26 32.74 25.72 33.23 25.23C33.72 24.75 34 24.08 34 23.39L34 1.3C34 0.95 33.86 0.62 33.61 0.38C33.37 0.13 33.03 0 32.69 0ZM2.61 10.39L9.15 10.39L9.15 15.6L2.61 15.6L2.61 10.39ZM11.76 10.39L31.38 10.39L31.38 15.6L11.76 15.6L11.76 10.39ZM2.61 18.2L9.15 18.2L9.15 23.39L2.61 23.39L2.61 18.2ZM31.38 23.39L11.76 23.39L11.76 18.2L31.38 18.2L31.38 23.39Z"
      fill-opacity="1.000000" fill-rule="nonzero" />
  </symbol>
  <symbol id="FinancialPlan" viewBox="0 0 36 30" xmlns="http://www.w3.org/2000/svg"
    xmlns:xlink="http://www.w3.org/1999/xlink">
    <desc>
      Created with Pixso.
    </desc>
    <defs />
    <path id="Vector"
      d="M36 28.75C36 29.08 35.87 29.39 35.64 29.63C35.42 29.86 35.11 30 34.79 30L1.2 30C0.88 30 0.57 29.86 0.35 29.63C0.12 29.39 0 29.08 0 28.75C0 28.41 0.12 28.1 0.35 27.86C0.57 27.63 0.88 27.5 1.2 27.5L34.79 27.5C35.11 27.5 35.42 27.63 35.64 27.86C35.87 28.1 36 28.41 36 28.75ZM1.24 11.59C1.17 11.33 1.18 11.05 1.28 10.79C1.37 10.54 1.54 10.33 1.77 10.18L17.37 0.18C17.55 0.06 17.77 0 18 0C18.22 0 18.44 0.06 18.62 0.18L34.23 10.18C34.45 10.33 34.62 10.54 34.71 10.79C34.81 11.05 34.82 11.33 34.75 11.59C34.68 11.85 34.53 12.08 34.32 12.24C34.11 12.41 33.86 12.5 33.6 12.5L30 12.5L30 22.5L32.39 22.5C32.71 22.5 33.02 22.63 33.24 22.86C33.47 23.1 33.6 23.41 33.6 23.75C33.6 24.08 33.47 24.39 33.24 24.63C33.02 24.86 32.71 25 32.39 25L3.6 25C3.28 25 2.97 24.86 2.75 24.63C2.52 24.39 2.39 24.08 2.39 23.75C2.39 23.41 2.52 23.1 2.75 22.86C2.97 22.63 3.28 22.5 3.6 22.5L6 22.5L6 12.5L2.39 12.5C2.13 12.5 1.88 12.41 1.67 12.24C1.46 12.08 1.31 11.85 1.24 11.59ZM20.39 21.25C20.39 21.58 20.52 21.89 20.75 22.13C20.97 22.36 21.28 22.5 21.6 22.5C21.91 22.5 22.22 22.36 22.44 22.13C22.67 21.89 22.79 21.58 22.79 21.25L22.79 13.75C22.79 13.41 22.67 13.1 22.44 12.86C22.22 12.63 21.91 12.5 21.6 12.5C21.28 12.5 20.97 12.63 20.75 12.86C20.52 13.1 20.39 13.41 20.39 13.75L20.39 21.25ZM13.2 21.25C13.2 21.58 13.32 21.89 13.55 22.13C13.77 22.36 14.08 22.5 14.39 22.5C14.71 22.5 15.02 22.36 15.24 22.13C15.47 21.89 15.6 21.58 15.6 21.25L15.6 13.75C15.6 13.41 15.47 13.1 15.24 12.86C15.02 12.63 14.71 12.5 14.39 12.5C14.08 12.5 13.77 12.63 13.55 12.86C13.32 13.1 13.2 13.41 13.2 13.75L13.2 21.25Z"
      fill-opacity="1.000000" fill-rule="nonzero" />
  </symbol>
  <symbol id="FinancialRatios" viewBox="0 0 38 38" xmlns="http://www.w3.org/2000/svg"
    xmlns:xlink="http://www.w3.org/1999/xlink">
    <desc>
      Created with Pixso.
    </desc>
    <defs />
    <path id="Icon"
      d="M19 0C15.24 0 11.56 1.11 8.44 3.2C5.31 5.28 2.88 8.25 1.44 11.72C0 15.2 -0.37 19.02 0.36 22.7C1.09 26.39 2.9 29.77 5.56 32.43C8.22 35.09 11.6 36.9 15.29 37.63C18.97 38.36 22.79 37.99 26.27 36.55C29.74 35.11 32.71 32.68 34.79 29.55C36.88 26.43 38 22.75 38 19C37.99 13.96 35.98 9.13 32.42 5.57C28.86 2.01 24.03 0 19 0ZM21.19 27.76L20.46 27.76L20.46 29.23C20.46 29.61 20.3 29.99 20.03 30.26C19.75 30.53 19.38 30.69 19 30.69C18.61 30.69 18.24 30.53 17.96 30.26C17.69 29.99 17.53 29.61 17.53 29.23L17.53 27.76L14.61 27.76C14.22 27.76 13.85 27.61 13.58 27.34C13.3 27.06 13.15 26.69 13.15 26.3C13.15 25.92 13.3 25.54 13.58 25.27C13.85 25 14.22 24.84 14.61 24.84L21.19 24.84C21.77 24.84 22.33 24.61 22.74 24.2C23.15 23.79 23.38 23.23 23.38 22.65C23.38 22.07 23.15 21.51 22.74 21.1C22.33 20.69 21.77 20.46 21.19 20.46L16.8 20.46C15.45 20.46 14.14 19.92 13.19 18.96C12.23 18 11.69 16.7 11.69 15.34C11.69 13.98 12.23 12.68 13.19 11.72C14.14 10.76 15.45 10.23 16.8 10.23L17.53 10.23L17.53 8.76C17.53 8.38 17.69 8 17.96 7.73C18.24 7.46 18.61 7.3 19 7.3C19.38 7.3 19.75 7.46 20.03 7.73C20.3 8 20.46 8.38 20.46 8.76L20.46 10.23L23.38 10.23C23.77 10.23 24.14 10.38 24.41 10.65C24.69 10.93 24.84 11.3 24.84 11.69C24.84 12.07 24.69 12.45 24.41 12.72C24.14 12.99 23.77 13.15 23.38 13.15L16.8 13.15C16.22 13.15 15.66 13.38 15.25 13.79C14.84 14.2 14.61 14.76 14.61 15.34C14.61 15.92 14.84 16.48 15.25 16.89C15.66 17.3 16.22 17.53 16.8 17.53L21.19 17.53C22.54 17.53 23.85 18.07 24.8 19.03C25.76 19.99 26.3 21.29 26.3 22.65C26.3 24.01 25.76 25.31 24.8 26.27C23.85 27.23 22.54 27.76 21.19 27.76Z"
      fill-opacity="1.000000" fill-rule="nonzero" />
  </symbol>
  <symbol id="profileFacebook" viewBox="0 0 29.24 29.0698" fill="none" xmlns="http://www.w3.org/2000/svg"
    xmlns:xlink="http://www.w3.org/1999/xlink">
    <desc>
      Created with Pixso.
    </desc>
    <defs />
    <path id="Icon"
      d="M29.24 14.62C29.24 6.54 22.68 0 14.62 0C6.54 0 0 6.54 0 14.62C0 21.91 5.34 27.97 12.34 29.06L12.34 18.85L8.63 18.85L8.63 14.62L12.34 14.62L12.34 11.39C12.34 7.74 14.52 5.7 17.86 5.7C19.45 5.7 21.13 6 21.13 6L21.13 9.6L19.29 9.6C17.46 9.6 16.91 10.73 16.91 11.87L16.91 14.62L20.97 14.62L20.31 18.85L16.91 18.85L16.91 29.06C23.89 27.97 29.24 21.91 29.24 14.62Z"
      fill="#000000" fill-opacity="1.000000" fill-rule="nonzero" />
  </symbol>
  <symbol id="profileInstagram" viewBox="0 0 29.24 29.2402" fill="none" xmlns="http://www.w3.org/2000/svg"
    xmlns:xlink="http://www.w3.org/1999/xlink">
    <desc>
      Created with Pixso.
    </desc>
    <defs />
    <path id="Icon"
      d="M29.24 14.62C29.24 22.69 22.69 29.24 14.62 29.24C6.54 29.24 0 22.69 0 14.62C0 6.54 6.54 0 14.62 0C22.69 0 29.24 6.54 29.24 14.62Z"
      fill="#000000" fill-opacity="1.000000" fill-rule="evenodd" />
    <path id="Icon"
      d="M19.15 9.08C18.59 9.08 18.15 9.54 18.15 10.09C18.15 10.65 18.6 11.1 19.15 11.1C19.71 11.1 20.16 10.65 20.16 10.09C20.16 9.54 19.71 9.08 19.15 9.08Z"
      fill="#FFFFFF" fill-opacity="1.000000" fill-rule="nonzero" />
    <path id="Icon"
      d="M14.68 10.37C12.35 10.37 10.46 12.27 10.46 14.6C10.46 16.92 12.35 18.81 14.68 18.81C17.01 18.81 18.9 16.92 18.9 14.6C18.9 12.27 17 10.37 14.68 10.37ZM14.68 17.31C13.19 17.31 11.98 16.1 11.98 14.6C11.98 13.12 13.19 11.9 14.68 11.9C16.17 11.9 17.38 13.12 17.38 14.6C17.38 16.1 16.17 17.31 14.68 17.31Z"
      fill="#FFFFFF" fill-opacity="1.000000" fill-rule="nonzero" />
    <path id="Icon"
      d="M18.04 23.17L11.19 23.17C8.34 23.17 6.04 20.86 6.04 18.02L6.04 11.18C6.04 8.34 8.34 6.03 11.19 6.03L18.03 6.03C20.87 6.03 23.18 8.34 23.18 11.18L23.18 18.02C23.19 20.86 20.88 23.17 18.04 23.17ZM11.19 7.64C9.23 7.64 7.65 9.23 7.65 11.18L7.65 18.02C7.65 19.97 9.23 21.56 11.19 21.56L18.03 21.56C19.98 21.56 21.57 19.97 21.57 18.02L21.57 11.18C21.57 9.23 19.98 7.64 18.03 7.64L11.19 7.64Z"
      fill="#FFFFFF" fill-opacity="1.000000" fill-rule="nonzero" />
  </symbol>
  <symbol id="profileTwitter" viewBox="0 0 29.24 29.2402" fill="none" xmlns="http://www.w3.org/2000/svg"
    xmlns:xlink="http://www.w3.org/1999/xlink">
    <desc>
      Created with Pixso.
    </desc>
    <defs />
    <path id="Icon"
      d="M29.24 14.62C29.24 22.69 22.69 29.24 14.62 29.24C6.54 29.24 0 22.69 0 14.62C0 6.54 6.54 0 14.62 0C22.69 0 29.24 6.54 29.24 14.62Z"
      fill="#000000" fill-opacity="1.000000" fill-rule="evenodd" />
    <path id="Icon"
      d="M22.69 9.6C22.18 9.84 21.62 9.97 21.08 10.07C21.34 10.03 21.72 9.56 21.87 9.37C22.1 9.08 22.3 8.75 22.41 8.39C22.42 8.36 22.43 8.33 22.41 8.31C22.37 8.3 22.35 8.3 22.32 8.32C21.71 8.64 21.08 8.87 20.41 9.05C20.35 9.06 20.31 9.05 20.28 9.02C20.22 8.95 20.17 8.89 20.11 8.85C19.83 8.6 19.53 8.41 19.18 8.28C18.73 8.1 18.24 8.02 17.76 8.05C17.29 8.08 16.83 8.2 16.41 8.43C15.99 8.64 15.62 8.95 15.32 9.32C15.01 9.7 14.79 10.14 14.67 10.62C14.56 11.08 14.57 11.53 14.64 11.99C14.65 12.07 14.64 12.08 14.57 12.07C11.94 11.68 9.77 10.74 8 8.72C7.92 8.64 7.88 8.64 7.82 8.74C7.05 9.89 7.42 11.76 8.39 12.68C8.52 12.8 8.65 12.91 8.79 13.04C8.74 13.05 8.1 12.98 7.52 12.68C7.44 12.62 7.4 12.66 7.4 12.75C7.39 12.87 7.4 12.99 7.42 13.12C7.57 14.3 8.38 15.39 9.5 15.82C9.63 15.87 9.78 15.91 9.92 15.95C9.67 16.01 9.4 16.05 8.68 15.99C8.59 15.97 8.55 16.02 8.59 16.1C9.14 17.59 10.32 18.04 11.2 18.29C11.32 18.31 11.44 18.31 11.56 18.34C11.55 18.35 11.55 18.35 11.54 18.35C11.25 18.81 10.23 19.14 9.76 19.31C8.9 19.6 7.96 19.75 7.05 19.66C6.9 19.64 6.87 19.64 6.83 19.66C6.79 19.68 6.82 19.72 6.87 19.76C7.05 19.87 7.24 19.99 7.43 20.09C8.01 20.39 8.61 20.64 9.24 20.81C12.5 21.71 16.16 21.05 18.61 18.62C20.53 16.7 21.2 14.08 21.2 11.45C21.2 11.35 21.32 11.29 21.39 11.24C21.89 10.85 22.29 10.41 22.66 9.91C22.74 9.8 22.74 9.7 22.74 9.66C22.74 9.64 22.74 9.64 22.74 9.64C22.76 9.57 22.76 9.58 22.69 9.6Z"
      fill="#FFFFFF" fill-opacity="1.000000" fill-rule="nonzero" />
  </symbol>
  <symbol id="profileLinkedIn" viewBox="0 0 29.24 29.2402" fill="none" xmlns="http://www.w3.org/2000/svg"
    xmlns:xlink="http://www.w3.org/1999/xlink">
    <desc>
      Created with Pixso.
    </desc>
    <defs />
    <path id="Icon"
      d="M29.24 14.62C29.24 22.69 22.69 29.24 14.62 29.24C6.54 29.24 0 22.69 0 14.62C0 6.54 6.54 0 14.62 0C22.69 0 29.24 6.54 29.24 14.62Z"
      fill="#000000" fill-opacity="1.000000" fill-rule="evenodd" />
    <path id="Icon"
      d="M8.49 11.89L11.32 11.89L11.32 21L8.49 21L8.49 11.89ZM9.9 7.37C10.81 7.37 11.54 8.1 11.54 9.02C11.54 9.91 10.81 10.65 9.9 10.65C8.99 10.65 8.26 9.91 8.26 9.02C8.26 8.1 9 7.37 9.9 7.37Z"
      fill="#FFFFFF" fill-opacity="1.000000" fill-rule="nonzero" />
    <path id="Icon"
      d="M13.09 11.89L15.8 11.89L15.8 13.14L15.84 13.14C16.22 12.41 17.14 11.66 18.52 11.66C21.38 11.66 21.91 13.54 21.91 16L21.91 20.98L19.08 20.98L19.08 16.56C19.08 15.5 19.06 14.16 17.61 14.16C16.14 14.16 15.91 15.31 15.91 16.5L15.91 21L13.08 21L13.08 11.89L13.09 11.89Z"
      fill="#FFFFFF" fill-opacity="1.000000" fill-rule="nonzero" />
  </symbol>
  <symbol id="Branching" viewBox="0 0 53 53" fill="none" xmlns="http://www.w3.org/2000/svg"
    xmlns:xlink="http://www.w3.org/1999/xlink">
    <desc>
      Created with Pixso.
    </desc>
    <defs />
    <circle id="Background" cx="26.280273" cy="25.994873" r="26.388947" fill="#181818" fill-opacity="1.000000" />
    <path id="Pattern"
      d="M26.25 38.44C19.37 38.44 13.79 32.86 13.79 25.98C13.79 19.1 19.37 13.52 26.25 13.52C33.13 13.52 38.71 19.1 38.71 25.98C38.71 32.86 33.13 38.44 26.25 38.44Z"
      stroke="#FFFFFF" stroke-opacity="1.000000" stroke-width="2.000000" stroke-linejoin="round" />
    <path id="Pattern"
      d="M16.07 33.17L17.59 32.25C17.74 32.16 17.86 32.03 17.95 31.87C18.04 31.72 18.08 31.55 18.08 31.37L18.11 26.68C18.11 26.49 18.17 26.3 18.28 26.14L20.85 22.1C20.92 21.98 21.02 21.88 21.14 21.8C21.26 21.72 21.39 21.67 21.53 21.64C21.67 21.61 21.82 21.62 21.95 21.65C22.09 21.68 22.22 21.73 22.34 21.82L24.88 23.66C25.1 23.81 25.37 23.88 25.64 23.85L29.72 23.3C29.97 23.26 30.2 23.14 30.36 22.95L33.24 19.62C33.41 19.42 33.5 19.16 33.49 18.9L33.34 15.74"
      stroke="#FFFFFF" stroke-opacity="1.000000" stroke-width="2.000000" stroke-linejoin="round"
      stroke-linecap="round" />
    <path id="Pattern"
      d="M33.92 35.81L32.51 34.41C32.38 34.28 32.22 34.18 32.05 34.13L29.26 33.41C29.01 33.34 28.8 33.18 28.66 32.97C28.52 32.76 28.47 32.5 28.5 32.25L28.8 30.15C28.83 29.97 28.91 29.81 29.02 29.67C29.13 29.52 29.27 29.41 29.44 29.34L33.38 27.7C33.57 27.62 33.77 27.6 33.96 27.63C34.16 27.67 34.34 27.76 34.49 27.89L37.72 30.85"
      stroke="#FFFFFF" stroke-opacity="1.000000" stroke-width="2.000000" stroke-linejoin="round"
      stroke-linecap="round" />
  </symbol>
  <symbol id="model" viewBox="0 0 84.1797 48.9258" fill="none" xmlns="http://www.w3.org/2000/svg"
    xmlns:xlink="http://www.w3.org/1999/xlink">
    <desc>
      Created with Pixso.
    </desc>
    <defs />
    <path id=""
      d="M84.17 0C82.94 5.27 81.67 10.8 80.37 16.6C79.13 22.39 77.99 28.09 76.95 33.69C75.91 39.22 75.03 44.3 74.31 48.92L46.97 48.92L45.6 46.77C46.77 42.02 48.27 36.97 50.09 31.64C51.98 26.23 54 20.83 56.15 15.42C58.36 9.96 60.57 4.81 62.79 0L84.17 0ZM38.57 0C37.33 5.27 36.06 10.8 34.76 16.6C33.52 22.39 32.38 28.09 31.34 33.69C30.3 39.22 29.42 44.3 28.71 48.92L1.36 48.92L0 46.77C1.17 42.02 2.66 36.97 4.49 31.64C6.38 26.23 8.39 20.83 10.54 15.42C12.76 9.96 14.97 4.81 17.18 0L38.57 0Z"
      fill="#FFCC4A" fill-opacity="1.000000" fill-rule="nonzero" />
  </symbol>
  <symbol id="mail" viewBox="0 0 19.0039 15.0022" xmlns="http://www.w3.org/2000/svg"
    xmlns:xlink="http://www.w3.org/1999/xlink">
    <desc>
      Created with Pixso.
    </desc>
    <defs />
    <path id="Vector"
      d="M18.5 0.5L18.5 13.72C18.5 13.93 18.42 14.12 18.28 14.27C18.14 14.42 17.95 14.5 17.75 14.5L1.25 14.5C1.05 14.5 0.86 14.42 0.72 14.27C0.58 14.12 0.5 13.93 0.5 13.72L0.5 0.5L18.5 0.5Z"
      stroke="#FFFFFF" stroke-opacity="1.000000" stroke-width="1.000000" stroke-linejoin="round" />
    <path id="Vector" d="M18.5 0.5L9.5 8.5L0.5 0.5" stroke="#FFFFFF" stroke-opacity="1.000000" stroke-width="1.000000"
      stroke-linejoin="round" stroke-linecap="round" />
  </symbol>


</svg>