<svg width="22.000000" height="21.000000" viewBox="0 0 22 21" fill="none" xmlns="http://www.w3.org/2000/svg" xmlns:xlink="http://www.w3.org/1999/xlink">
	<desc>
			Created with Pixso.
	</desc>
	<defs/>
	<path id="Star 12" d="M9.69 -0.08L7.8 5.73C7.67 6.14 7.28 6.42 6.85 6.42L0.74 6.42C-0.23 6.42 -0.63 7.66 0.15 8.23L5.09 11.82C5.45 12.08 5.59 12.53 5.46 12.94L3.57 18.75C3.27 19.67 4.33 20.44 5.11 19.87L10.05 16.28C10.4 16.02 10.88 16.02 11.23 16.28L16.17 19.87C16.95 20.44 18.01 19.67 17.71 18.75L15.82 12.94C15.69 12.53 15.83 12.08 16.18 11.82L21.13 8.23C21.91 7.66 21.51 6.42 20.54 6.42L14.43 6.42C14 6.42 13.61 6.14 13.48 5.73L11.59 -0.08C11.29 -1 9.99 -1 9.69 -0.08Z" fill="#FFCC4A" fill-opacity="1.000000" fill-rule="evenodd"/>
</svg>
