<svg width="206.000000" height="52.000000" viewBox="0 0 206 52" fill="none" xmlns="http://www.w3.org/2000/svg" xmlns:xlink="http://www.w3.org/1999/xlink">
	<desc>
			Created with Pixso.
	</desc>
	<defs/>
	<path id="Studio Green" d="M72.52 8.51L69.57 8.51C69.46 7.36 68.56 6.69 67.09 6.69C65.58 6.69 64.75 7.38 64.75 8.32C64.73 9.37 65.79 9.83 67.05 10.12L68.36 10.43C70.89 11.01 72.71 12.29 72.72 14.71C72.71 17.38 70.62 19.07 67.07 19.07C63.54 19.07 61.29 17.45 61.21 14.3L64.19 14.3C64.29 15.76 65.44 16.49 67.04 16.49C68.6 16.49 69.61 15.77 69.62 14.71C69.61 13.73 68.73 13.27 67.14 12.89L65.56 12.49C63.1 11.9 61.59 10.67 61.59 8.53C61.58 5.88 63.92 4.12 67.11 4.12C70.34 4.12 72.48 5.91 72.52 8.51ZM185.94 4.12C189.8 4.12 192.75 6.84 192.75 11.6C192.75 16.35 189.8 19.07 185.94 19.07C182.07 19.07 179.14 16.33 179.14 11.6C179.14 6.84 182.07 4.12 185.94 4.12ZM89.98 6.86L85.52 6.86L85.52 4.32L97.47 4.32L97.47 6.86L93.02 6.86L93.02 18.87L89.98 18.87L89.98 6.86ZM119.73 13.51L119.73 4.32L122.81 4.32L122.81 13.77C122.81 16.95 120.39 19.07 116.78 19.07C113.15 19.07 110.75 16.95 110.75 13.77L110.75 4.32L113.82 4.32L113.82 13.51C113.82 15.17 114.99 16.37 116.78 16.37C118.56 16.37 119.73 15.17 119.73 13.51ZM148.9 11.58C148.9 16.13 146.22 18.87 141.79 18.87L136.63 18.87L136.63 4.32L141.83 4.32C146.22 4.32 148.9 7.05 148.9 11.58ZM162.48 4.32L165.56 4.32L165.56 18.87L162.48 18.87L162.48 4.32ZM185.94 16.35C188.17 16.35 189.64 14.68 189.64 11.6C189.64 8.51 188.17 6.84 185.94 6.84C183.71 6.84 182.25 8.51 182.25 11.6C182.25 14.68 183.71 16.35 185.94 16.35ZM139.71 6.96L139.71 16.23L141.66 16.23C144.4 16.23 145.84 14.82 145.84 11.58C145.84 8.35 144.4 6.96 141.67 6.96L139.71 6.96ZM74.45 33.02L71.33 33.02C70.94 31.66 69.87 30.84 68.28 30.84C66.06 30.84 64.54 32.56 64.54 35.58C64.54 38.62 66 40.35 68.31 40.35C70.35 40.35 71.58 39.2 71.62 37.4L68.5 37.4L68.5 35.08L74.59 35.08L74.59 36.92C74.59 40.74 71.97 43.07 68.29 43.07C64.2 43.07 61.43 40.21 61.43 35.61C61.43 30.89 64.39 28.12 68.23 28.12C71.52 28.12 74.06 30.15 74.45 33.02ZM95.07 42.87L92 42.87L92 28.32L97.73 28.32C101.04 28.32 102.95 30.18 102.95 33.07C102.95 35.06 102.03 36.51 100.37 37.21L103.47 42.87L100.07 42.87L97.31 37.71L95.07 37.71L95.07 42.87ZM130.05 42.87L120.22 42.87L120.22 28.32L130.02 28.32L130.02 30.86L123.3 30.86L123.3 34.32L129.52 34.32L129.52 36.86L123.3 36.86L123.3 40.33L130.05 40.33L130.05 42.87ZM157.4 42.87L147.57 42.87L147.57 28.32L157.37 28.32L157.37 30.86L150.65 30.86L150.65 34.32L156.87 34.32L156.87 36.86L150.65 36.86L150.65 40.33L157.4 40.33L157.4 42.87ZM184.03 28.32L187.09 28.32L187.09 42.87L184.44 42.87L178.11 33.71L178 33.71L178 42.87L174.92 42.87L174.92 28.32L177.62 28.32L183.9 37.47L184.03 37.47L184.03 28.32ZM95.07 30.84L95.07 35.24L97.16 35.24C98.92 35.24 99.78 34.51 99.78 33.07C99.78 31.62 98.92 30.84 97.14 30.84L95.07 30.84Z" fill="#030211" fill-opacity="1.000000" fill-rule="evenodd"/>
	<path id="Star 8" d="M25.8 -0.23L24.32 17.18L16.97 1.32L21.54 18.2L9.21 5.8L19.28 20.1L3.45 12.67L17.8 22.66L0.39 21.09L17.28 25.57L0.39 30.05L17.8 28.48L3.45 38.47L19.28 31.04L9.21 45.34L21.54 32.95L16.97 49.82L24.32 33.96L25.8 51.37L27.28 33.96L34.62 49.82L30.06 32.95L42.39 45.34L32.32 31.04L48.15 38.47L33.8 28.48L51.21 30.05L34.31 25.57L51.21 21.09L33.8 22.66L48.15 12.67L32.32 20.1L42.39 5.8L30.06 18.2L34.62 1.32L27.28 17.18L25.8 -0.23Z" fill="#030211" fill-opacity="1.000000" fill-rule="evenodd"/>
</svg>
