<svg width="104.000000" height="66.000000" viewBox="0 0 104 66" fill="none" xmlns="http://www.w3.org/2000/svg" xmlns:xlink="http://www.w3.org/1999/xlink">
	<desc>
			Created with Pixso.
	</desc>
	<defs/>
	<circle id="Ellipse 14" cx="21.867188" cy="49.958740" r="15.557342" fill="#DADADA" fill-opacity="1.000000"/>
	<path id="Star 13" d="M76.75 1.46L75.78 4.43C75.71 4.63 75.52 4.77 75.31 4.77L72.18 4.77C71.7 4.77 71.5 5.39 71.89 5.68L74.41 7.52C74.59 7.64 74.66 7.87 74.6 8.07L73.63 11.05C73.48 11.51 74.01 11.89 74.4 11.6L76.93 9.77C77.1 9.64 77.34 9.64 77.52 9.77L80.04 11.6C80.44 11.89 80.96 11.51 80.81 11.05L79.85 8.07C79.78 7.87 79.85 7.64 80.03 7.52L82.56 5.68C82.95 5.39 82.75 4.77 82.26 4.77L79.14 4.77C78.92 4.77 78.73 4.63 78.66 4.43L77.7 1.46C77.55 1 76.9 1 76.75 1.46Z" fill="#141414" fill-opacity="1.000000" fill-rule="evenodd"/>
	<path id="Polygon 1" d="M11.11 54.53L5.22 48.64C4.95 48.37 4.48 48.49 4.38 48.86L2.23 56.91C2.13 57.28 2.47 57.62 2.84 57.52L10.89 55.36C11.26 55.26 11.38 54.8 11.11 54.53Z" fill="#4EAF4E" fill-opacity="1.000000" fill-rule="evenodd"/>
	<circle id="Ellipse 13" cx="96.820312" cy="21.403320" r="7.058524" fill="#DADADA" fill-opacity="1.000000"/>
	<path id="Rectangle 31" d="M21.68 28.37L78.17 28.37L78.17 54.44C78.17 55.55 77.28 56.44 76.17 56.44L24.68 56.44C23.02 56.44 21.68 55.1 21.68 53.44L21.68 28.37Z" fill="#FFCC4A" fill-opacity="1.000000" fill-rule="evenodd"/>
	<path id="Rectangle 32" d="M64.78 28.93L20.67 28.93L20.67 20.47C20.67 18.26 22.47 16.47 24.67 16.47L61.78 16.47C63.44 16.47 64.78 17.81 64.78 19.47L64.78 28.93Z" fill="#4EAF4E" fill-opacity="1.000000" fill-rule="evenodd"/>
	<path id="Rectangle 32" d="M20.67 28.93L20.67 20.47C20.67 18.26 22.47 16.47 24.67 16.47L61.78 16.47C63.44 16.47 64.78 17.81 64.78 19.47L64.78 28.93L20.67 28.93ZM22.67 26.93L22.67 20.47C22.67 19.37 23.57 18.47 24.67 18.47L61.78 18.47C62.33 18.47 62.78 18.92 62.78 19.47L62.78 26.93L22.67 26.93Z" fill="#141414" fill-opacity="1.000000" fill-rule="evenodd"/>
	<path id="Vector" d="M75.53 17.2C76.72 17.2 77.69 18.17 77.69 19.37L77.69 54C77.69 55.2 76.72 56.16 75.53 56.16L23.58 56.16C22.39 56.16 21.42 55.2 21.42 54L21.42 19.37C21.42 18.17 22.39 17.2 23.58 17.2L75.53 17.2Z" stroke="#141414" stroke-opacity="1.000000" stroke-width="2.000000" stroke-linejoin="round"/>
	<path id="Vector" d="M60.38 47.51L69.03 47.51" stroke="#141414" stroke-opacity="1.000000" stroke-width="2.000000" stroke-linejoin="round" stroke-linecap="round"/>
	<path id="Vector" d="M47.39 47.51L51.72 47.51" stroke="#141414" stroke-opacity="1.000000" stroke-width="2.000000" stroke-linejoin="round" stroke-linecap="round"/>
	<path id="Vector" d="M21.42 28.27L77.69 28.27" stroke="#141414" stroke-opacity="1.000000" stroke-width="2.000000" stroke-linejoin="round" stroke-linecap="round"/>
</svg>
