<svg width="20.000000" height="16.000000" viewBox="0 0 20 16" fill="none" xmlns="http://www.w3.org/2000/svg" xmlns:xlink="http://www.w3.org/1999/xlink">
	<desc>
			Created with Pixso.
	</desc>
	<defs/>
	<path id="Icon" d="M19.67 1.57C18.92 1.9 18.14 2.11 17.33 2.21C18.18 1.71 18.82 0.92 19.12 -0.01C18.32 0.46 17.44 0.79 16.53 0.96C16.15 0.56 15.68 0.24 15.17 0.02C14.66 -0.2 14.11 -0.31 13.55 -0.31C11.3 -0.31 9.47 1.49 9.47 3.7C9.47 4.01 9.51 4.32 9.58 4.62C7.96 4.54 6.38 4.13 4.93 3.41C3.48 2.68 2.2 1.67 1.17 0.42C0.81 1.03 0.62 1.73 0.61 2.44C0.61 3.83 1.34 5.06 2.44 5.78C1.79 5.76 1.15 5.59 0.58 5.28L0.58 5.33C0.58 7.27 1.99 8.89 3.86 9.26C3.5 9.35 3.14 9.4 2.78 9.4C2.52 9.4 2.27 9.38 2.01 9.33C2.53 10.92 4.04 12.08 5.83 12.11C4.37 13.23 2.59 13.84 0.76 13.83C0.43 13.83 0.11 13.81 -0.21 13.77C1.65 14.96 3.82 15.59 6.03 15.59C13.54 15.59 17.65 9.47 17.65 4.17C17.65 4 17.64 3.82 17.64 3.65C18.43 3.09 19.12 2.38 19.67 1.57Z" fill="#FFFFFF" fill-opacity="1.000000" fill-rule="nonzero"/>
</svg>
